<svg width="1920" height="1080" viewBox="0 0 1920 1080" fill="none" xmlns="http://www.w3.org/2000/svg">
<g clip-path="url(#clip0_252_1273)">
<rect width="1920" height="1080" fill="#3B5BFF"/>
<path d="M651.738 360.4H771.471V360.4C771.471 426.526 717.865 480.132 651.738 480.132V480.132V360.4Z" fill="#F4F6FA"/>
<path d="M660.805 719.6C660.805 658.628 710.232 609.2 771.205 609.2V609.2V719.6H660.805V719.6Z" fill="#F4F6FA"/>
<path d="M532.004 480.133H651.736V480.133C651.736 546.259 598.13 599.865 532.004 599.865V599.865V480.133Z" fill="#F4F6FA"/>
<path d="M891.204 599.866H767.974C703.516 601.714 651.821 654.505 651.738 719.391V599.814H651.739C651.767 533.711 705.362 480.133 771.472 480.133L891.204 480.133V599.866ZM711.604 531.02C706.644 531.02 702.623 535.04 702.623 540C702.623 544.959 706.644 548.98 711.604 548.98C716.563 548.98 720.583 544.959 720.583 540C720.583 535.04 716.563 531.02 711.604 531.02Z" fill="#F4F6FA"/>
<path d="M1268.57 497.738C1309.91 497.738 1309.95 535.253 1304.81 552.845H1245.25C1247.19 559.862 1250.92 570.844 1268.57 570.844C1282.68 570.844 1293.57 564.947 1297.24 561.998L1306.38 579.082C1301.55 583.149 1287.22 591.285 1268.57 591.285C1227.29 591.285 1221.93 559.252 1220.98 552.845C1220.04 546.438 1216.89 497.738 1268.57 497.738ZM1267.44 515.859C1262.2 515.859 1257.18 517.783 1253.47 521.208C1249.77 524.632 1246.18 529.616 1246.18 533.118H1285.7C1285.7 528.275 1285.12 524.632 1281.42 521.208C1277.71 517.783 1272.68 515.859 1267.44 515.859Z" fill="#F4F6FA"/>
<path d="M961.719 475.977C984.468 475.977 999.235 486.045 1004.31 490.234L994.785 510.852C986.96 506.884 969.06 498.949 960.065 498.949C948.823 498.949 943.532 506.223 946.839 512.505C949.484 517.531 957.861 520.551 961.719 521.433V521.45C969.486 522.903 987.922 527.813 997.673 535.983C1009.91 546.234 1004.49 568.977 1001.97 573.348C997.674 580.794 986.76 591.535 961.631 591.535C938.881 591.535 916.856 578.859 911.785 574.67L922.035 554.831C935.262 566.404 951.739 570.955 960.724 571.364C975.273 572.025 980.478 561.774 977.172 555.492C974.527 550.466 965.489 547.446 961.631 546.564V546.546C953.868 545.093 936.088 540.185 926.337 532.015C914.103 521.765 919.515 499.022 922.038 494.65C926.336 487.204 936.588 475.977 961.719 475.977Z" fill="#F4F6FA"/>
<path d="M1169.44 497.625C1151.99 497.625 1140.99 505.756 1137.67 509.821C1134.68 505.756 1125.28 497.625 1111.68 497.625C1098.07 497.625 1086.13 505.756 1081.64 509.821V497.625H1058.08V591.284H1081.64V536.779C1081.64 530.154 1090.69 519.449 1103.01 519.449C1118.42 519.449 1120.34 533.57 1120.34 542.556V585.881H1144.12V538.146C1144.12 531.642 1150.38 519.498 1166.6 519.498C1178.38 519.498 1182.81 531.708 1182.81 537.164V581.509C1182.81 593.383 1192.51 601.289 1202.78 601.289C1210.99 601.289 1217.2 598.087 1220.41 596.696V576.829L1217.41 579.075C1207.4 583.954 1206.04 576.187 1206.36 571.694V527.35C1206.36 515.475 1191.27 497.625 1169.44 497.625Z" fill="#F4F6FA"/>
<path d="M1344.77 509.933C1349.26 505.868 1361.2 497.738 1374.81 497.738C1377.36 497.738 1379.76 498.023 1382 498.513C1384.15 498.985 1386.16 499.647 1388 500.427L1376.24 522.514C1375.29 521.806 1374.21 521.203 1372.99 520.73C1371.07 519.984 1368.81 519.561 1366.15 519.561C1353.82 519.561 1344.77 530.266 1344.77 536.891V591.397H1321.21V497.738H1344.77V509.933Z" fill="#F4F6FA"/>
<rect x="1019.59" y="497.625" width="24.4693" height="93.9091" fill="#F4F6FA"/>
<path d="M324.832 816.101L389.503 727.73" stroke="#A8C7FF" stroke-width="17.1594"/>
<path d="M322.375 772.396L363.874 714.248" stroke="#A8C7FF" stroke-width="17.1594"/>
<path d="M1216.92 363.901C1213.58 357.943 1209.94 341.778 1222.08 324.777C1234.23 307.776 1265.95 300.746 1280.29 299.356C1270.23 296.038 1227.72 285.58 1224.23 262.824C1220.74 240.068 1242.02 224.838 1253.1 220.067C1237.47 220.812 1219.44 213.347 1207.2 196.048C1193.57 176.787 1208.28 159.815 1212 154.554" stroke="#3B5BFF" stroke-width="17.1594"/>
<path d="M516.489 874.442C513 851.686 534.28 836.455 545.355 831.684C529.729 832.429 511.698 824.964 499.459 807.666C485.832 788.405 500.536 771.432 504.258 766.171" stroke="#C7FF4E" stroke-width="17.1594"/>
<path d="M1169.24 45.4864C1147.23 52.238 1129.08 33.3925 1122.75 23.1258C1125.76 38.4787 1120.98 57.4018 1105.64 72.0201C1088.56 88.2968 1069.64 76.2093 1063.89 73.2894" stroke="#C7FF4E" stroke-width="17.1594"/>
<path d="M123.819 672.783C135.258 681.72 163.5 692.301 184.949 663.13C211.761 626.667 168.862 595.565 150.63 608.435C132.398 621.304 144.196 636.319 157.065 630.957C169.935 625.594 190.311 583.768 157.065 554.812C123.819 525.855 114.167 555.884 115.239 563.391C116.312 570.899 132.398 580.452 138.833 563.391C143.981 549.743 135.973 526.96 131.326 517.275" stroke="#FF4E4E" stroke-width="17.1594"/>
<path d="M1790.02 720.37C1801.46 729.307 1829.7 739.889 1851.15 710.718C1877.96 674.254 1835.07 643.153 1816.83 656.022C1798.6 668.892 1810.4 683.906 1823.27 678.544C1836.14 673.182 1856.51 631.356 1823.27 602.399C1790.02 573.443 1780.37 603.472 1781.44 610.979C1782.51 618.486 1798.6 628.04 1805.04 610.979C1810.18 597.33 1802.18 574.548 1797.53 564.863" stroke="#FF4E4E" stroke-width="17.1594"/>
<path d="M1242.39 946.962C1249.34 959.705 1271.06 980.627 1302.33 962.364C1341.41 939.537 1314.38 893.964 1292.54 898.54C1270.7 903.117 1275.56 921.58 1289.51 921.766C1303.45 921.952 1338.75 891.649 1319.73 851.875C1300.7 812.102 1279.92 835.834 1277.93 843.15C1275.93 850.467 1286.91 865.62 1299.59 852.514C1309.73 842.03 1311.42 817.94 1311 807.206" stroke="#3B5BFF" stroke-width="17.1594"/>
<path d="M1179.31 373.315C1166.65 350.893 1147.27 302.603 1170.99 288.817C1194.72 275.03 1219.99 316.395 1229.66 338.8C1220.86 311.896 1211.7 257.256 1245.5 253.93C1279.3 250.604 1291.65 297.2 1293.61 320.913C1292.07 294.105 1295.23 241.806 1320.2 247.081C1345.16 252.355 1353.82 304.921 1355.03 330.545" stroke="#FF4E4E" stroke-width="19.6739"/>
<path d="M120.297 211.101C114.149 186.099 108.493 134.373 135.053 127.487C161.612 120.601 174.809 167.245 178.087 191.427C176.857 163.146 182.76 108.06 216.205 113.962C249.651 119.864 248.995 168.065 244.487 191.427C250.225 165.195 267.357 115.681 289.983 127.487C312.608 139.292 306.787 192.248 301.049 217.251" stroke="#3B5BFF" stroke-width="19.6739"/>
<path d="M1889.08 211.101C1882.93 186.099 1877.27 134.373 1903.83 127.487C1930.39 120.601 1943.59 167.245 1946.87 191.427C1945.64 163.146 1951.54 108.06 1984.99 113.962C2018.43 119.864 2017.78 168.065 2013.27 191.427C2019.01 165.195 2036.14 115.681 2058.76 127.487C2081.39 139.292 2075.57 192.248 2069.83 217.251" stroke="#3B5BFF" stroke-width="19.6739"/>
<path d="M56.4363 369.856C61.1601 354.926 64.0878 321.239 38.0079 305.923C5.40802 286.779 -23.3234 292.303 -41.8502 332.671C-60.3769 373.039 -22.1542 407.752 38.5279 417.991" stroke="#C7FF4E" stroke-width="19.472"/>
<path d="M1825.22 369.856C1829.94 354.926 1832.87 321.239 1806.79 305.923C1774.19 286.779 1745.46 292.303 1726.93 332.671C1708.4 373.039 1746.63 407.752 1807.31 417.991" stroke="#C7FF4E" stroke-width="19.472"/>
<path d="M153.537 1015C167.983 1021.05 201.273 1026.98 218.863 1002.38C240.85 971.623 237.922 942.512 199.376 920.444C160.83 898.376 122.833 933.336 107.2 992.857" stroke="#C7FF4E" stroke-width="19.472"/>
<path d="M949.836 960.167C950.335 937.21 940.41 898.647 896.727 928.047C853.044 957.447 829.69 939.151 823.474 926.328" stroke="#C7FF4E" stroke-width="19.472"/>
<path d="M452.49 123.588C450.371 100.723 457.545 61.5546 503.197 87.7947C548.848 114.035 570.85 94.1342 576.145 80.9039" stroke="#A8C7FF" stroke-width="19.472"/>
<path d="M198.492 207.077V99.9805" stroke="#A8C7FF" stroke-width="14.604"/>
<path d="M160.635 198.687L236.363 122.959" stroke="#A8C7FF" stroke-width="14.604"/>
<path d="M144.955 160.819L252.051 160.819" stroke="#A8C7FF" stroke-width="14.604"/>
<path d="M160.647 122.959L236.375 198.687" stroke="#A8C7FF" stroke-width="14.604"/>
<path d="M1602.84 564.253V457.157" stroke="#A8C7FF" stroke-width="14.604"/>
<path d="M1564.99 555.864L1640.71 480.135" stroke="#A8C7FF" stroke-width="14.604"/>
<path d="M1549.31 517.996L1656.41 517.996" stroke="#A8C7FF" stroke-width="14.604"/>
<path d="M1565.01 480.134L1640.73 555.863" stroke="#A8C7FF" stroke-width="14.604"/>
<path d="M1306.48 1026.19V919.094" stroke="#A8C7FF" stroke-width="14.604"/>
<path d="M1268.62 1017.8L1344.35 942.072" stroke="#A8C7FF" stroke-width="14.604"/>
<path d="M1252.94 979.933L1360.04 979.933" stroke="#A8C7FF" stroke-width="14.604"/>
<path d="M1268.64 942.071L1344.37 1017.8" stroke="#A8C7FF" stroke-width="14.604"/>
<path d="M198.504 1042.94L232.58 1080.67" stroke="#3B5BFF" stroke-width="19.472"/>
<path d="M249.148 1017.48L259.832 1067.19" stroke="#3B5BFF" stroke-width="19.472"/>
<path d="M629.41 185.349L603.778 229.252" stroke="#FF4E4E" stroke-width="19.472"/>
<path d="M669.012 225.9L624.881 251.138" stroke="#FF4E4E" stroke-width="19.472"/>
<path d="M996.384 746.762C987.367 769.305 981.137 816.112 1028.35 822.998C1075.57 829.884 1076.72 775.043 1071.39 746.762" stroke="#A8C7FF" stroke-width="19.6739"/>
<path d="M1371.74 30.0844C1383.34 55.4815 1413.27 100.503 1440.19 77.4142C1473.84 48.5528 1478.56 -7.34106 1449.34 -7.88825C1420.12 -8.43544 1415.23 19.8035 1434.19 41.498C1453.14 63.1926 1479.85 84.4701 1513.21 82.094" stroke="#FF4E4E" stroke-width="19.6739"/>
<path d="M1605.87 862.506C1604.23 834.635 1592.59 781.843 1559.15 793.648C1517.34 808.403 1492.75 858.818 1519.8 869.884C1546.85 880.951 1561.6 856.383 1551.77 829.307C1541.93 802.23 1524.72 772.743 1492.75 762.906" stroke="#FF4E4E" stroke-width="19.6739"/>
<path d="M365.158 444.804C339.582 465.461 343.02 494.506 365.158 503.826C411.882 523.5 419.261 476.774 419.261 469.396C419.261 462.019 397.128 418.982 365.158 444.804Z" stroke="#C7FF4E" stroke-width="19.6739"/>
<path d="M1749.92 1016.47C1700.42 1056.46 1707.07 1112.67 1749.92 1130.71C1840.37 1168.8 1854.65 1078.35 1854.65 1064.07C1854.65 1049.79 1811.81 966.488 1749.92 1016.47Z" stroke="#C7FF4E" stroke-width="19.6739"/>
<path d="M1310.67 745.686C1294.57 758.469 1296.73 776.441 1310.67 782.208C1340.08 794.382 1344.73 765.469 1344.73 760.904C1344.73 756.338 1330.79 729.708 1310.67 745.686Z" stroke="#C7FF4E" stroke-width="19.6739"/>
<path d="M667.213 1049.54L705.097 1115.16M653.691 1100.44L718.515 1063.02" stroke="#A8C7FF" stroke-width="17.1563"/>
<path d="M1643.58 80.1851L1681.47 145.804M1630.06 131.089L1694.89 93.6635" stroke="#A8C7FF" stroke-width="17.1563"/>
<path d="M939.436 193.018L924.233 267.246M895.541 222.126L968.87 237.144" stroke="#A8C7FF" stroke-width="17.1563"/>
</g>
<defs>
<clipPath id="clip0_252_1273">
<rect width="1920" height="1080" fill="white"/>
</clipPath>
</defs>
</svg>
