<svg width="686" height="535" viewBox="0 0 686 535" fill="none" xmlns="http://www.w3.org/2000/svg">
<rect width="104" height="535" fill="#3B5BFF"/>
<path d="M66.7031 481.4L40.3031 481.4L40.3031 472.16C40.3031 470.72 40.4365 469.413 40.7031 468.24C40.9431 467.04 41.3431 466.027 41.9031 465.2C42.4631 464.347 43.1831 463.693 44.0631 463.24C44.9165 462.787 45.9565 462.56 47.1831 462.56C48.1965 462.56 49.0898 462.76 49.8631 463.16C50.6098 463.56 51.2365 464.187 51.7431 465.04C52.2231 465.867 52.5965 466.973 52.8631 468.36L53.3031 468.36C53.5165 465.933 54.1831 464.187 55.3031 463.12C56.4231 462.053 57.8898 461.52 59.7031 461.52C61.1965 461.52 62.4631 461.853 63.5031 462.52C64.5431 463.187 65.3431 464.24 65.9031 465.68C66.4365 467.093 66.7031 468.933 66.7031 471.2L66.7031 481.4ZM64.0631 478.52L64.0631 470.68C64.0631 468.6 63.7031 467.04 62.9831 466C62.2365 464.96 61.1165 464.44 59.6231 464.44C57.8631 464.44 56.5431 465.173 55.6631 466.64C54.7831 468.08 54.3431 470.267 54.3431 473.2L54.3431 478.52L64.0631 478.52ZM51.9431 478.52L51.9431 473.92C51.9431 471.093 51.5698 468.987 50.8231 467.6C50.0765 466.213 48.9298 465.52 47.3831 465.52C45.8898 465.52 44.7698 466.12 44.0231 467.32C43.2765 468.493 42.9031 470.267 42.9031 472.64L42.9031 478.52L51.9431 478.52ZM66.7031 455.742L55.1431 455.742L46.1031 455.742L46.1031 452.942L53.3431 453.382L53.3431 452.742C51.8498 452.476 50.5298 452.102 49.3831 451.622C48.2098 451.116 47.2898 450.449 46.6231 449.622C45.9565 448.796 45.6231 447.796 45.6231 446.622C45.6231 446.329 45.6498 445.996 45.7031 445.622C45.7298 445.249 45.8231 444.836 45.9831 444.382L49.0631 444.582C48.9298 444.956 48.8231 445.342 48.7431 445.742C48.6631 446.116 48.6231 446.476 48.6231 446.822C48.6231 447.889 48.9965 448.796 49.7431 449.542C50.4631 450.289 51.4365 450.929 52.6631 451.462C53.8631 451.969 55.1965 452.409 56.6631 452.782L66.7031 452.782L66.7031 455.742ZM66.7031 440.234L46.1031 440.234L46.1031 437.274L66.7031 437.274L66.7031 440.234ZM42.3431 438.754C42.3431 439.5 42.1965 440.06 41.9031 440.434C41.5831 440.807 41.1165 440.994 40.5031 440.994C39.9165 440.994 39.4631 440.807 39.1431 440.434C38.8231 440.06 38.6631 439.514 38.6631 438.794C38.6631 438.047 38.8231 437.487 39.1431 437.114C39.4365 436.714 39.8898 436.514 40.5031 436.514C41.1165 436.514 41.5831 436.714 41.9031 437.114C42.1965 437.487 42.3431 438.034 42.3431 438.754ZM67.1831 422.025C67.1831 423.839 66.8898 425.359 66.3031 426.585C65.7165 427.812 64.9165 428.799 63.9031 429.545C62.8898 430.292 61.7565 430.839 60.5031 431.185C59.2498 431.532 57.9565 431.705 56.6231 431.705C55.1298 431.705 53.7298 431.519 52.4231 431.145C51.0898 430.745 49.9165 430.159 48.9031 429.385C47.8631 428.585 47.0631 427.599 46.5031 426.425C45.9165 425.252 45.6231 423.865 45.6231 422.265C45.6231 420.745 45.9031 419.399 46.4631 418.225C46.9965 417.025 47.7565 416.052 48.7431 415.305C49.7031 414.559 50.8631 414.092 52.2231 413.905L52.9431 416.745C52.2498 416.799 51.5431 417.025 50.8231 417.425C50.0765 417.825 49.4631 418.425 48.9831 419.225C48.5031 419.999 48.2631 421.012 48.2631 422.265C48.2631 423.359 48.4765 424.305 48.9031 425.105C49.3298 425.905 49.9298 426.572 50.7031 427.105C51.4498 427.639 52.3298 428.039 53.3431 428.305C54.3565 428.572 55.4498 428.705 56.6231 428.705C58.1698 428.705 59.5431 428.479 60.7431 428.025C61.9431 427.545 62.8898 426.812 63.5831 425.825C64.2765 424.839 64.6231 423.559 64.6231 421.985C64.6231 420.865 64.4365 419.892 64.0631 419.065C63.6631 418.239 63.1031 417.585 62.3831 417.105C61.6631 416.599 60.7698 416.265 59.7031 416.105L60.3431 413.345C61.5431 413.559 62.5698 413.932 63.4231 414.465C64.2765 414.972 64.9831 415.612 65.5431 416.385C66.1031 417.132 66.5165 417.985 66.7831 418.945C67.0498 419.879 67.1831 420.905 67.1831 422.025ZM67.1831 400.147C67.1831 402.094 66.7565 403.814 65.9031 405.307C65.0231 406.774 63.7831 407.921 62.1831 408.747C60.5565 409.547 58.5965 409.947 56.3031 409.947C53.9031 409.947 51.9165 409.521 50.3431 408.667C48.7698 407.787 47.5965 406.614 46.8231 405.147C46.0231 403.681 45.6231 402.054 45.6231 400.267C45.6231 398.427 46.0498 396.774 46.9031 395.307C47.7298 393.814 48.9565 392.641 50.5831 391.787C52.1831 390.907 54.1565 390.467 56.5031 390.467C58.8498 390.467 60.8231 390.894 62.4231 391.747C63.9965 392.601 65.1831 393.761 65.9831 395.227C66.7831 396.694 67.1831 398.334 67.1831 400.147ZM64.6231 400.027C64.6231 398.667 64.2898 397.494 63.6231 396.507C62.9565 395.521 62.0231 394.761 60.8231 394.227C59.5965 393.694 58.1698 393.427 56.5431 393.427C54.8631 393.427 53.4098 393.707 52.1831 394.267C50.9298 394.827 49.9698 395.627 49.3031 396.667C48.6098 397.681 48.2631 398.907 48.2631 400.347C48.2631 401.681 48.5831 402.841 49.2231 403.827C49.8365 404.814 50.7431 405.587 51.9431 406.147C53.1165 406.707 54.5431 406.987 56.2231 406.987C58.8098 406.987 60.8631 406.361 62.3831 405.107C63.8765 403.854 64.6231 402.161 64.6231 400.027ZM66.7031 384.922L38.9031 384.922L38.9031 381.962L66.7031 381.962L66.7031 384.922ZM67.1831 370.593C67.1831 371.713 66.9831 372.726 66.5831 373.633C66.1565 374.539 65.5031 375.259 64.6231 375.793C63.7431 376.326 62.6498 376.593 61.3431 376.593C60.4098 376.593 59.5698 376.433 58.8231 376.113C58.0765 375.766 57.4365 375.233 56.9031 374.513C56.3431 373.793 55.8765 372.833 55.5031 371.633C55.1298 370.433 54.8365 368.966 54.6231 367.233C54.4898 366.166 54.3565 365.313 54.2231 364.673C54.0631 364.033 53.8365 363.566 53.5431 363.273C53.2231 362.953 52.7431 362.793 52.1031 362.793C51.0098 362.793 50.0898 363.166 49.3431 363.913C48.5698 364.659 48.1831 365.833 48.1831 367.433C48.1831 368.206 48.3165 369.019 48.5831 369.873C48.8498 370.726 49.3165 371.473 49.9831 372.113C50.6498 372.753 51.5965 373.153 52.8231 373.313L51.8231 376.073C50.8898 375.886 50.0498 375.566 49.3031 375.113C48.5565 374.659 47.9031 374.059 47.3431 373.313C46.7831 372.566 46.3565 371.699 46.0631 370.713C45.7698 369.699 45.6231 368.579 45.6231 367.353C45.6231 365.673 45.9031 364.286 46.4631 363.193C47.0231 362.073 47.8898 361.246 49.0631 360.713C50.2098 360.153 51.6898 359.873 53.5031 359.873L58.4231 359.873C59.2231 359.873 60.1165 359.859 61.1031 359.833C62.0631 359.779 63.0365 359.713 64.0231 359.633C64.9831 359.553 65.8765 359.473 66.7031 359.393L66.7031 362.153C65.7965 362.233 64.9165 362.299 64.0631 362.353C63.2098 362.406 62.3565 362.446 61.5031 362.473L61.5031 362.953C62.4898 363.326 63.4231 363.846 64.3031 364.513C65.1565 365.179 65.8498 366.019 66.3831 367.033C66.9165 368.019 67.1831 369.206 67.1831 370.593ZM64.6631 369.953C64.6631 369.366 64.5698 368.753 64.3831 368.113C64.1698 367.473 63.8498 366.833 63.4231 366.193C62.9698 365.553 62.3831 364.953 61.6631 364.393C60.9165 363.806 60.0231 363.259 58.9831 362.753L54.7831 362.753L54.9831 361.633C55.4365 362.059 55.7831 362.646 56.0231 363.393C56.2365 364.113 56.4098 364.926 56.5431 365.833C56.6765 366.739 56.8231 367.659 56.9831 368.593C57.1431 369.499 57.3831 370.339 57.7031 371.113C57.9965 371.859 58.4231 372.473 58.9831 372.953C59.5165 373.406 60.2631 373.633 61.2231 373.633C62.3698 373.633 63.2365 373.299 63.8231 372.633C64.3831 371.939 64.6631 371.046 64.6631 369.953ZM73.6231 345.879C73.6231 348.012 73.4498 349.772 73.1031 351.159C72.7831 352.519 72.2765 353.532 71.5831 354.199C70.9165 354.865 70.0765 355.199 69.0631 355.199C67.8365 355.199 66.8365 354.719 66.0631 353.759C65.2631 352.799 64.7031 351.332 64.3831 349.359L63.6631 349.359C63.6898 350.799 63.5298 351.865 63.1831 352.559C62.8098 353.225 62.2898 353.559 61.6231 353.559C60.9031 353.559 60.3031 353.212 59.8231 352.519C59.3431 351.799 58.8898 350.665 58.4631 349.119L57.7431 349.119C57.7431 350.719 57.2631 351.932 56.3031 352.759C55.3431 353.585 54.1165 353.999 52.6231 353.999C51.2365 353.999 50.0498 353.639 49.0631 352.919C48.0765 352.172 47.3298 351.119 46.8231 349.759C46.2898 348.372 46.0231 346.745 46.0231 344.879L46.0231 335.439L48.6631 335.439L47.6631 341.719L48.3831 341.719C48.7298 340.225 49.3165 339.065 50.1431 338.239C50.9431 337.385 52.0098 336.959 53.3431 336.959C54.4898 336.959 55.5031 337.292 56.3831 337.959C57.2365 338.599 57.9031 339.572 58.3831 340.879C58.8365 342.159 59.0631 343.745 59.0631 345.639C59.0631 346.012 59.0498 346.412 59.0231 346.839C58.9698 347.239 58.8898 347.732 58.7831 348.319C59.2631 349.119 59.7031 349.759 60.1031 350.239C60.4765 350.719 60.8365 350.959 61.1831 350.959C61.5031 350.959 61.7565 350.732 61.9431 350.279C62.1298 349.799 62.2631 349.225 62.3431 348.559C62.3965 347.865 62.4231 347.239 62.4231 346.679L62.4231 342.439C62.4231 341.905 62.4765 341.239 62.5831 340.439C62.6898 339.639 62.9165 338.839 63.2631 338.039C63.6098 337.239 64.1431 336.572 64.8631 336.039C65.5565 335.479 66.5165 335.199 67.7431 335.199C69.1565 335.199 70.2898 335.625 71.1431 336.479C72.0231 337.332 72.6498 338.545 73.0231 340.119C73.4231 341.692 73.6231 343.612 73.6231 345.879ZM71.1431 345.959C71.1431 344.145 71.0231 342.652 70.7831 341.479C70.5431 340.305 70.1565 339.439 69.6231 338.879C69.1165 338.292 68.4631 337.999 67.6631 337.999C66.9165 337.999 66.3431 338.199 65.9431 338.599C65.5165 338.999 65.2231 339.492 65.0631 340.079C64.8765 340.665 64.7698 341.265 64.7431 341.879C64.6898 342.465 64.6631 342.972 64.6631 343.399L64.6631 347.919C65.0898 349.625 65.6231 350.785 66.2631 351.399C66.9031 351.985 67.5831 352.279 68.3031 352.279C69.1031 352.279 69.7031 351.999 70.1031 351.439C70.5031 350.852 70.7698 350.079 70.9031 349.119C71.0631 348.132 71.1431 347.079 71.1431 345.959ZM56.9431 345.319C56.9431 343.505 56.5831 342.132 55.8631 341.199C55.1431 340.265 54.1565 339.799 52.9031 339.799C51.5965 339.799 50.5165 340.279 49.6631 341.239C48.8098 342.172 48.3831 343.585 48.3831 345.479C48.3831 347.292 48.7965 348.679 49.6231 349.639C50.4231 350.599 51.4631 351.079 52.7431 351.079C53.5965 351.079 54.3431 350.865 54.9831 350.439C55.5965 349.985 56.0765 349.332 56.4231 348.479C56.7698 347.625 56.9431 346.572 56.9431 345.319ZM67.1831 321.986C67.1831 323.586 66.9431 324.986 66.4631 326.186C65.9565 327.386 65.2365 328.4 64.3031 329.226C63.3698 330.053 62.2631 330.666 60.9831 331.066C59.7031 331.466 58.2898 331.666 56.7431 331.666C55.1431 331.666 53.6765 331.466 52.3431 331.066C50.9831 330.64 49.7965 330.026 48.7831 329.226C47.7698 328.426 46.9965 327.453 46.4631 326.306C45.9031 325.133 45.6231 323.786 45.6231 322.266C45.6231 320.986 45.8498 319.813 46.3031 318.746C46.7298 317.68 47.3965 316.76 48.3031 315.986C49.2098 315.213 50.3698 314.626 51.7831 314.226C53.1698 313.826 54.8231 313.653 56.7431 313.706L56.8631 329.866L54.5831 329.866L54.4631 315.546L56.1831 316.546C54.4231 316.44 52.9564 316.626 51.7831 317.106C50.6098 317.56 49.7298 318.24 49.1431 319.146C48.5565 320.026 48.2631 321.08 48.2631 322.306C48.2631 323.613 48.5965 324.76 49.2631 325.746C49.9298 326.706 50.9031 327.453 52.1831 327.986C53.4365 328.52 54.9431 328.786 56.7031 328.786C59.2365 328.786 61.1965 328.226 62.5831 327.106C63.9431 325.96 64.6231 324.226 64.6231 321.906C64.6231 321.026 64.5298 320.253 64.3431 319.586C64.1298 318.92 63.8365 318.36 63.4631 317.906C63.0898 317.426 62.6498 317.026 62.1431 316.706C61.6365 316.386 61.0765 316.146 60.4631 315.986L61.1031 313.386C62.0631 313.653 62.9298 314.04 63.7031 314.546C64.4498 315.026 65.0898 315.626 65.6231 316.346C66.1298 317.066 66.5165 317.893 66.7831 318.826C67.0498 319.76 67.1831 320.813 67.1831 321.986ZM67.1831 287.333C67.1831 289.493 66.6898 291.413 65.7031 293.093C64.6898 294.773 63.1831 296.093 61.1831 297.053C59.1831 297.986 56.6498 298.453 53.5831 298.453C51.4498 298.453 49.5431 298.199 47.8631 297.693C46.1564 297.186 44.7031 296.439 43.5031 295.453C42.3031 294.439 41.3964 293.213 40.7831 291.773C40.1431 290.306 39.8231 288.613 39.8231 286.693C39.8231 285.279 40.0098 283.999 40.3831 282.853C40.7298 281.706 41.2498 280.706 41.9431 279.853C42.6364 278.973 43.5031 278.266 44.5431 277.733C45.5564 277.199 46.7164 276.853 48.0231 276.693L48.8231 279.573C47.2498 279.679 46.0098 280.093 45.1031 280.813C44.1698 281.533 43.5031 282.413 43.1031 283.453C42.7031 284.493 42.5031 285.586 42.5031 286.733C42.5031 288.413 42.8764 289.906 43.6231 291.213C44.3698 292.493 45.5564 293.506 47.1831 294.253C48.7831 294.999 50.9031 295.373 53.5431 295.373C55.5964 295.373 57.3298 295.146 58.7431 294.693C60.1298 294.213 61.2498 293.599 62.1031 292.853C62.9298 292.079 63.5298 291.186 63.9031 290.173C64.2498 289.159 64.4231 288.119 64.4231 287.053C64.4231 285.559 64.1431 284.279 63.5831 283.213C62.9964 282.146 62.1164 281.279 60.9431 280.613C59.7698 279.946 58.2898 279.519 56.5031 279.333L56.5031 285.693L53.9831 285.693L53.9831 276.373L57.6631 276.373L66.7031 276.373L66.7031 279.053L59.3431 278.053L59.3431 278.613C61.1298 278.933 62.6098 279.466 63.7831 280.213C64.9298 280.933 65.7831 281.893 66.3431 283.093C66.9031 284.266 67.1831 285.679 67.1831 287.333ZM66.7031 270.196L55.1431 270.196L46.1031 270.196L46.1031 267.396L53.3431 267.836L53.3431 267.196C51.8498 266.929 50.5298 266.556 49.3831 266.076C48.2098 265.569 47.2898 264.902 46.6231 264.076C45.9564 263.249 45.6231 262.249 45.6231 261.076C45.6231 260.782 45.6498 260.449 45.7031 260.076C45.7298 259.702 45.8231 259.289 45.9831 258.836L49.0631 259.036C48.9298 259.409 48.8231 259.796 48.7431 260.196C48.6631 260.569 48.6231 260.929 48.6231 261.276C48.6231 262.342 48.9964 263.249 49.7431 263.996C50.4631 264.742 51.4364 265.382 52.6631 265.916C53.8631 266.422 55.1964 266.862 56.6631 267.236L66.7031 267.236L66.7031 270.196ZM67.1831 246.437C67.1831 248.383 66.7564 250.103 65.9031 251.597C65.0231 253.063 63.7831 254.21 62.1831 255.037C60.5564 255.837 58.5964 256.237 56.3031 256.237C53.9031 256.237 51.9164 255.81 50.3431 254.957C48.7698 254.077 47.5964 252.903 46.8231 251.437C46.0231 249.97 45.6231 248.343 45.6231 246.557C45.6231 244.717 46.0498 243.063 46.9031 241.597C47.7298 240.103 48.9564 238.93 50.5831 238.077C52.1831 237.197 54.1564 236.757 56.5031 236.757C58.8498 236.757 60.8231 237.183 62.4231 238.037C63.9964 238.89 65.1831 240.05 65.9831 241.517C66.7831 242.983 67.1831 244.623 67.1831 246.437ZM64.6231 246.317C64.6231 244.957 64.2898 243.783 63.6231 242.797C62.9564 241.81 62.0231 241.05 60.8231 240.517C59.5964 239.983 58.1698 239.717 56.5431 239.717C54.8631 239.717 53.4098 239.997 52.1831 240.557C50.9298 241.117 49.9698 241.917 49.3031 242.957C48.6098 243.97 48.2631 245.197 48.2631 246.637C48.2631 247.97 48.5831 249.13 49.2231 250.117C49.8364 251.103 50.7431 251.877 51.9431 252.437C53.1164 252.997 54.5431 253.277 56.2231 253.277C58.8098 253.277 60.8631 252.65 62.3831 251.397C63.8764 250.143 64.6231 248.45 64.6231 246.317ZM67.1031 225.211C67.1031 226.998 66.6098 228.331 65.6231 229.211C64.6364 230.065 63.1698 230.491 61.2231 230.491L48.6631 230.491L48.6631 233.611L46.1031 233.611L46.1031 231.731C46.1031 231.118 45.9964 230.678 45.7831 230.411C45.5431 230.118 45.1564 229.945 44.6231 229.891L41.4631 229.531L41.4631 227.651L46.1031 227.651L46.1031 221.491L48.7031 221.491L48.7031 227.651L61.2231 227.651C62.3164 227.651 63.1164 227.398 63.6231 226.891C64.1031 226.385 64.3431 225.665 64.3431 224.731C64.3431 224.225 64.2764 223.691 64.1431 223.131C63.9831 222.571 63.6764 221.985 63.2231 221.371L66.3031 221.371C66.5698 222.118 66.7698 222.811 66.9031 223.451C67.0364 224.091 67.1031 224.678 67.1031 225.211ZM67.1831 208.353C67.1831 209.953 66.9431 211.353 66.4631 212.553C65.9564 213.753 65.2364 214.767 64.3031 215.593C63.3698 216.42 62.2631 217.033 60.9831 217.433C59.7031 217.833 58.2898 218.033 56.7431 218.033C55.1431 218.033 53.6764 217.833 52.3431 217.433C50.9831 217.007 49.7964 216.393 48.7831 215.593C47.7698 214.793 46.9964 213.82 46.4631 212.673C45.9031 211.5 45.6231 210.153 45.6231 208.633C45.6231 207.353 45.8498 206.18 46.3031 205.113C46.7298 204.047 47.3964 203.127 48.3031 202.353C49.2098 201.58 50.3698 200.993 51.7831 200.593C53.1698 200.193 54.8231 200.02 56.7431 200.073L56.8631 216.233L54.5831 216.233L54.4631 201.913L56.1831 202.913C54.4231 202.807 52.9564 202.993 51.7831 203.473C50.6098 203.927 49.7298 204.607 49.1431 205.513C48.5564 206.393 48.2631 207.447 48.2631 208.673C48.2631 209.98 48.5964 211.127 49.2631 212.113C49.9298 213.073 50.9031 213.82 52.1831 214.353C53.4364 214.887 54.9431 215.153 56.7031 215.153C59.2364 215.153 61.1964 214.593 62.5831 213.473C63.9431 212.327 64.6231 210.593 64.6231 208.273C64.6231 207.393 64.5298 206.62 64.3431 205.953C64.1298 205.287 63.8364 204.727 63.4631 204.273C63.0898 203.793 62.6498 203.393 62.1431 203.073C61.6364 202.753 61.0764 202.513 60.4631 202.353L61.1031 199.753C62.0631 200.02 62.9298 200.407 63.7031 200.913C64.4498 201.393 65.0898 201.993 65.6231 202.713C66.1298 203.433 66.5164 204.26 66.7831 205.193C67.0498 206.127 67.1831 207.18 67.1831 208.353ZM67.1831 186.857C67.1831 188.297 67.0231 189.577 66.7031 190.697C66.3831 191.791 65.9298 192.711 65.3431 193.457C64.7564 194.177 64.0498 194.724 63.2231 195.097C62.3964 195.444 61.4898 195.604 60.5031 195.577L60.0231 192.937C61.0098 193.044 61.8498 192.857 62.5431 192.377C63.2364 191.871 63.7698 191.137 64.1431 190.177C64.4898 189.217 64.6631 188.057 64.6631 186.697C64.6631 184.991 64.3698 183.671 63.7831 182.737C63.1964 181.804 62.3831 181.337 61.3431 181.337C60.5431 181.337 59.9164 181.604 59.4631 182.137C59.0098 182.644 58.6498 183.351 58.3831 184.257C58.1164 185.137 57.8764 186.164 57.6631 187.337C57.4498 188.297 57.2098 189.244 56.9431 190.177C56.6498 191.111 56.2898 191.964 55.8631 192.737C55.4364 193.484 54.8898 194.084 54.2231 194.537C53.5298 194.991 52.6631 195.217 51.6231 195.217C50.3698 195.217 49.3031 194.897 48.4231 194.257C47.5431 193.617 46.8631 192.697 46.3831 191.497C45.8764 190.297 45.6231 188.871 45.6231 187.217C45.6231 185.537 45.8898 184.124 46.4231 182.977C46.9564 181.804 47.7031 180.897 48.6631 180.257C49.6231 179.617 50.7431 179.271 52.0231 179.217L52.5831 181.897C51.5964 181.897 50.7831 182.124 50.1431 182.577C49.4764 183.031 48.9831 183.671 48.6631 184.497C48.3431 185.324 48.1831 186.297 48.1831 187.417C48.1831 188.937 48.4764 190.151 49.0631 191.057C49.6498 191.937 50.4498 192.377 51.4631 192.377C52.2364 192.377 52.8631 192.124 53.3431 191.617C53.7964 191.084 54.1564 190.377 54.4231 189.497C54.6631 188.617 54.8898 187.644 55.1031 186.577C55.3164 185.511 55.5564 184.497 55.8231 183.537C56.0898 182.577 56.4364 181.724 56.8631 180.977C57.2898 180.204 57.8498 179.604 58.5431 179.177C59.2364 178.724 60.1164 178.497 61.1831 178.497C62.5431 178.497 63.6764 178.857 64.5831 179.577C65.4631 180.271 66.1164 181.244 66.5431 182.497C66.9698 183.751 67.1831 185.204 67.1831 186.857ZM73.1031 159.002L67.6231 159.002C66.9298 159.002 66.1964 158.976 65.4231 158.922C64.6231 158.842 63.8364 158.749 63.0631 158.642C62.2631 158.536 61.5164 158.442 60.8231 158.362L60.8231 158.962C61.8364 159.229 62.8364 159.642 63.8231 160.202C64.8098 160.736 65.6231 161.482 66.2631 162.442C66.8764 163.376 67.1831 164.589 67.1831 166.082C67.1831 167.842 66.7164 169.336 65.7831 170.562C64.8498 171.789 63.5698 172.722 61.9431 173.362C60.3164 173.976 58.4764 174.282 56.4231 174.282C54.4231 174.282 52.6098 173.989 50.9831 173.402C49.3564 172.789 48.0631 171.856 47.1031 170.602C46.1164 169.349 45.6231 167.789 45.6231 165.922C45.6231 164.536 45.8898 163.402 46.4231 162.522C46.9298 161.616 47.6098 160.896 48.4631 160.362C49.3164 159.802 50.2631 159.389 51.3031 159.122L51.3031 158.522L46.1431 158.802L46.1431 156.042L56.3431 156.042L73.1031 156.042L73.1031 159.002ZM64.5031 165.442C64.5031 164.536 64.3298 163.736 63.9831 163.042C63.6098 162.349 63.1298 161.749 62.5431 161.242C61.9298 160.709 61.2631 160.282 60.5431 159.962C59.8231 159.616 59.1164 159.376 58.4231 159.242C57.7031 159.082 57.0764 159.002 56.5431 159.002L56.1431 159.002C55.2098 159.002 54.2898 159.162 53.3831 159.482C52.4498 159.776 51.6098 160.216 50.8631 160.802C50.0898 161.362 49.4764 162.056 49.0231 162.882C48.5698 163.682 48.3431 164.589 48.3431 165.602C48.3431 166.776 48.6764 167.789 49.3431 168.642C49.9831 169.496 50.9031 170.149 52.1031 170.602C53.2764 171.029 54.6764 171.242 56.3031 171.242C57.8498 171.242 59.2498 171.029 60.5031 170.602C61.7298 170.176 62.7031 169.536 63.4231 168.682C64.1431 167.802 64.5031 166.722 64.5031 165.442ZM67.1831 142.894C67.1831 145.134 66.4098 146.841 64.8631 148.014C63.2898 149.161 60.9431 149.734 57.8231 149.734L46.1031 149.734L46.1031 146.734L57.6231 146.734C59.9431 146.734 61.6764 146.374 62.8231 145.654C63.9431 144.934 64.5031 143.788 64.5031 142.214C64.5031 141.361 64.2898 140.588 63.8631 139.894C63.4364 139.201 62.8498 138.588 62.1031 138.054C61.3298 137.521 60.4098 137.081 59.3431 136.734C58.2764 136.388 57.1031 136.134 55.8231 135.974L46.1031 135.974L46.1031 133.054L58.0231 133.054L66.7031 133.054L66.7031 135.814L60.0231 135.374L60.0231 135.974C61.6764 136.268 63.0364 136.748 64.1031 137.414C65.1431 138.054 65.9164 138.841 66.4231 139.774C66.9298 140.708 67.1831 141.748 67.1831 142.894ZM67.1831 117.807C67.1831 119.407 66.9431 120.807 66.4631 122.007C65.9564 123.207 65.2364 124.22 64.3031 125.047C63.3698 125.873 62.2631 126.487 60.9831 126.887C59.7031 127.287 58.2898 127.487 56.7431 127.487C55.1431 127.487 53.6764 127.287 52.3431 126.887C50.9831 126.46 49.7964 125.847 48.7831 125.047C47.7698 124.247 46.9964 123.273 46.4631 122.127C45.9031 120.953 45.6231 119.607 45.6231 118.087C45.6231 116.807 45.8498 115.633 46.3031 114.567C46.7298 113.5 47.3964 112.58 48.3031 111.807C49.2098 111.033 50.3698 110.447 51.7831 110.047C53.1698 109.647 54.8231 109.473 56.7431 109.527L56.8631 125.687L54.5831 125.687L54.4631 111.367L56.1831 112.367C54.4231 112.26 52.9564 112.447 51.7831 112.927C50.6098 113.38 49.7298 114.06 49.1431 114.967C48.5564 115.847 48.2631 116.9 48.2631 118.127C48.2631 119.433 48.5964 120.58 49.2631 121.567C49.9298 122.527 50.9031 123.273 52.1831 123.807C53.4364 124.34 54.9431 124.607 56.7031 124.607C59.2364 124.607 61.1964 124.047 62.5831 122.927C63.9431 121.78 64.6231 120.047 64.6231 117.727C64.6231 116.847 64.5298 116.073 64.3431 115.407C64.1298 114.74 63.8364 114.18 63.4631 113.727C63.0898 113.247 62.6498 112.847 62.1431 112.527C61.6364 112.207 61.0764 111.967 60.4631 111.807L61.1031 109.207C62.0631 109.473 62.9298 109.86 63.7031 110.367C64.4498 110.847 65.0898 111.447 65.6231 112.167C66.1298 112.887 66.5164 113.713 66.7831 114.647C67.0498 115.58 67.1831 116.633 67.1831 117.807Z" fill="white"/>
<path d="M193.8 194.5L238.6 62.5H285.8L330.6 194.5H295.4L263.8 87.7H260.6L229 194.5H193.8ZM220.4 169.7V148.1H308.8V169.7H220.4ZM369.802 197.3C363.935 197.3 358.735 196.167 354.202 193.9C349.668 191.5 346.135 188.1 343.602 183.7C341.068 179.167 339.802 173.7 339.802 167.3C339.802 161.3 340.935 156.367 343.202 152.5C345.602 148.5 349.002 145.367 353.402 143.1C357.935 140.7 363.335 138.767 369.602 137.3C375.868 135.7 383.002 134.3 391.002 133.1C394.868 132.433 398.068 131.833 400.602 131.3C403.268 130.633 405.268 129.633 406.602 128.3C407.935 126.967 408.602 125.033 408.602 122.5C408.602 119.167 407.402 116.3 405.002 113.9C402.602 111.5 398.735 110.3 393.402 110.3C389.668 110.3 386.268 110.967 383.202 112.3C380.268 113.633 377.735 115.567 375.602 118.1C373.468 120.633 371.868 123.7 370.802 127.3L342.402 118.9C344.135 113.3 346.535 108.433 349.602 104.3C352.802 100.167 356.602 96.7667 361.002 94.1C365.402 91.3 370.402 89.3 376.002 88.1C381.735 86.7667 387.802 86.1 394.202 86.1C404.868 86.1 413.535 87.8333 420.202 91.3C427.002 94.6333 432.002 99.9 435.202 107.1C438.535 114.167 440.202 123.3 440.202 134.5V150.7C440.202 155.5 440.268 160.367 440.402 165.3C440.668 170.1 440.935 174.967 441.202 179.9C441.602 184.7 442.068 189.567 442.602 194.5H414.202C413.668 191.433 413.135 187.767 412.602 183.5C412.068 179.1 411.668 174.633 411.402 170.1H407.602C405.735 175.167 403.002 179.833 399.402 184.1C395.935 188.233 391.668 191.5 386.602 193.9C381.668 196.167 376.068 197.3 369.802 197.3ZM384.402 174.5C386.802 174.5 389.202 174.1 391.602 173.3C394.135 172.367 396.535 171.167 398.802 169.7C401.068 168.1 403.135 166.167 405.002 163.9C406.868 161.633 408.268 159.167 409.202 156.5L408.802 140.7L413.202 141.7C410.668 143.3 407.868 144.567 404.802 145.5C401.735 146.433 398.602 147.167 395.402 147.7C392.335 148.233 389.268 148.833 386.202 149.5C383.268 150.033 380.602 150.767 378.202 151.7C375.935 152.633 374.135 153.9 372.802 155.5C371.468 157.1 370.802 159.3 370.802 162.1C370.802 165.833 372.068 168.833 374.602 171.1C377.135 173.367 380.402 174.5 384.402 174.5Z" fill="#3B5BFF"/>
<path d="M191.9 314.5L203.2 281.5H213.7L225 314.5H217.2L208.85 287.2H208.1L199.7 314.5H191.9ZM198.25 308V303.1H219.7V308H198.25ZM229.562 314.5V281.5H243.262C245.295 281.5 247.112 281.683 248.712 282.05C250.312 282.383 251.679 282.9 252.812 283.6C253.979 284.3 254.862 285.217 255.462 286.35C256.095 287.45 256.412 288.767 256.412 290.3C256.412 291.6 256.129 292.733 255.562 293.7C255.029 294.667 254.179 295.45 253.012 296.05C251.879 296.65 250.379 297.067 248.512 297.3V298.05C251.679 298.283 253.995 299.083 255.462 300.45C256.962 301.783 257.712 303.583 257.712 305.85C257.712 307.75 257.212 309.35 256.212 310.65C255.245 311.917 253.779 312.883 251.812 313.55C249.845 314.183 247.412 314.5 244.512 314.5H229.562ZM236.412 308.7H244.412C246.545 308.7 248.129 308.383 249.162 307.75C250.195 307.083 250.712 306.067 250.712 304.7C250.712 303.133 250.062 301.967 248.762 301.2C247.462 300.4 245.495 300 242.862 300H236.412V308.7ZM236.412 295.5H241.812C244.412 295.5 246.312 295.15 247.512 294.45C248.745 293.717 249.362 292.65 249.362 291.25C249.362 289.85 248.812 288.833 247.712 288.2C246.612 287.533 244.929 287.2 242.662 287.2H236.412V295.5ZM278.843 315.2C276.276 315.2 273.976 314.85 271.943 314.15C269.943 313.417 268.226 312.35 266.793 310.95C265.393 309.517 264.326 307.75 263.593 305.65C262.86 303.55 262.493 301.117 262.493 298.35C262.493 295.55 262.86 293.067 263.593 290.9C264.36 288.733 265.443 286.9 266.843 285.4C268.276 283.867 269.96 282.717 271.893 281.95C273.826 281.183 275.976 280.8 278.343 280.8C280.176 280.8 281.876 281.05 283.443 281.55C285.01 282.017 286.36 282.7 287.493 283.6C288.626 284.5 289.51 285.6 290.143 286.9C290.81 288.2 291.16 289.667 291.193 291.3L284.543 293.05C284.543 291.65 284.226 290.483 283.593 289.55C282.993 288.617 282.193 287.917 281.193 287.45C280.226 286.95 279.193 286.7 278.093 286.7C277.126 286.7 276.16 286.9 275.193 287.3C274.26 287.667 273.393 288.3 272.593 289.2C271.826 290.067 271.193 291.217 270.693 292.65C270.226 294.083 269.993 295.833 269.993 297.9C269.993 300.6 270.376 302.783 271.143 304.45C271.943 306.117 273.026 307.35 274.393 308.15C275.76 308.917 277.293 309.3 278.993 309.3C280.826 309.3 282.243 308.933 283.243 308.2C284.276 307.433 285.01 306.467 285.443 305.3C285.91 304.1 286.16 302.833 286.193 301.5L292.493 302.55C292.46 304.317 292.193 305.983 291.693 307.55C291.193 309.083 290.41 310.433 289.343 311.6C288.276 312.733 286.876 313.617 285.143 314.25C283.41 314.883 281.31 315.2 278.843 315.2ZM301.127 314.5V308.65H310.727C312.594 308.65 314.144 308.25 315.377 307.45C316.611 306.617 317.544 305.417 318.177 303.85C318.811 302.283 319.127 300.367 319.127 298.1C319.127 296.233 318.927 294.633 318.527 293.3C318.127 291.933 317.527 290.817 316.727 289.95C315.961 289.083 314.977 288.433 313.777 288C312.611 287.567 311.227 287.35 309.627 287.35H301.127V281.5H309.377C313.377 281.5 316.644 282.15 319.177 283.45C321.711 284.75 323.577 286.617 324.777 289.05C325.977 291.45 326.577 294.333 326.577 297.7C326.577 300.233 326.277 302.433 325.677 304.3C325.077 306.167 324.261 307.75 323.227 309.05C322.227 310.35 321.061 311.4 319.727 312.2C318.394 313 316.977 313.583 315.477 313.95C313.977 314.317 312.461 314.5 310.927 314.5H301.127ZM297.677 314.5V281.5H304.877V314.5H297.677ZM332.589 314.5V281.5H339.839V314.5H332.589ZM337.589 314.5V308.65H358.039V314.5H337.589ZM337.589 300.5V295.15H355.539V300.5H337.589ZM337.589 287.3V281.5H357.939V287.3H337.589ZM363.644 314.5V281.5H370.844V314.5H363.644ZM367.094 302.15V296.25H386.344V302.15H367.094ZM367.094 287.65V281.5H388.194V287.65H367.094ZM405.845 315.2C403.145 315.2 400.711 314.583 398.545 313.35C396.411 312.083 394.711 310.217 393.445 307.75C392.211 305.25 391.595 302.117 391.595 298.35C391.595 295.583 391.945 293.133 392.645 291C393.378 288.833 394.428 287 395.795 285.5C397.195 283.967 398.911 282.8 400.945 282C402.978 281.2 405.328 280.8 407.995 280.8C409.995 280.8 411.811 281.033 413.445 281.5C415.078 281.967 416.495 282.633 417.695 283.5C418.895 284.367 419.828 285.417 420.495 286.65C421.195 287.85 421.578 289.217 421.645 290.75L414.845 292.85C414.778 291.45 414.411 290.3 413.745 289.4C413.111 288.5 412.261 287.833 411.195 287.4C410.161 286.933 408.995 286.7 407.695 286.7C405.895 286.7 404.345 287.117 403.045 287.95C401.778 288.75 400.811 290 400.145 291.7C399.478 293.367 399.145 295.483 399.145 298.05C399.145 300.017 399.328 301.717 399.695 303.15C400.095 304.55 400.678 305.717 401.445 306.65C402.211 307.583 403.128 308.283 404.195 308.75C405.261 309.183 406.495 309.4 407.895 309.4C409.361 309.4 410.628 309.167 411.695 308.7C412.795 308.2 413.661 307.45 414.295 306.45C414.961 305.417 415.328 304.117 415.395 302.55H409.145V297.35H422.495V303.4V314.5H417.495L417.595 306.05H416.695C416.161 308.05 415.445 309.733 414.545 311.1C413.645 312.433 412.478 313.45 411.045 314.15C409.645 314.85 407.911 315.2 405.845 315.2ZM450.48 314.5V281.5H457.63V314.5H450.48ZM428.83 314.5V281.5H436.03V314.5H428.83ZM433.08 300.75V294.85H453.33V300.75H433.08ZM464.963 314.5V281.5H472.313V314.5H464.963ZM477.061 314.85L476.611 308.25C476.978 308.317 477.344 308.367 477.711 308.4C478.078 308.4 478.378 308.4 478.611 308.4C480.011 308.4 481.078 308.2 481.811 307.8C482.578 307.4 483.111 306.767 483.411 305.9C483.711 305.033 483.861 303.9 483.861 302.5V281.5H491.061V302.55C491.061 305.25 490.661 307.533 489.861 309.4C489.094 311.233 487.878 312.633 486.211 313.6C484.578 314.567 482.428 315.05 479.761 315.05C479.461 315.05 479.094 315.033 478.661 315C478.261 314.967 477.728 314.917 477.061 314.85ZM498.263 314.5V281.5H505.463V296.25C507.163 295.55 508.747 294.667 510.213 293.6C511.713 292.5 513.047 291.283 514.213 289.95C515.38 288.617 516.38 287.233 517.213 285.8C518.047 284.367 518.647 282.933 519.013 281.5H527.263C526.797 283.133 526.08 284.767 525.113 286.4C524.18 288 523.063 289.517 521.763 290.95C520.463 292.383 519.08 293.667 517.613 294.8C516.18 295.9 514.73 296.767 513.263 297.4V298.15C514.797 298.15 516.163 298.333 517.363 298.7C518.597 299.033 519.68 299.583 520.613 300.35C521.58 301.083 522.43 302 523.163 303.1C523.897 304.2 524.547 305.517 525.113 307.05L527.763 314.5H519.613L517.863 308.5C517.397 306.867 516.78 305.567 516.013 304.6C515.247 303.6 514.263 302.883 513.063 302.45C511.863 301.983 510.297 301.75 508.363 301.75H505.463V314.5H498.263ZM532.589 314.5V281.5H543.439L552.639 306.35H552.889L561.889 281.5H572.239V314.5H565.389L565.839 288.8H565.289L555.289 314.5H549.289L539.439 288.8H538.889L539.339 314.5H532.589ZM579.562 314.5V281.5H588.962L603.912 304.85H604.462L604.012 281.5H611.012V314.5H602.512L586.712 290.05H586.162L586.612 314.5H579.562ZM618.332 314.5V281.5H627.732L642.682 304.85H643.232L642.782 281.5H649.782V314.5H641.282L625.482 290.05H624.932L625.382 314.5H618.332ZM639.132 278.15C638.398 278.15 637.632 278.017 636.832 277.75C636.032 277.483 635.232 277.183 634.432 276.85C633.665 276.483 632.948 276.167 632.282 275.9C631.615 275.6 631.065 275.45 630.632 275.45C630.065 275.45 629.715 275.7 629.582 276.2C629.448 276.667 629.432 277.2 629.532 277.8H626.232C625.665 276.633 625.448 275.517 625.582 274.45C625.715 273.383 626.115 272.533 626.782 271.9C627.448 271.233 628.315 270.9 629.382 270.9C630.082 270.9 630.815 271.033 631.582 271.3C632.382 271.567 633.165 271.867 633.932 272.2C634.698 272.533 635.398 272.833 636.032 273.1C636.698 273.367 637.232 273.5 637.632 273.5C638.232 273.5 638.582 273.25 638.682 272.75C638.815 272.217 638.832 271.683 638.732 271.15H642.032C642.498 272.283 642.698 273.4 642.632 274.5C642.565 275.567 642.248 276.45 641.682 277.15C641.115 277.817 640.265 278.15 639.132 278.15ZM657.101 314.5V281.5H664.301V314.5H657.101ZM658.601 314.5V308.45H678.251V314.5H658.601ZM208.95 375.2C206.55 375.2 204.4 374.833 202.5 374.1C200.6 373.333 198.967 372.233 197.6 370.8C196.267 369.333 195.233 367.55 194.5 365.45C193.8 363.317 193.45 360.883 193.45 358.15C193.45 354.25 194.133 351.033 195.5 348.5C196.867 345.933 198.733 344.017 201.1 342.75C203.5 341.45 206.2 340.8 209.2 340.8C211.533 340.8 213.65 341.183 215.55 341.95C217.45 342.683 219.067 343.783 220.4 345.25C221.767 346.683 222.817 348.483 223.55 350.65C224.283 352.783 224.65 355.233 224.65 358C224.65 360.833 224.283 363.317 223.55 365.45C222.817 367.583 221.75 369.383 220.35 370.85C218.983 372.283 217.333 373.367 215.4 374.1C213.467 374.833 211.317 375.2 208.95 375.2ZM209.15 369.45C210.917 369.45 212.4 369.017 213.6 368.15C214.8 367.283 215.717 366.033 216.35 364.4C216.983 362.767 217.3 360.767 217.3 358.4C217.3 355.933 216.967 353.833 216.3 352.1C215.667 350.367 214.733 349.05 213.5 348.15C212.267 347.217 210.767 346.75 209 346.75C207.267 346.75 205.783 347.2 204.55 348.1C203.35 348.967 202.417 350.233 201.75 351.9C201.117 353.567 200.8 355.633 200.8 358.1C200.8 359.9 200.983 361.517 201.35 362.95C201.75 364.35 202.3 365.533 203 366.5C203.7 367.467 204.567 368.2 205.6 368.7C206.633 369.2 207.817 369.45 209.15 369.45ZM235.784 365.2V359.55H243.334C245.734 359.55 247.534 359.067 248.734 358.1C249.934 357.1 250.534 355.467 250.534 353.2C250.534 351.2 249.967 349.683 248.834 348.65C247.734 347.583 246.017 347.05 243.684 347.05H235.784V341.5H243.884C246.017 341.5 247.934 341.75 249.634 342.25C251.367 342.75 252.834 343.5 254.034 344.5C255.267 345.467 256.201 346.7 256.834 348.2C257.467 349.667 257.784 351.4 257.784 353.4C257.784 355.967 257.201 358.133 256.034 359.9C254.867 361.633 253.134 362.95 250.834 363.85C248.567 364.75 245.734 365.2 242.334 365.2H235.784ZM230.734 374.5V341.5H237.934V374.5H230.734ZM293.106 382.1C290.706 382.567 288.656 382.85 286.956 382.95C285.289 383.083 283.789 383.083 282.456 382.95C281.156 382.85 279.873 382.667 278.606 382.4C277.373 382.167 276.023 381.917 274.556 381.65C273.089 381.417 271.373 381.233 269.406 381.1C267.439 380.967 265.039 380.967 262.206 381.1V375.15C263.173 375.217 264.306 375.233 265.606 375.2C266.939 375.2 268.339 375.133 269.806 375C271.273 374.9 272.723 374.75 274.156 374.55C275.589 374.35 276.923 374.083 278.156 373.75C279.389 373.417 280.423 373.017 281.256 372.55V371.9C278.623 372.667 276.273 373.033 274.206 373C272.139 372.933 270.323 372.533 268.756 371.8C267.223 371.033 265.956 369.983 264.956 368.65C263.956 367.283 263.206 365.7 262.706 363.9C262.206 362.067 261.956 360.067 261.956 357.9C261.956 355.433 262.289 353.167 262.956 351.1C263.623 349.033 264.606 347.233 265.906 345.7C267.239 344.167 268.889 342.967 270.856 342.1C272.823 341.233 275.106 340.8 277.706 340.8C280.973 340.8 283.756 341.483 286.056 342.85C288.356 344.217 290.123 346.167 291.356 348.7C292.623 351.233 293.256 354.283 293.256 357.85C293.256 360.95 292.823 363.567 291.956 365.7C291.123 367.8 289.923 369.533 288.356 370.9C286.823 372.267 284.973 373.35 282.806 374.15C280.673 374.95 278.306 375.55 275.706 375.95V376.65C277.506 376.817 279.123 376.967 280.556 377.1C282.023 377.233 283.423 377.3 284.756 377.3C286.089 377.333 287.423 377.267 288.756 377.1C290.089 376.933 291.539 376.65 293.106 376.25V382.1ZM277.756 369.5C279.623 369.5 281.156 369.083 282.356 368.25C283.589 367.417 284.506 366.167 285.106 364.5C285.706 362.833 286.006 360.767 286.006 358.3C286.006 355.767 285.689 353.65 285.056 351.95C284.423 350.217 283.473 348.9 282.206 348C280.939 347.1 279.373 346.65 277.506 346.65C275.706 346.65 274.189 347.083 272.956 347.95C271.723 348.817 270.789 350.1 270.156 351.8C269.556 353.5 269.256 355.6 269.256 358.1C269.256 360.633 269.573 362.75 270.206 364.45C270.839 366.117 271.789 367.383 273.056 368.25C274.356 369.083 275.923 369.5 277.756 369.5ZM299.338 374.5V341.5H312.738C314.538 341.5 316.171 341.65 317.638 341.95C319.104 342.217 320.404 342.617 321.538 343.15C322.671 343.683 323.621 344.35 324.388 345.15C325.188 345.917 325.788 346.817 326.188 347.85C326.588 348.85 326.788 349.967 326.788 351.2C326.788 352.367 326.604 353.433 326.238 354.4C325.871 355.333 325.321 356.15 324.588 356.85C323.854 357.55 322.938 358.133 321.838 358.6C320.738 359.033 319.454 359.333 317.988 359.5V360.25C319.688 360.417 321.038 360.817 322.038 361.45C323.071 362.05 323.871 362.867 324.438 363.9C325.038 364.933 325.554 366.217 325.988 367.75L327.988 374.5H320.038L318.488 368.25C318.188 366.917 317.754 365.883 317.188 365.15C316.621 364.383 315.904 363.85 315.038 363.55C314.171 363.217 313.121 363.05 311.888 363.05H306.538V374.5H299.338ZM306.538 357.65H312.238C314.504 357.65 316.254 357.217 317.488 356.35C318.721 355.483 319.338 354.133 319.338 352.3C319.338 350.5 318.754 349.183 317.588 348.35C316.454 347.483 314.738 347.05 312.438 347.05H306.538V357.65ZM346.072 375.2C343.905 375.2 341.955 374.983 340.222 374.55C338.522 374.15 337.055 373.533 335.822 372.7C334.622 371.833 333.672 370.767 332.972 369.5C332.305 368.2 331.922 366.717 331.822 365.05L338.122 363C338.189 364.5 338.555 365.75 339.222 366.75C339.922 367.75 340.905 368.483 342.172 368.95C343.439 369.417 344.855 369.65 346.422 369.65C347.922 369.65 349.189 369.467 350.222 369.1C351.255 368.733 352.039 368.25 352.572 367.65C353.105 367.017 353.372 366.333 353.372 365.6C353.372 364.733 353.039 364.033 352.372 363.5C351.705 362.967 350.789 362.517 349.622 362.15C348.489 361.783 347.189 361.433 345.722 361.1C344.089 360.733 342.472 360.317 340.872 359.85C339.305 359.383 337.872 358.783 336.572 358.05C335.305 357.317 334.289 356.367 333.522 355.2C332.789 354.033 332.422 352.567 332.422 350.8C332.422 348.767 332.922 347.017 333.922 345.55C334.955 344.05 336.455 342.883 338.422 342.05C340.389 341.217 342.755 340.8 345.522 340.8C348.322 340.8 350.705 341.217 352.672 342.05C354.672 342.85 356.222 344 357.322 345.5C358.422 346.967 359.022 348.717 359.122 350.75L352.622 352.55C352.622 351.517 352.455 350.617 352.122 349.85C351.789 349.083 351.322 348.45 350.722 347.95C350.122 347.417 349.372 347.017 348.472 346.75C347.605 346.483 346.605 346.35 345.472 346.35C344.172 346.35 343.039 346.517 342.072 346.85C341.139 347.183 340.422 347.633 339.922 348.2C339.455 348.767 339.222 349.433 339.222 350.2C339.222 351.1 339.589 351.85 340.322 352.45C341.089 353.017 342.089 353.483 343.322 353.85C344.589 354.217 345.972 354.567 347.472 354.9C348.905 355.2 350.355 355.583 351.822 356.05C353.322 356.483 354.705 357.067 355.972 357.8C357.272 358.5 358.305 359.467 359.072 360.7C359.872 361.9 360.272 363.417 360.272 365.25C360.272 367.25 359.739 369 358.672 370.5C357.605 372 356.005 373.167 353.872 374C351.772 374.8 349.172 375.2 346.072 375.2ZM372.695 374.5V341.5H379.895V374.5H372.695ZM362.945 347.55V341.5H389.645V347.55H362.945ZM408.859 375.2C406.826 375.2 405.009 374.983 403.409 374.55C401.843 374.15 400.476 373.567 399.309 372.8C398.143 372 397.159 371.05 396.359 369.95C395.593 368.817 395.009 367.55 394.609 366.15C394.243 364.75 394.059 363.217 394.059 361.55V341.5H401.309V361.3C401.309 363 401.576 364.417 402.109 365.55C402.676 366.65 403.509 367.467 404.609 368C405.709 368.533 407.109 368.8 408.809 368.8C410.543 368.8 411.959 368.533 413.059 368C414.193 367.467 415.026 366.65 415.559 365.55C416.126 364.417 416.409 363 416.409 361.3V341.5H423.559V361.55C423.559 365.883 422.326 369.25 419.859 371.65C417.426 374.017 413.759 375.2 408.859 375.2ZM439.079 374.5L428.179 341.5H436.029L443.829 368.4H444.479L452.329 341.5H460.079L449.129 374.5H439.079ZM471.329 374.5L463.879 341.5H471.729L476.629 368.35H477.179L482.979 341.5H492.129L497.929 368.35H498.529L503.429 341.5H510.879L503.329 374.5H493.279L487.679 347.65H487.229L481.629 374.5H471.329ZM513.093 374.5L524.443 357.95L513.343 341.5H521.743L529.343 354.1H529.643L537.293 341.5H545.743L534.493 357.8L546.043 374.5H537.643L529.593 361.6H529.343L521.493 374.5H513.093ZM559.651 374.5V364.2L547.501 341.5H556.101L563.151 357.7H563.451L570.451 341.5H578.951L566.901 364.15V374.5H559.651ZM581.224 374.5V367.7L597.924 348.15V347.55H581.774V341.5H605.824V348.9L589.624 367.9V368.45H606.474V374.5H581.224Z" fill="#3B5BFF"/>
<path d="M200.45 454.2C198.983 454.2 197.683 453.917 196.55 453.35C195.417 452.75 194.533 451.9 193.9 450.8C193.267 449.7 192.95 448.333 192.95 446.7C192.95 445.267 193.217 444.067 193.75 443.1C194.317 442.133 195.133 441.35 196.2 440.75C197.267 440.15 198.583 439.65 200.15 439.25C201.717 438.85 203.5 438.5 205.5 438.2C206.567 438.033 207.433 437.883 208.1 437.75C208.8 437.583 209.317 437.333 209.65 437C209.983 436.633 210.15 436.117 210.15 435.45C210.15 434.517 209.817 433.717 209.15 433.05C208.483 432.383 207.433 432.05 206 432.05C205.033 432.05 204.133 432.217 203.3 432.55C202.5 432.883 201.8 433.383 201.2 434.05C200.633 434.717 200.217 435.567 199.95 436.6L193.6 434.65C194 433.283 194.567 432.1 195.3 431.1C196.067 430.1 196.983 429.267 198.05 428.6C199.117 427.9 200.333 427.383 201.7 427.05C203.067 426.717 204.55 426.55 206.15 426.55C208.717 426.55 210.8 426.967 212.4 427.8C214.033 428.6 215.25 429.867 216.05 431.6C216.85 433.3 217.25 435.5 217.25 438.2V442.7C217.25 443.867 217.267 445.05 217.3 446.25C217.367 447.45 217.433 448.667 217.5 449.9C217.6 451.1 217.7 452.3 217.8 453.5H211.45C211.317 452.667 211.183 451.717 211.05 450.65C210.95 449.55 210.867 448.45 210.8 447.35H209.9C209.433 448.617 208.767 449.767 207.9 450.8C207.033 451.833 205.967 452.667 204.7 453.3C203.467 453.9 202.05 454.2 200.45 454.2ZM203.5 449C204.133 449 204.767 448.883 205.4 448.65C206.067 448.417 206.7 448.1 207.3 447.7C207.933 447.267 208.5 446.733 209 446.1C209.533 445.467 209.967 444.75 210.3 443.95L210.2 439.75L211.35 440C210.75 440.433 210.05 440.783 209.25 441.05C208.45 441.283 207.617 441.467 206.75 441.6C205.917 441.733 205.083 441.883 204.25 442.05C203.417 442.217 202.667 442.433 202 442.7C201.367 442.967 200.85 443.333 200.45 443.8C200.083 444.233 199.9 444.85 199.9 445.65C199.9 446.683 200.233 447.5 200.9 448.1C201.567 448.7 202.433 449 203.5 449ZM239.448 454.2C237.781 454.2 236.331 453.883 235.098 453.25C233.865 452.583 232.865 451.633 232.098 450.4C231.331 449.167 230.798 447.667 230.498 445.9H229.548L229.498 453.5H223.548V440.6V417.75H230.748V426.35C230.748 427.15 230.698 428.017 230.598 428.95C230.498 429.85 230.348 430.783 230.148 431.75C229.981 432.717 229.798 433.717 229.598 434.75H230.698C231.131 433.083 231.715 431.65 232.448 430.45C233.215 429.217 234.181 428.283 235.348 427.65C236.515 426.983 237.898 426.65 239.498 426.65C241.698 426.65 243.598 427.217 245.198 428.35C246.798 429.483 248.031 431.083 248.898 433.15C249.798 435.217 250.248 437.667 250.248 440.5C250.248 443.267 249.815 445.683 248.948 447.75C248.081 449.783 246.831 451.367 245.198 452.5C243.598 453.633 241.681 454.2 239.448 454.2ZM236.898 448.3C238.098 448.3 239.131 447.983 239.998 447.35C240.865 446.683 241.531 445.75 241.998 444.55C242.465 443.35 242.698 441.95 242.698 440.35C242.698 438.75 242.465 437.367 241.998 436.2C241.565 435.033 240.931 434.117 240.098 433.45C239.265 432.783 238.248 432.45 237.048 432.45C236.248 432.45 235.515 432.6 234.848 432.9C234.181 433.2 233.598 433.617 233.098 434.15C232.598 434.65 232.165 435.233 231.798 435.9C231.431 436.533 231.165 437.2 230.998 437.9C230.831 438.6 230.748 439.267 230.748 439.9V440.85C230.748 441.617 230.865 442.45 231.098 443.35C231.331 444.217 231.698 445.033 232.198 445.8C232.731 446.533 233.381 447.133 234.148 447.6C234.915 448.067 235.831 448.3 236.898 448.3ZM267.583 454.2C265.316 454.2 263.333 453.867 261.633 453.2C259.933 452.533 258.516 451.6 257.383 450.4C256.249 449.2 255.399 447.783 254.833 446.15C254.266 444.483 253.983 442.667 253.983 440.7C253.983 438.633 254.266 436.75 254.833 435.05C255.433 433.317 256.299 431.817 257.433 430.55C258.566 429.283 259.966 428.3 261.633 427.6C263.299 426.9 265.199 426.55 267.333 426.55C269.466 426.55 271.316 426.9 272.883 427.6C274.483 428.3 275.766 429.283 276.733 430.55C277.733 431.783 278.416 433.25 278.783 434.95L272.133 437.1C272.033 436.067 271.749 435.183 271.283 434.45C270.849 433.683 270.249 433.117 269.483 432.75C268.749 432.35 267.916 432.15 266.983 432.15C266.016 432.15 265.183 432.35 264.483 432.75C263.783 433.117 263.183 433.667 262.683 434.4C262.216 435.1 261.849 435.967 261.583 437C261.349 438 261.233 439.133 261.233 440.4C261.233 442.2 261.466 443.733 261.933 445C262.433 446.233 263.149 447.183 264.083 447.85C265.049 448.483 266.233 448.8 267.633 448.8C268.966 448.8 270.033 448.55 270.833 448.05C271.633 447.517 272.216 446.85 272.583 446.05C272.983 445.217 273.233 444.367 273.333 443.5L279.633 444.9C279.466 446.2 279.099 447.417 278.533 448.55C277.999 449.683 277.233 450.667 276.233 451.5C275.233 452.333 274.016 453 272.583 453.5C271.183 453.967 269.516 454.2 267.583 454.2ZM293.303 454.2C291.103 454.2 289.17 453.633 287.503 452.5C285.87 451.367 284.603 449.767 283.703 447.7C282.803 445.633 282.353 443.183 282.353 440.35C282.353 437.683 282.753 435.317 283.553 433.25C284.353 431.183 285.536 429.567 287.103 428.4C288.67 427.233 290.62 426.65 292.953 426.65C294.653 426.65 296.086 426.967 297.253 427.6C298.42 428.233 299.37 429.167 300.103 430.4C300.87 431.6 301.47 433.05 301.903 434.75H303.053C302.82 433.683 302.603 432.65 302.403 431.65C302.236 430.617 302.103 429.633 302.003 428.7C301.903 427.767 301.853 426.95 301.853 426.25V417.75H309.053V440.6V453.5H303.053V445.9H302.053C301.686 447.767 301.12 449.317 300.353 450.55C299.586 451.783 298.603 452.7 297.403 453.3C296.236 453.9 294.87 454.2 293.303 454.2ZM295.703 448.3C296.803 448.3 297.736 448.067 298.503 447.6C299.27 447.133 299.903 446.533 300.403 445.8C300.903 445.033 301.27 444.217 301.503 443.35C301.736 442.45 301.853 441.617 301.853 440.85V439.9C301.853 439.267 301.753 438.617 301.553 437.95C301.386 437.25 301.136 436.567 300.803 435.9C300.47 435.233 300.053 434.65 299.553 434.15C299.053 433.617 298.47 433.2 297.803 432.9C297.136 432.6 296.403 432.45 295.603 432.45C294.403 432.45 293.386 432.783 292.553 433.45C291.72 434.117 291.07 435.05 290.603 436.25C290.136 437.417 289.903 438.783 289.903 440.35C289.903 441.95 290.136 443.35 290.603 444.55C291.103 445.75 291.786 446.683 292.653 447.35C293.52 447.983 294.536 448.3 295.703 448.3ZM327.887 454.2C325.72 454.2 323.787 453.9 322.087 453.3C320.42 452.7 319.003 451.833 317.837 450.7C316.67 449.567 315.77 448.167 315.137 446.5C314.537 444.833 314.237 442.95 314.237 440.85C314.237 438.783 314.52 436.883 315.087 435.15C315.687 433.383 316.553 431.867 317.687 430.6C318.82 429.3 320.203 428.3 321.837 427.6C323.47 426.9 325.32 426.55 327.387 426.55C329.387 426.55 331.17 426.883 332.737 427.55C334.303 428.183 335.603 429.15 336.637 430.45C337.703 431.75 338.47 433.35 338.937 435.25C339.437 437.117 339.62 439.267 339.487 441.7L318.887 441.9V437.95L335.337 437.8L332.787 439.8C333.02 438.033 332.903 436.583 332.437 435.45C331.97 434.317 331.287 433.483 330.387 432.95C329.52 432.417 328.553 432.15 327.487 432.15C326.22 432.15 325.103 432.483 324.137 433.15C323.17 433.817 322.42 434.8 321.887 436.1C321.353 437.367 321.087 438.9 321.087 440.7C321.087 443.533 321.703 445.617 322.937 446.95C324.203 448.283 325.853 448.95 327.887 448.95C328.82 448.95 329.603 448.833 330.237 448.6C330.903 448.333 331.437 448 331.837 447.6C332.27 447.2 332.603 446.75 332.837 446.25C333.103 445.75 333.32 445.25 333.487 444.75L339.737 446.1C339.437 447.333 338.987 448.45 338.387 449.45C337.82 450.417 337.053 451.267 336.087 452C335.12 452.7 333.953 453.233 332.587 453.6C331.253 454 329.687 454.2 327.887 454.2ZM346.739 453.5V436.7H342.589V431.4L349.589 431.7V430.75C348.423 430.483 347.456 430.067 346.689 429.5C345.956 428.9 345.423 428.183 345.089 427.35C344.756 426.517 344.589 425.633 344.589 424.7C344.589 423.267 344.956 422.033 345.689 421C346.423 419.933 347.456 419.117 348.789 418.55C350.123 417.95 351.689 417.65 353.489 417.65C355.023 417.65 356.406 417.85 357.639 418.25C358.906 418.617 359.923 419.083 360.689 419.65L360.239 426.15C359.439 425.583 358.539 425.117 357.539 424.75C356.539 424.383 355.589 424.2 354.689 424.2C353.689 424.2 352.856 424.467 352.189 425C351.556 425.533 351.239 426.4 351.239 427.6C351.239 428.433 351.406 429.1 351.739 429.6C352.106 430.067 352.539 430.417 353.039 430.65C353.573 430.85 354.089 430.983 354.589 431.05H360.589V436.7H353.739V453.5H346.739ZM375.11 462.65C372.243 462.65 369.877 462.417 368.01 461.95C366.177 461.517 364.827 460.867 363.96 460C363.093 459.133 362.66 458.05 362.66 456.75C362.66 455.217 363.26 453.967 364.46 453C365.693 452.033 367.493 451.45 369.86 451.25V450.25C368.06 450.25 366.677 450.067 365.71 449.7C364.743 449.3 364.26 448.617 364.26 447.65C364.26 446.717 364.727 445.883 365.66 445.15C366.627 444.417 368.21 443.833 370.41 443.4V442.4C368.343 442.267 366.727 441.6 365.56 440.4C364.393 439.2 363.81 437.65 363.81 435.75C363.81 434.083 364.277 432.6 365.21 431.3C366.143 429.967 367.527 428.917 369.36 428.15C371.227 427.35 373.51 426.95 376.21 426.95H389.51V432.45L381.26 431.3V432.45C383.393 432.75 384.927 433.283 385.86 434.05C386.827 434.817 387.31 435.883 387.31 437.25C387.31 438.617 386.86 439.817 385.96 440.85C385.06 441.883 383.777 442.7 382.11 443.3C380.477 443.867 378.51 444.15 376.21 444.15C375.777 444.15 375.31 444.133 374.81 444.1C374.31 444.067 373.477 443.983 372.31 443.85C371.677 444.317 371.177 444.733 370.81 445.1C370.477 445.433 370.31 445.75 370.31 446.05C370.31 446.283 370.427 446.483 370.66 446.65C370.927 446.817 371.26 446.933 371.66 447C372.093 447.067 372.527 447.1 372.96 447.1H380.46C381.127 447.1 381.993 447.15 383.06 447.25C384.127 447.317 385.193 447.567 386.26 448C387.327 448.433 388.227 449.133 388.96 450.1C389.693 451.033 390.06 452.383 390.06 454.15C390.06 456.083 389.51 457.683 388.41 458.95C387.343 460.217 385.693 461.15 383.46 461.75C381.26 462.35 378.477 462.65 375.11 462.65ZM375.91 456.9C377.943 456.9 379.527 456.783 380.66 456.55C381.793 456.35 382.593 456 383.06 455.5C383.56 455.033 383.81 454.433 383.81 453.7C383.81 453.033 383.66 452.517 383.36 452.15C383.093 451.783 382.727 451.533 382.26 451.4C381.827 451.233 381.377 451.133 380.91 451.1C380.477 451.033 380.093 451 379.76 451H373.46C372.06 451.133 371.043 451.517 370.41 452.15C369.81 452.75 369.51 453.45 369.51 454.25C369.51 454.983 369.743 455.533 370.21 455.9C370.677 456.267 371.377 456.517 372.31 456.65C373.277 456.817 374.477 456.9 375.91 456.9ZM375.81 440.4C377.41 440.4 378.61 440.017 379.41 439.25C380.21 438.45 380.61 437.417 380.61 436.15C380.61 434.817 380.193 433.717 379.36 432.85C378.56 431.983 377.377 431.55 375.81 431.55C374.277 431.55 373.077 431.983 372.21 432.85C371.343 433.683 370.91 434.767 370.91 436.1C370.91 436.933 371.093 437.683 371.46 438.35C371.86 438.983 372.427 439.483 373.16 439.85C373.893 440.217 374.777 440.4 375.81 440.4ZM394.739 453.5V437V417.75H401.989V425.95C401.989 426.617 401.956 427.317 401.889 428.05C401.856 428.783 401.773 429.533 401.639 430.3C401.539 431.033 401.423 431.783 401.289 432.55C401.189 433.317 401.073 434.083 400.939 434.85H402.039C402.506 433.15 403.089 431.683 403.789 430.45C404.523 429.217 405.456 428.267 406.589 427.6C407.723 426.9 409.156 426.55 410.889 426.55C413.956 426.55 416.256 427.633 417.789 429.8C419.323 431.933 420.089 435.217 420.089 439.65V453.5H412.839V440.75C412.839 437.95 412.423 435.883 411.589 434.55C410.789 433.183 409.573 432.5 407.939 432.5C406.606 432.5 405.506 432.9 404.639 433.7C403.773 434.5 403.123 435.583 402.689 436.95C402.256 438.283 402.006 439.783 401.939 441.45V453.5H394.739ZM426.282 453.5V427.25H433.482V453.5H426.282ZM429.932 423.3C428.532 423.3 427.449 423.017 426.682 422.45C425.949 421.85 425.582 420.983 425.582 419.85C425.582 418.683 425.949 417.8 426.682 417.2C427.449 416.6 428.532 416.3 429.932 416.3C431.366 416.3 432.449 416.6 433.182 417.2C433.949 417.8 434.332 418.683 434.332 419.85C434.332 420.95 433.949 421.8 433.182 422.4C432.449 423 431.366 423.3 429.932 423.3ZM438 463.6C437.8 463.6 437.583 463.583 437.35 463.55C437.15 463.55 436.933 463.517 436.7 463.45L436.1 457.3C437.633 457.3 438.716 457.05 439.35 456.55C440.016 456.05 440.35 455.05 440.35 453.55V427.25H447.55V453.75C447.55 455.483 447.333 456.967 446.9 458.2C446.5 459.467 445.9 460.483 445.1 461.25C444.3 462.05 443.3 462.633 442.1 463C440.933 463.4 439.566 463.6 438 463.6ZM443.95 423.3C442.55 423.3 441.466 423.017 440.7 422.45C439.966 421.85 439.6 420.983 439.6 419.85C439.6 418.683 439.966 417.8 440.7 417.2C441.466 416.6 442.55 416.3 443.95 416.3C445.383 416.3 446.466 416.6 447.2 417.2C447.966 417.8 448.35 418.683 448.35 419.85C448.35 420.95 447.966 421.8 447.2 422.4C446.466 423 445.383 423.3 443.95 423.3ZM454.212 453.5V417.75H461.312V437.6C462.345 436.9 463.329 436.15 464.262 435.35C465.229 434.517 466.095 433.65 466.862 432.75C467.662 431.85 468.362 430.933 468.962 430C469.595 429.067 470.129 428.15 470.562 427.25H478.812C478.312 428.517 477.645 429.8 476.812 431.1C476.012 432.367 475.045 433.55 473.912 434.65C472.812 435.717 471.529 436.633 470.062 437.4C468.595 438.167 466.979 438.683 465.212 438.95V439.8C467.445 439.4 469.295 439.433 470.762 439.9C472.229 440.367 473.429 441.117 474.362 442.15C475.329 443.15 476.095 444.317 476.662 445.65C477.229 446.95 477.745 448.267 478.212 449.6L479.362 453.5H471.512L470.862 451.05C470.395 449.417 469.879 447.983 469.312 446.75C468.745 445.517 467.995 444.567 467.062 443.9C466.162 443.2 464.912 442.85 463.312 442.85H461.312V453.5H454.212ZM483.753 453.5V417.75H490.853V453.5H483.753ZM194.3 513.5V496.7V487.25H200.05V495.1H201C201.467 493.167 202.083 491.583 202.85 490.35C203.617 489.083 204.533 488.133 205.6 487.5C206.7 486.867 207.983 486.55 209.45 486.55C211.017 486.55 212.317 486.9 213.35 487.6C214.383 488.3 215.183 489.283 215.75 490.55C216.317 491.783 216.683 493.3 216.85 495.1H217.65C218.15 493.133 218.817 491.517 219.65 490.25C220.517 488.983 221.533 488.05 222.7 487.45C223.9 486.85 225.217 486.55 226.65 486.55C228.083 486.55 229.333 486.833 230.4 487.4C231.5 487.967 232.417 488.817 233.15 489.95C233.883 491.05 234.433 492.45 234.8 494.15C235.167 495.817 235.35 497.75 235.35 499.95V513.5H228.15V500.85C228.15 499.05 228 497.55 227.7 496.35C227.4 495.117 226.933 494.2 226.3 493.6C225.667 493 224.85 492.7 223.85 492.7C222.75 492.7 221.8 493.083 221 493.85C220.2 494.583 219.567 495.6 219.1 496.9C218.633 498.2 218.383 499.683 218.35 501.35V513.5H211.3V501.05C211.3 499.183 211.133 497.65 210.8 496.45C210.467 495.217 209.983 494.283 209.35 493.65C208.717 493.017 207.917 492.7 206.95 492.7C205.817 492.7 204.85 493.083 204.05 493.85C203.25 494.583 202.633 495.617 202.2 496.95C201.767 498.283 201.533 499.767 201.5 501.4V513.5H194.3ZM241.614 513.5V497.6V487.25H247.514L247.464 495.1H248.464C248.898 493.2 249.514 491.617 250.314 490.35C251.114 489.083 252.114 488.133 253.314 487.5C254.548 486.867 255.998 486.55 257.664 486.55C260.698 486.55 262.998 487.617 264.564 489.75C266.164 491.883 266.964 495.233 266.964 499.8V513.5H259.714V500.6C259.714 497.8 259.298 495.767 258.464 494.5C257.664 493.2 256.481 492.55 254.914 492.55C253.581 492.55 252.464 492.967 251.564 493.8C250.664 494.633 249.981 495.733 249.514 497.1C249.081 498.433 248.848 499.933 248.814 501.6V513.5H241.614ZM273.157 513.5V497.6V487.25H279.057L279.007 495.1H280.007C280.441 493.2 281.057 491.617 281.857 490.35C282.657 489.083 283.657 488.133 284.857 487.5C286.091 486.867 287.541 486.55 289.207 486.55C292.241 486.55 294.541 487.617 296.107 489.75C297.707 491.883 298.507 495.233 298.507 499.8V513.5H291.257V500.6C291.257 497.8 290.841 495.767 290.007 494.5C289.207 493.2 288.024 492.55 286.457 492.55C285.124 492.55 284.007 492.967 283.107 493.8C282.207 494.633 281.524 495.733 281.057 497.1C280.624 498.433 280.391 499.933 280.357 501.6V513.5H273.157ZM290.907 483.9C290.174 483.9 289.407 483.767 288.607 483.5C287.807 483.233 287.007 482.933 286.207 482.6C285.441 482.233 284.724 481.917 284.057 481.65C283.391 481.35 282.841 481.2 282.407 481.2C281.841 481.2 281.491 481.45 281.357 481.95C281.224 482.417 281.207 482.95 281.307 483.55H278.007C277.441 482.383 277.224 481.267 277.357 480.2C277.491 479.133 277.891 478.283 278.557 477.65C279.224 476.983 280.091 476.65 281.157 476.65C281.857 476.65 282.591 476.783 283.357 477.05C284.157 477.317 284.941 477.617 285.707 477.95C286.474 478.283 287.174 478.583 287.807 478.85C288.474 479.117 289.007 479.25 289.407 479.25C290.007 479.25 290.357 479 290.457 478.5C290.591 477.967 290.607 477.433 290.507 476.9H293.807C294.274 478.033 294.474 479.15 294.407 480.25C294.341 481.317 294.024 482.2 293.457 482.9C292.891 483.567 292.041 483.9 290.907 483.9ZM316.6 514.2C313.967 514.2 311.65 513.683 309.65 512.65C307.65 511.583 306.084 510.033 304.95 508C303.817 505.933 303.25 503.367 303.25 500.3C303.25 497.233 303.817 494.683 304.95 492.65C306.117 490.617 307.7 489.1 309.7 488.1C311.734 487.067 314.034 486.55 316.6 486.55C319.234 486.55 321.55 487.067 323.55 488.1C325.584 489.133 327.167 490.683 328.3 492.75C329.467 494.783 330.05 497.333 330.05 500.4C330.05 503.5 329.45 506.083 328.25 508.15C327.084 510.183 325.484 511.7 323.45 512.7C321.45 513.7 319.167 514.2 316.6 514.2ZM316.85 508.85C318.15 508.85 319.234 508.55 320.1 507.95C321 507.35 321.667 506.45 322.1 505.25C322.567 504.017 322.8 502.533 322.8 500.8C322.8 498.967 322.55 497.417 322.05 496.15C321.584 494.85 320.884 493.867 319.95 493.2C319.017 492.5 317.834 492.15 316.4 492.15C315.167 492.15 314.1 492.45 313.2 493.05C312.3 493.617 311.617 494.517 311.15 495.75C310.684 496.95 310.45 498.433 310.45 500.2C310.45 503.033 311.017 505.183 312.15 506.65C313.284 508.117 314.85 508.85 316.85 508.85ZM335.169 521.9V500.6V487.25H341.119L341.169 494.55L342.069 494.6C342.369 492.833 342.886 491.35 343.619 490.15C344.386 488.95 345.369 488.05 346.569 487.45C347.769 486.85 349.152 486.55 350.719 486.55C353.052 486.55 355.052 487.133 356.719 488.3C358.386 489.433 359.652 491.05 360.519 493.15C361.419 495.217 361.869 497.667 361.869 500.5C361.869 503.133 361.469 505.483 360.669 507.55C359.869 509.583 358.669 511.2 357.069 512.4C355.502 513.6 353.536 514.2 351.169 514.2C349.502 514.2 348.086 513.883 346.919 513.25C345.786 512.617 344.836 511.733 344.069 510.6C343.336 509.433 342.719 508.05 342.219 506.45H341.269C341.469 507.35 341.652 508.267 341.819 509.2C341.986 510.133 342.119 511.05 342.219 511.95C342.319 512.817 342.369 513.667 342.369 514.5V521.9H335.169ZM348.669 508.45C349.869 508.45 350.886 508.117 351.719 507.45C352.552 506.783 353.186 505.85 353.619 504.65C354.086 503.45 354.319 502.083 354.319 500.55C354.319 498.883 354.086 497.467 353.619 496.3C353.152 495.1 352.486 494.167 351.619 493.5C350.752 492.833 349.719 492.5 348.519 492.5C347.452 492.5 346.536 492.733 345.769 493.2C345.002 493.667 344.352 494.283 343.819 495.05C343.319 495.817 342.952 496.65 342.719 497.55C342.486 498.417 342.369 499.25 342.369 500.05V501C342.369 501.633 342.452 502.3 342.619 503C342.786 503.667 343.052 504.333 343.419 505C343.786 505.633 344.219 506.217 344.719 506.75C345.219 507.25 345.802 507.667 346.469 508C347.136 508.3 347.869 508.45 348.669 508.45ZM385.154 521.9V514.55C385.154 513.717 385.204 512.867 385.304 512C385.404 511.1 385.537 510.183 385.704 509.25C385.904 508.317 386.104 507.383 386.304 506.45H385.304C384.837 508.05 384.221 509.433 383.454 510.6C382.687 511.767 381.721 512.667 380.554 513.3C379.387 513.9 377.954 514.2 376.254 514.2C373.921 514.2 371.971 513.6 370.404 512.4C368.837 511.2 367.654 509.583 366.854 507.55C366.054 505.483 365.654 503.15 365.654 500.55C365.654 497.683 366.087 495.217 366.954 493.15C367.854 491.05 369.137 489.433 370.804 488.3C372.471 487.133 374.454 486.55 376.754 486.55C378.354 486.55 379.754 486.85 380.954 487.45C382.154 488.05 383.137 488.933 383.904 490.1C384.671 491.267 385.187 492.75 385.454 494.55H386.454L386.354 487.3H392.354V500.35V521.9H385.154ZM378.904 508.45C379.704 508.45 380.421 508.3 381.054 508C381.721 507.667 382.304 507.25 382.804 506.75C383.304 506.217 383.721 505.633 384.054 505C384.421 504.367 384.687 503.7 384.854 503C385.054 502.3 385.154 501.633 385.154 501V500.05C385.154 499.25 385.021 498.4 384.754 497.5C384.521 496.6 384.154 495.783 383.654 495.05C383.187 494.283 382.571 493.667 381.804 493.2C381.037 492.7 380.104 492.45 379.004 492.45C377.837 492.45 376.821 492.783 375.954 493.45C375.087 494.117 374.404 495.05 373.904 496.25C373.437 497.45 373.204 498.883 373.204 500.55C373.204 502.083 373.437 503.45 373.904 504.65C374.371 505.817 375.021 506.75 375.854 507.45C376.687 508.117 377.704 508.45 378.904 508.45ZM398.987 513.5V500.8V487.25H404.938L404.988 496.2H405.938C406.204 493.967 406.654 492.15 407.288 490.75C407.954 489.35 408.871 488.317 410.038 487.65C411.204 486.983 412.654 486.65 414.388 486.65C414.688 486.65 415.004 486.667 415.338 486.7C415.704 486.7 416.121 486.75 416.588 486.85L416.288 494.5C415.788 494.267 415.238 494.1 414.638 494C414.038 493.9 413.504 493.85 413.038 493.85C411.738 493.85 410.621 494.15 409.688 494.75C408.754 495.35 407.988 496.217 407.388 497.35C406.821 498.45 406.438 499.8 406.238 501.4V513.5H398.987ZM431.118 514.2C429.352 514.2 427.752 514.033 426.318 513.7C424.885 513.367 423.652 512.883 422.618 512.25C421.585 511.617 420.752 510.867 420.118 510C419.485 509.1 419.068 508.1 418.868 507L424.368 504.75C424.502 505.483 424.868 506.167 425.468 506.8C426.068 507.433 426.868 507.95 427.868 508.35C428.902 508.717 430.135 508.9 431.568 508.9C433.102 508.9 434.285 508.683 435.118 508.25C435.952 507.783 436.368 507.133 436.368 506.3C436.368 505.667 436.135 505.167 435.668 504.8C435.202 504.433 434.518 504.117 433.618 503.85C432.718 503.583 431.635 503.333 430.368 503.1C429.135 502.8 427.868 502.483 426.568 502.15C425.302 501.817 424.118 501.35 423.018 500.75C421.952 500.15 421.068 499.367 420.368 498.4C419.702 497.4 419.368 496.133 419.368 494.6C419.368 493 419.802 491.6 420.668 490.4C421.535 489.2 422.802 488.267 424.468 487.6C426.135 486.9 428.168 486.55 430.568 486.55C432.735 486.55 434.635 486.85 436.268 487.45C437.902 488.017 439.235 488.85 440.268 489.95C441.335 491.017 442.052 492.3 442.418 493.8L436.568 495.75C436.435 494.95 436.102 494.25 435.568 493.65C435.068 493.05 434.385 492.6 433.518 492.3C432.685 492 431.702 491.85 430.568 491.85C429.135 491.85 428.018 492.083 427.218 492.55C426.452 493.017 426.068 493.633 426.068 494.4C426.068 495.033 426.318 495.55 426.818 495.95C427.352 496.35 428.085 496.683 429.018 496.95C429.952 497.183 431.052 497.433 432.318 497.7C433.652 497.967 434.952 498.283 436.218 498.65C437.485 498.983 438.618 499.433 439.618 500C440.652 500.567 441.468 501.317 442.068 502.25C442.668 503.183 442.968 504.383 442.968 505.85C442.968 507.583 442.502 509.083 441.568 510.35C440.635 511.583 439.285 512.533 437.518 513.2C435.752 513.867 433.618 514.2 431.118 514.2ZM457.566 514.1C454.632 514.1 452.466 513.333 451.066 511.8C449.699 510.233 449.016 507.75 449.016 504.35V492.9H445.216L445.316 487.25H447.966C448.999 487.25 449.766 487.1 450.266 486.8C450.766 486.5 451.066 485.95 451.166 485.15L451.816 481.4H455.916V487.25H462.566V493.1H455.916V504.05C455.916 505.25 456.199 506.117 456.766 506.65C457.332 507.183 458.199 507.45 459.366 507.45C459.999 507.45 460.599 507.383 461.166 507.25C461.766 507.117 462.282 506.9 462.716 506.6V513.3C461.682 513.633 460.732 513.85 459.866 513.95C458.999 514.05 458.232 514.1 457.566 514.1ZM476.589 514.2C473.522 514.2 471.205 513.167 469.639 511.1C468.105 509 467.339 505.817 467.339 501.55V487.25H474.539V500.65C474.539 503.217 474.922 505.133 475.689 506.4C476.455 507.633 477.622 508.25 479.189 508.25C480.122 508.25 480.939 508.017 481.639 507.55C482.339 507.083 482.939 506.433 483.439 505.6C483.939 504.767 484.305 503.783 484.539 502.65C484.805 501.517 484.955 500.3 484.989 499V487.25H492.189V502.8V513.5H486.389L486.339 505.3H485.439C484.939 507.367 484.305 509.067 483.539 510.4C482.805 511.7 481.855 512.667 480.689 513.3C479.555 513.9 478.189 514.2 476.589 514.2ZM504.792 513.5L496.042 487.3H503.992L509.542 507.8H510.342L515.892 487.3H523.542L514.742 513.5H504.792ZM532.674 513.5L526.174 487.25H533.674L537.374 507.8H538.324L542.724 487.25H551.374L555.924 507.8H556.874L560.474 487.25H567.824L561.274 513.5H551.374L547.274 493.1H546.424L542.524 513.5H532.674ZM569.679 513.5L578.379 500.35L569.679 487.25H577.979L582.779 497.15H583.629L588.429 487.25H596.679L587.979 500.35L596.779 513.5H588.529L583.629 503.55H582.779L577.979 513.5H569.679ZM610.646 522.6C609.313 522.6 607.946 522.467 606.546 522.2C605.18 521.967 603.88 521.583 602.646 521.05C601.446 520.55 600.413 519.9 599.546 519.1L601.596 512.95C602.663 514.05 603.996 514.867 605.596 515.4C607.196 515.967 608.78 516.25 610.346 516.25C612.113 516.25 613.58 515.883 614.746 515.15C615.946 514.45 616.846 513.367 617.446 511.9C618.08 510.4 618.446 508.533 618.546 506.3L618.846 501.75H617.746C617.413 503.95 616.863 505.75 616.096 507.15C615.363 508.55 614.413 509.583 613.246 510.25C612.113 510.883 610.763 511.2 609.196 511.2C607.296 511.2 605.696 510.717 604.396 509.75C603.096 508.783 602.113 507.333 601.446 505.4C600.813 503.467 600.496 501.083 600.496 498.25V487.25H607.696V496.5C607.696 499.6 608.046 501.833 608.746 503.2C609.446 504.567 610.513 505.25 611.946 505.25C612.713 505.25 613.413 505.05 614.046 504.65C614.68 504.217 615.213 503.6 615.646 502.8C616.113 502 616.463 501.033 616.696 499.9C616.963 498.733 617.096 497.417 617.096 495.95V487.25H624.296V506.55C624.296 508.65 624.113 510.567 623.746 512.3C623.38 514 622.83 515.483 622.096 516.75C621.396 518.05 620.496 519.133 619.396 520C618.296 520.867 617.013 521.517 615.546 521.95C614.113 522.383 612.48 522.6 610.646 522.6ZM629.175 513.5V507.45L642.725 493.7V493H629.425V487.25H651.875V493.2L638.225 507V507.7H651.975V513.5H629.175Z" fill="#3B5BFF"/>
</svg>
