<svg width="1069" height="990" viewBox="0 0 1069 990" fill="none" xmlns="http://www.w3.org/2000/svg">
<g clip-path="url(#clip0_709_102)">
<path d="M594.999 636.812L601.999 790.312C621.666 775.812 674.799 778.513 687.999 821.312C701.199 864.112 587.999 875.979 544.999 872.312V636.812" stroke="#FCFBFF" stroke-width="9" stroke-linecap="round" stroke-linejoin="round"/>
<path d="M474.064 638.812L467.063 792.312C447.397 777.812 394.264 780.513 381.064 823.312C367.864 866.112 481.064 877.979 524.064 874.312V638.812" stroke="#FCFBFF" stroke-width="9" stroke-linecap="round" stroke-linejoin="round"/>
<rect x="244" y="204.812" width="582" height="434" rx="217" fill="#FF7401"/>
<path d="M502.933 116.123C465.934 112.891 473.502 174.028 481.911 205H566C560.394 176.721 539.933 119.355 502.933 116.123Z" fill="#00A254"/>
<path d="M571.102 232.097C599.488 224.774 598.635 211.874 566.469 205.022L481.892 205.023C510.325 213.061 535.443 241.297 571.102 232.097Z" fill="#00723B"/>
<path d="M745.961 415.812C745.961 415.812 832.941 531.265 784.651 578.326C736.693 625.064 641.91 558.199 608.854 552.171C575.798 546.142 560.53 581.312 547.751 570.812C538.25 563.007 552.068 550.027 561.25 542.813C575.25 531.813 598.694 527.812 598.694 512.763C598.694 497.713 588.46 495.22 578.694 497.312C568.545 499.487 545.402 511.686 540.194 503.312C534.384 493.972 551.132 478.857 561.25 473.312C588.627 458.312 615.693 460.812 648.925 490.095C660.39 502.213 671.124 509.389 688.113 512.763C703.131 515.745 720.938 514.397 736.195 512.763" stroke="#FCFBFF" stroke-width="9" stroke-linecap="round" stroke-linejoin="round"/>
<path d="M322.289 415.812C322.289 415.812 235.309 531.265 283.599 578.326C331.557 625.064 426.34 558.199 459.396 552.171C492.452 546.142 507.72 581.312 520.499 570.812C530 563.007 516.182 550.027 507 542.813C493 531.813 469.556 527.812 469.556 512.763C469.556 497.713 479.79 495.22 489.556 497.312C499.705 499.487 522.848 511.686 528.056 503.312C533.866 493.972 517.118 478.857 507 473.312C479.623 458.312 452.557 460.812 419.325 490.095C407.86 502.213 397.126 509.389 380.137 512.763C365.119 515.745 347.312 514.397 332.055 512.763" stroke="#FCFBFF" stroke-width="9" stroke-linecap="round" stroke-linejoin="round"/>
<path d="M511.673 421.93C511.673 421.93 517.119 441.695 535.676 441.695C554.234 441.695 557.326 421.93 557.326 421.93" stroke="#B55201" stroke-width="7" stroke-linecap="round"/>
<circle cx="591.214" cy="370.725" r="19.3198" fill="#1E1E1E"/>
<circle cx="477.786" cy="370.725" r="19.3198" fill="#1E1E1E"/>
<circle cx="591.214" cy="370.725" r="44.6732" stroke="#FCFBFF" stroke-width="9" stroke-linecap="round" stroke-linejoin="round"/>
<circle cx="477.786" cy="370.725" r="44.6732" stroke="#FCFBFF" stroke-width="9" stroke-linecap="round" stroke-linejoin="round"/>
<path d="M526.577 373.435H545.243" stroke="#FCFBFF" stroke-width="9" stroke-linecap="round" stroke-linejoin="round"/>
</g>
<defs>
<clipPath id="clip0_709_102">
<rect width="1069" height="990" fill="white"/>
</clipPath>
</defs>
</svg>
