<svg width="1069" height="990" viewBox="0 0 1069 990" fill="none" xmlns="http://www.w3.org/2000/svg">
<path d="M594.999 636.812L601.999 790.312C621.666 775.812 674.799 778.513 687.999 821.312C701.199 864.112 587.999 875.979 544.999 872.312V636.812" stroke="#FCFBFF" stroke-width="9" stroke-linecap="round" stroke-linejoin="round"/>
<path d="M474.064 638.812L467.063 792.312C447.397 777.812 394.264 780.513 381.064 823.312C367.864 866.112 481.064 877.979 524.064 874.312V638.812" stroke="#FCFBFF" stroke-width="9" stroke-linecap="round" stroke-linejoin="round"/>
<rect x="244" y="204.812" width="582" height="434" rx="217" fill="#FF7401"/>
<path d="M502.933 116.123C465.934 112.891 473.502 174.028 481.911 205H566C560.394 176.721 539.933 119.355 502.933 116.123Z" fill="#00A254"/>
<path d="M571.102 232.097C599.488 224.774 598.635 211.874 566.469 205.022L481.892 205.023C510.325 213.061 535.443 241.297 571.102 232.097Z" fill="#00723B"/>
<path d="M746.267 415.812C746.267 415.812 833.247 531.265 784.957 578.326C736.999 625.064 642.216 558.199 609.16 552.171C576.104 546.142 560.836 581.312 548.057 570.812C538.556 563.007 552.374 550.027 561.556 542.813C575.556 531.813 590.379 522.179 590.379 515.553C590.379 508.927 580.237 501.952 570.47 504.044C560.321 506.219 545.264 517.186 540.056 508.812C534.246 499.472 553.805 490.2 564.835 486.812C578.763 482.536 600.896 494.28 600.896 494.28C600.896 494.28 596.943 481.718 590.379 476.842C584.744 472.658 567.556 466.941 567.556 459.812C567.556 446.212 595.738 455.663 605.056 464.313C611.817 470.59 625.056 490.095 625.056 490.095C625.056 490.095 620.598 437.312 636.056 437.312C654.056 437.313 638.105 478.334 649.231 490.095C660.696 502.213 671.43 509.389 688.419 512.763C703.437 515.745 721.244 514.397 736.501 512.763" stroke="#FCFBFF" stroke-width="9" stroke-linecap="round" stroke-linejoin="round"/>
<path d="M322.29 415.812C322.29 415.812 235.31 531.265 283.599 578.326C331.557 625.064 426.341 558.199 459.396 552.171C492.452 546.142 507.72 581.312 520.5 570.812C530.001 563.007 516.183 550.027 507.001 542.813C493.001 531.813 478.178 522.179 478.178 515.553C478.178 508.927 488.32 501.952 498.087 504.044C508.235 506.219 523.293 517.186 528.501 508.812C534.311 499.472 514.751 490.2 503.721 486.812C489.794 482.536 467.66 494.28 467.66 494.28C467.66 494.28 471.614 481.718 478.178 476.842C483.812 472.658 501.001 466.941 501.001 459.812C501.001 446.212 472.818 455.663 463.501 464.313C456.739 470.59 443.501 490.095 443.501 490.095C443.501 490.095 447.959 437.312 432.501 437.312C414.501 437.313 430.452 478.334 419.325 490.095C407.86 502.213 397.126 509.389 380.137 512.763C365.12 515.745 347.312 514.397 332.056 512.763" stroke="#FCFBFF" stroke-width="9" stroke-linecap="round" stroke-linejoin="round"/>
<path d="M511.673 421.93C511.673 421.93 517.119 441.695 535.676 441.695C554.234 441.695 557.326 421.93 557.326 421.93" stroke="#B55201" stroke-width="7" stroke-linecap="round"/>
<circle cx="591.214" cy="370.725" r="19.3198" fill="#1E1E1E"/>
<circle cx="477.786" cy="370.725" r="19.3198" fill="#1E1E1E"/>
<circle cx="591.214" cy="370.725" r="44.6732" stroke="#FCFBFF" stroke-width="9" stroke-linecap="round" stroke-linejoin="round"/>
<circle cx="477.786" cy="370.725" r="44.6732" stroke="#FCFBFF" stroke-width="9" stroke-linecap="round" stroke-linejoin="round"/>
<path d="M526.577 373.435H545.243" stroke="#FCFBFF" stroke-width="9" stroke-linecap="round" stroke-linejoin="round"/>
</svg>
