<svg width="1069" height="990" viewBox="0 0 1069 990" fill="none" xmlns="http://www.w3.org/2000/svg">
<g clip-path="url(#clip0_709_43)">
<path d="M594.999 636.812L601.999 790.312C621.666 775.812 674.799 778.513 687.999 821.312C701.199 864.112 587.999 875.979 544.999 872.312V636.812" stroke="#FCFBFF" stroke-width="9" stroke-linecap="round" stroke-linejoin="round"/>
<path d="M474.064 638.812L467.063 792.312C447.397 777.812 394.264 780.513 381.064 823.312C367.864 866.112 481.064 877.979 524.064 874.312V638.812" stroke="#FCFBFF" stroke-width="9" stroke-linecap="round" stroke-linejoin="round"/>
<rect x="244" y="204.812" width="582" height="434" rx="217" fill="#FF7401"/>
<path d="M502.933 116.123C465.934 112.891 473.502 174.028 481.911 205H566C560.394 176.721 539.933 119.355 502.933 116.123Z" fill="#00A254"/>
<path d="M571.102 232.097C599.488 224.774 598.635 211.874 566.469 205.022L481.892 205.023C510.325 213.061 535.443 241.297 571.102 232.097Z" fill="#00723B"/>
<path d="M736 550.397C736 550.397 731.348 645.798 631.321 645.798C568.768 645.798 547.773 623.292 538.191 597.299M348.298 521.699C307.202 576.768 353.725 690.009 430.491 645.798C470.004 623.042 506.423 607.355 538.191 597.299C588.234 581.459 626.735 579.591 647.604 586.075C621.55 504.79 539 506.813 501.828 529.455C501.828 529.455 397.169 604.595 408.004 566.685C409.534 561.33 413.432 553.499 413.432 553.499C413.432 553.499 401.669 564.792 397.148 559.704C392.737 554.738 404.127 544.192 404.127 544.192C404.127 544.192 390.854 558.054 385 552.812C379.207 547.626 388 535.812 388 535.812C388 535.812 369.5 549.312 369.5 532.812C377.94 509.812 437.118 479.609 510.357 525.577" stroke="#FCFBFF" stroke-width="9" stroke-linecap="round" stroke-linejoin="round"/>
<path d="M511.673 421.93C511.673 421.93 517.119 441.695 535.676 441.695C554.234 441.695 557.326 421.93 557.326 421.93" stroke="#B55201" stroke-width="7" stroke-linecap="round"/>
<circle cx="591.214" cy="370.725" r="19.3198" fill="#1E1E1E"/>
<circle cx="477.786" cy="370.725" r="19.3198" fill="#1E1E1E"/>
<circle cx="591.214" cy="370.725" r="44.6732" stroke="#FCFBFF" stroke-width="9" stroke-linecap="round" stroke-linejoin="round"/>
<circle cx="477.786" cy="370.725" r="44.6732" stroke="#FCFBFF" stroke-width="9" stroke-linecap="round" stroke-linejoin="round"/>
<path d="M526.577 373.435H545.243" stroke="#FCFBFF" stroke-width="9" stroke-linecap="round" stroke-linejoin="round"/>
</g>
<defs>
<clipPath id="clip0_709_43">
<rect width="1069" height="990" fill="white"/>
</clipPath>
</defs>
</svg>
