<svg width="1111" height="1168" viewBox="0 0 1111 1168" fill="none" xmlns="http://www.w3.org/2000/svg">
<g clip-path="url(#clip0_679_188)">
<path d="M615.999 752L622.999 905.5C642.666 891 695.799 893.7 708.999 936.5C722.199 979.3 608.999 991.167 565.999 987.5V752" stroke="#E9E9E9" stroke-width="9" stroke-linecap="round" stroke-linejoin="round"/>
<path d="M495.064 754L488.063 907.5C468.397 893 415.264 895.7 402.064 938.5C388.864 981.3 502.064 993.167 545.064 989.5V754" stroke="#E9E9E9" stroke-width="9" stroke-linecap="round" stroke-linejoin="round"/>
<rect x="265" y="320" width="582" height="434" rx="217" fill="#FF7401"/>
<path d="M523.933 231.311C486.934 228.079 494.502 289.215 502.911 320.188H587C581.394 291.909 560.933 234.543 523.933 231.311Z" fill="#00A254"/>
<path d="M592.102 347.285C620.488 339.961 619.635 327.062 587.469 320.21L502.892 320.21C531.325 328.248 556.443 356.485 592.102 347.285Z" fill="#00723B"/>
<path d="M421 446C421 446 464.353 500 552.5 500C646.752 500 690 446 690 446" stroke="#1E1E1E" stroke-width="9" stroke-linecap="round" stroke-linejoin="round"/>
<path d="M449 417C449 417 463 440.5 492 440.5C523.008 440.5 537.5 417 537.5 417" stroke="#1E1E1E" stroke-width="9" stroke-linecap="round" stroke-linejoin="round"/>
<path d="M571 417C571 417 585 440.5 614 440.5C645.008 440.5 659.5 417 659.5 417" stroke="#1E1E1E" stroke-width="9" stroke-linecap="round" stroke-linejoin="round"/>
<path d="M767.267 531C767.267 531 854.247 646.453 805.957 693.514C757.999 740.252 663.216 673.387 630.16 667.358C597.104 661.33 581.836 696.5 569.057 686C559.556 678.194 573.374 665.214 582.556 658C596.556 647 611.379 637.366 611.379 630.74C611.379 624.114 601.237 617.139 591.47 619.232C581.321 621.406 566.264 632.374 561.056 624C555.246 614.66 574.805 605.387 585.835 602C599.763 597.723 621.896 609.467 621.896 609.467C621.896 609.467 617.943 596.906 611.379 592.03C605.744 587.845 588.556 582.129 588.556 575C588.556 561.399 616.738 570.85 626.056 579.5C632.817 585.777 646.056 605.282 646.056 605.282C646.056 605.282 641.598 552.5 657.056 552.5C675.056 552.5 659.105 593.521 670.231 605.282C681.696 617.401 692.43 624.577 709.419 627.95C724.437 630.933 742.244 629.585 757.501 627.95" stroke="#E9E9E9" stroke-width="9" stroke-linecap="round" stroke-linejoin="round"/>
<path d="M343.29 531C343.29 531 256.31 646.453 304.599 693.514C352.557 740.252 447.341 673.387 480.396 667.358C513.452 661.33 528.72 696.5 541.5 686C551.001 678.194 537.183 665.214 528.001 658C514.001 647 499.178 637.366 499.178 630.74C499.178 624.114 509.32 617.139 519.087 619.232C529.235 621.406 544.293 632.374 549.501 624C555.311 614.66 535.751 605.387 524.721 602C510.794 597.723 488.66 609.467 488.66 609.467C488.66 609.467 492.614 596.906 499.178 592.03C504.812 587.845 522.001 582.129 522.001 575C522.001 561.399 493.818 570.85 484.501 579.5C477.739 585.777 464.501 605.282 464.501 605.282C464.501 605.282 468.959 552.5 453.501 552.5C435.501 552.5 451.452 593.521 440.325 605.282C428.86 617.401 418.126 624.577 401.137 627.95C386.12 630.933 368.312 629.585 353.056 627.95" stroke="#E9E9E9" stroke-width="9" stroke-linecap="round" stroke-linejoin="round"/>
</g>
<defs>
<clipPath id="clip0_679_188">
<rect width="1111" height="1168" fill="white"/>
</clipPath>
</defs>
</svg>
