<svg width="1069" height="990" viewBox="0 0 1069 990" fill="none" xmlns="http://www.w3.org/2000/svg">
<g clip-path="url(#clip0_709_60)">
<path d="M589.999 636.812L596.999 790.312C616.666 775.812 669.799 778.513 682.999 821.312C696.199 864.112 582.999 875.979 539.999 872.312V636.812" stroke="#FCFBFF" stroke-width="9" stroke-linecap="round" stroke-linejoin="round"/>
<path d="M469.064 638.812L462.063 792.312C442.397 777.812 389.264 780.513 376.064 823.312C362.864 866.112 476.064 877.979 519.064 874.312V638.812" stroke="#FCFBFF" stroke-width="9" stroke-linecap="round" stroke-linejoin="round"/>
<rect x="239" y="204.812" width="582" height="434" rx="217" fill="#FF7401"/>
<path d="M497.933 116.123C460.934 112.891 468.502 174.028 476.911 205H561C555.394 176.721 534.933 119.355 497.933 116.123Z" fill="#00A254"/>
<path d="M566.102 232.097C594.488 224.774 593.635 211.874 561.469 205.022L476.892 205.023C505.325 213.061 530.443 241.297 566.102 232.097Z" fill="#00723B"/>
<path d="M804.877 288.986C804.877 288.986 823.178 285.534 828.384 293.418C834.752 303.062 820.25 319.162 820.25 319.162" stroke="#FCFBFF" stroke-width="9" stroke-linecap="round"/>
<path d="M754.771 331.17C763.912 313.637 789.826 275.023 803.657 289.207C817.488 303.391 797.099 323.092 785.176 331.17" stroke="#FCFBFF" stroke-width="9" stroke-linecap="round"/>
<path d="M691 509.337C691 509.337 752.141 496.843 777.21 469.53C806.984 437.091 806.938 349.415 806.938 349.415C806.938 349.415 830.295 341.745 829.93 330.551C829.544 318.74 803.371 318.024 803.371 318.024" stroke="#FCFBFF" stroke-width="9" stroke-linecap="round"/>
<path d="M693.278 433.795C708.833 435.584 741.481 432.006 747.624 403.382C753.768 374.757 754.516 335.796 754.122 319.894C753.728 303.991 744.08 223.881 762.392 223.881C777.16 223.881 771.253 275.763 780.705 275.763C790.156 275.763 792.519 214.939 808.469 217.918C824.418 220.898 806.697 285.303 806.697 285.303" stroke="#FCFBFF" stroke-width="9" stroke-linecap="round"/>
<path d="M334 433.812C271.999 499.312 262.502 601.687 262.5 720.812C262.499 771.312 305.001 755.312 305.001 709.812C305.001 709.812 319.886 732.956 329.5 720.812C339 708.812 319.001 688.812 319.001 688.812C321.668 656.312 319.001 540.812 357.5 513.312" stroke="#FCFBFF" stroke-width="9" stroke-linecap="round" stroke-linejoin="round"/>
<path d="M506.673 421.93C506.673 421.93 512.119 441.695 530.676 441.695C549.234 441.695 552.326 421.93 552.326 421.93" stroke="#B55201" stroke-width="7" stroke-linecap="round"/>
<circle cx="586.214" cy="370.725" r="19.3198" fill="#1E1E1E"/>
<circle cx="472.786" cy="370.725" r="19.3198" fill="#1E1E1E"/>
<circle cx="586.214" cy="370.725" r="44.6732" stroke="#FCFBFF" stroke-width="9" stroke-linecap="round" stroke-linejoin="round"/>
<circle cx="472.786" cy="370.725" r="44.6732" stroke="#FCFBFF" stroke-width="9" stroke-linecap="round" stroke-linejoin="round"/>
<path d="M521.577 373.435H540.243" stroke="#FCFBFF" stroke-width="9" stroke-linecap="round" stroke-linejoin="round"/>
</g>
<defs>
<clipPath id="clip0_709_60">
<rect width="1069" height="990" fill="white"/>
</clipPath>
</defs>
</svg>
