<svg width="1111" height="1168" viewBox="0 0 1111 1168" fill="none" xmlns="http://www.w3.org/2000/svg">
<g clip-path="url(#clip0_679_168)">
<path d="M615.999 752L622.999 905.5C642.666 891 695.799 893.7 708.999 936.5C722.199 979.3 608.999 991.167 565.999 987.5V752" stroke="#E9E9E9" stroke-width="9" stroke-linecap="round" stroke-linejoin="round"/>
<path d="M495.064 754L488.063 907.5C468.397 893 415.264 895.7 402.064 938.5C388.864 981.3 502.064 993.167 545.064 989.5V754" stroke="#E9E9E9" stroke-width="9" stroke-linecap="round" stroke-linejoin="round"/>
<rect x="265" y="320" width="582" height="434" rx="217" fill="#FF7401"/>
<path d="M523.933 231.311C486.934 228.079 494.502 289.215 502.911 320.188H587C581.394 291.909 560.933 234.543 523.933 231.311Z" fill="#00A254"/>
<path d="M592.102 347.285C620.488 339.961 619.635 327.062 587.469 320.21L502.892 320.21C531.325 328.248 556.443 356.485 592.102 347.285Z" fill="#00723B"/>
<path d="M421 446C421 446 464.353 500 552.5 500C646.752 500 690 446 690 446" stroke="#1E1E1E" stroke-width="9" stroke-linecap="round" stroke-linejoin="round"/>
<path d="M449 417C449 417 463 440.5 492 440.5C523.008 440.5 537.5 417 537.5 417" stroke="#1E1E1E" stroke-width="9" stroke-linecap="round" stroke-linejoin="round"/>
<path d="M571 417C571 417 585 440.5 614 440.5C645.008 440.5 659.5 417 659.5 417" stroke="#1E1E1E" stroke-width="9" stroke-linecap="round" stroke-linejoin="round"/>
<path d="M830.877 404.173C830.877 404.173 849.178 400.721 854.384 408.605C860.752 418.25 846.25 434.35 846.25 434.35" stroke="#E9E9E9" stroke-width="9" stroke-linecap="round"/>
<path d="M780.771 446.358C789.912 428.824 815.826 390.21 829.657 404.395C843.488 418.579 823.099 438.28 811.176 446.357" stroke="#E9E9E9" stroke-width="9" stroke-linecap="round"/>
<path d="M717 624.525C717 624.525 778.141 612.03 803.21 584.717C832.984 552.279 832.938 464.602 832.938 464.602C832.938 464.602 856.295 456.932 855.93 445.738C855.544 433.927 829.371 433.212 829.371 433.212" stroke="#E9E9E9" stroke-width="9" stroke-linecap="round"/>
<path d="M719.278 548.983C734.833 550.772 767.481 547.194 773.624 518.569C779.768 489.945 780.516 450.984 780.122 435.081C779.728 419.178 770.08 339.069 788.392 339.069C803.16 339.069 797.253 390.95 806.705 390.95C816.156 390.95 818.519 330.127 834.469 333.106C850.418 336.085 832.697 400.491 832.697 400.491" stroke="#E9E9E9" stroke-width="9" stroke-linecap="round"/>
<path d="M360 549C297.999 614.5 288.502 716.875 288.5 836C288.499 886.5 331.001 870.5 331.001 825C331.001 825 345.886 848.144 355.5 836C365 824 345.001 804 345.001 804C347.668 771.5 345.001 656 383.5 628.5" stroke="#E9E9E9" stroke-width="9" stroke-linecap="round" stroke-linejoin="round"/>
</g>
<defs>
<clipPath id="clip0_679_168">
<rect width="1111" height="1168" fill="white"/>
</clipPath>
</defs>
</svg>
