<svg width="1111" height="1111" viewBox="0 0 1111 1111" fill="none" xmlns="http://www.w3.org/2000/svg">
<rect width="1111" height="1111" fill="#5434E2"/>
<path d="M740 462.354C740 564.251 657.397 646.854 555.5 646.854C453.603 646.854 371 564.251 371 462.354C371 360.458 453.603 277.854 555.5 277.854C657.397 277.854 740 360.458 740 462.354ZM442.49 462.354C442.49 524.768 493.086 575.365 555.5 575.365C617.914 575.365 668.51 524.768 668.51 462.354C668.51 399.941 617.914 349.344 555.5 349.344C493.086 349.344 442.49 399.941 442.49 462.354Z" fill="#FF7401"/>
<path d="M740 648.646C740 697.578 720.562 744.506 685.961 779.107C651.361 813.707 604.432 833.146 555.5 833.146C506.568 833.146 459.639 813.707 425.039 779.107C390.438 744.506 371 697.578 371 648.646L442.49 648.646C442.49 678.618 454.396 707.362 475.59 728.556C496.783 749.749 525.528 761.656 555.5 761.656C585.472 761.656 614.217 749.749 635.41 728.556C656.604 707.362 668.51 678.618 668.51 648.646H740Z" fill="#FF7401"/>
<path d="M529.4 190.13C490.419 186.725 498.392 251.137 507.252 283.768H595.846C589.94 253.974 568.382 193.535 529.4 190.13Z" fill="#00A254"/>
<path d="M601.22 312.318C631.127 304.602 630.228 291.012 596.339 283.793L507.23 283.793C537.187 292.262 563.65 322.011 601.22 312.318Z" fill="#00723B"/>
</svg>
