<svg width="719" height="180" viewBox="0 0 719 180" fill="none" xmlns="http://www.w3.org/2000/svg">
<rect x="22" y="24" width="20" height="74" fill="#FF7401"/>
<rect width="20" height="74" transform="matrix(1 0 0 -1 432 129)" fill="#FF7401"/>
<rect width="20" height="103" transform="matrix(1 0 0 -1 493 129)" fill="#FF7401"/>
<rect x="143" y="24" width="20" height="105" fill="#FF7401"/>
<rect x="226" y="77" width="20" height="56" fill="#FF7401"/>
<rect x="432" y="67" width="20" height="91" transform="rotate(90 432 67)" fill="#FF7401"/>
<rect x="719" y="67" width="20" height="91" transform="rotate(90 719 67)" fill="#FF7401"/>
<rect x="63" y="41" width="20" height="63" transform="rotate(90 63 41)" fill="#FF7401"/>
<path d="M83 97.5C83 101.505 82.2111 105.471 80.6783 109.172C79.1456 112.872 76.8989 116.235 74.0668 119.067C71.2346 121.899 67.8723 124.146 64.1718 125.678C60.4714 127.211 56.5053 128 52.5 128C48.4947 128 44.5286 127.211 40.8282 125.678C37.1277 124.146 33.7654 121.899 30.9332 119.067C28.1011 116.235 25.8544 112.872 24.3217 109.172C22.7889 105.471 22 101.505 22 97.5L41.9775 97.5C41.9775 98.8818 42.2497 100.25 42.7785 101.527C43.3073 102.803 44.0824 103.963 45.0595 104.941C46.0366 105.918 47.1966 106.693 48.4732 107.222C49.7499 107.75 51.1182 108.022 52.5 108.022C53.8818 108.022 55.2501 107.75 56.5268 107.222C57.8034 106.693 58.9634 105.918 59.9405 104.941C60.9176 103.963 61.6927 102.803 62.2215 101.527C62.7503 100.25 63.0225 98.8818 63.0225 97.5H83Z" fill="#FF7401"/>
<path d="M493 55.5C493 51.4947 492.211 47.5286 490.678 43.8282C489.146 40.1277 486.899 36.7654 484.067 33.9332C481.235 31.1011 477.872 28.8544 474.172 27.3217C470.471 25.7889 466.505 25 462.5 25C458.495 25 454.529 25.7889 450.828 27.3217C447.128 28.8544 443.765 31.1011 440.933 33.9332C438.101 36.7654 435.854 40.1277 434.322 43.8282C432.789 47.5286 432 51.4947 432 55.5L451.978 55.5C451.977 54.1182 452.25 52.7499 452.778 51.4732C453.307 50.1966 454.082 49.0366 455.059 48.0595C456.037 47.0824 457.197 46.3073 458.473 45.7785C459.75 45.2497 461.118 44.9775 462.5 44.9775C463.882 44.9775 465.25 45.2497 466.527 45.7785C467.803 46.3073 468.963 47.0824 469.941 48.0595C470.918 49.0366 471.693 50.1966 472.222 51.4732C472.75 52.7499 473.022 54.1182 473.022 55.5H493Z" fill="#FF7401"/>
<path d="M163 76.5C163 105.495 139.495 129 110.5 129C81.5051 129 58 105.495 58 76.5C58 47.5051 81.5051 24 110.5 24C139.495 24 163 47.5051 163 76.5ZM78.3426 76.5C78.3426 94.26 92.74 108.657 110.5 108.657C128.26 108.657 142.657 94.26 142.657 76.5C142.657 58.74 128.26 44.3426 110.5 44.3426C92.74 44.3426 78.3426 58.74 78.3426 76.5Z" fill="#FF7401"/>
<path d="M431.518 69.4696C429.88 57.5821 424.142 46.6397 415.295 38.5321C406.448 30.4246 395.048 25.661 383.063 25.0638C371.078 24.4666 359.26 28.0735 349.651 35.2615C340.043 42.4494 333.245 52.7672 330.434 64.4331C327.622 76.099 328.972 88.3805 334.252 99.1568C339.531 109.933 348.407 118.528 359.349 123.456C370.29 128.384 382.608 129.338 394.177 126.151C405.746 122.964 415.839 115.837 422.713 106.001L406.357 94.5698C402.146 100.595 395.964 104.96 388.878 106.912C381.791 108.864 374.246 108.28 367.544 105.262C360.843 102.243 355.405 96.9785 352.172 90.3778C348.938 83.7771 348.111 76.2544 349.833 69.1088C351.555 61.9632 355.719 55.6433 361.605 51.2405C367.49 46.8377 374.729 44.6284 382.07 44.9942C389.411 45.36 396.394 48.2778 401.813 53.2439C407.232 58.2099 410.746 64.9123 411.75 72.1938L431.518 69.4696Z" fill="#FF7401"/>
<path d="M718.518 69.4696C716.88 57.5821 711.142 46.6397 702.295 38.5321C693.448 30.4246 682.048 25.661 670.063 25.0638C658.078 24.4666 646.26 28.0735 636.651 35.2615C627.043 42.4494 620.245 52.7672 617.434 64.4331C614.622 76.099 615.972 88.3805 621.252 99.1568C626.531 109.933 635.407 118.528 646.349 123.456C657.29 128.384 669.608 129.338 681.177 126.151C692.746 122.964 702.839 115.837 709.713 106.001L693.357 94.5698C689.146 100.595 682.964 104.96 675.878 106.912C668.791 108.864 661.246 108.28 654.544 105.262C647.843 102.243 642.405 96.9785 639.172 90.3778C635.938 83.7771 635.111 76.2544 636.833 69.1088C638.555 61.9632 642.719 55.6433 648.605 51.2405C654.49 46.8377 661.729 44.6284 669.07 44.9942C676.411 45.36 683.394 48.2778 688.813 53.2439C694.232 58.2099 697.746 64.9123 698.75 72.1938L718.518 69.4696Z" fill="#FF7401"/>
<path d="M329 76.5C329 104.943 305.943 128 277.5 128C249.057 128 226 104.943 226 76.5C226 48.0573 249.057 25 277.5 25C305.943 25 329 48.0573 329 76.5ZM245.955 76.5C245.955 93.9217 260.078 108.045 277.5 108.045C294.922 108.045 309.045 93.9217 309.045 76.5C309.045 59.0783 294.922 44.9551 277.5 44.9551C260.078 44.9551 245.955 59.0783 245.955 76.5Z" fill="#FF7401"/>
<path d="M246 79.5C246 65.8414 240.574 52.7421 230.916 43.084C221.258 33.4259 208.159 28 194.5 28C180.841 28 167.742 33.4259 158.084 43.084C148.426 52.7421 143 65.8413 143 79.5L162.955 79.5C162.955 71.1338 166.279 63.1102 172.194 57.1944C178.11 51.2786 186.134 47.9551 194.5 47.9551C202.866 47.9551 210.89 51.2786 216.806 57.1944C222.721 63.1102 226.045 71.1338 226.045 79.5H246Z" fill="#FF7401"/>
<path d="M329 128.5C329 142.159 323.574 155.258 313.916 164.916C304.258 174.574 291.159 180 277.5 180C263.841 180 250.742 174.574 241.084 164.916C231.426 155.258 226 142.159 226 128.5L245.955 128.5C245.955 136.866 249.279 144.89 255.194 150.806C261.11 156.721 269.134 160.045 277.5 160.045C285.866 160.045 293.89 156.721 299.806 150.806C305.721 144.89 309.045 136.866 309.045 128.5H329Z" fill="#FF7401"/>
<path d="M270.215 0.0362437C259.334 -0.914211 261.559 17.0652 264.032 26.1738H288.762C287.113 17.8573 281.096 0.986699 270.215 0.0362437Z" fill="#00A254"/>
<path d="M290.262 34.143C298.61 31.9892 298.359 28.1957 288.9 26.1806L264.026 26.1807C272.388 28.5446 279.775 36.8486 290.262 34.143Z" fill="#00723B"/>
<rect x="596" y="72" width="20" height="56" fill="#FF7401"/>
<rect x="513" y="73" width="20" height="56" fill="#FF7401"/>
<path d="M616 74.5C616 60.8414 610.574 47.7421 600.916 38.084C591.258 28.4259 578.159 23 564.5 23C550.841 23 537.742 28.4259 528.084 38.084C518.426 47.7421 513 60.8413 513 74.5L532.955 74.5C532.955 66.1338 536.279 58.1102 542.194 52.1944C548.11 46.2786 556.134 42.9551 564.5 42.9551C572.866 42.9551 580.89 46.2786 586.806 52.1944C592.721 58.1102 596.045 66.1338 596.045 74.5H616Z" fill="#FF7401"/>
</svg>
