<svg width="1111" height="1168" viewBox="0 0 1111 1168" fill="none" xmlns="http://www.w3.org/2000/svg">
<g clip-path="url(#clip0_674_136)">
<path d="M615.999 752L622.999 905.5C642.666 891 695.799 893.7 708.999 936.5C722.199 979.3 608.999 991.167 565.999 987.5V752" stroke="#1E1E1E" stroke-width="9" stroke-linecap="round" stroke-linejoin="round"/>
<path d="M495.064 754L488.063 907.5C468.397 893 415.264 895.7 402.064 938.5C388.864 981.3 502.064 993.167 545.064 989.5V754" stroke="#1E1E1E" stroke-width="9" stroke-linecap="round" stroke-linejoin="round"/>
<rect x="265" y="320" width="582" height="434" rx="217" fill="#FF7401"/>
<path d="M523.933 231.311C486.934 228.079 494.502 289.215 502.911 320.188H587C581.394 291.909 560.933 234.543 523.933 231.311Z" fill="#00A254"/>
<path d="M592.102 347.285C620.488 339.961 619.635 327.062 587.469 320.21L502.892 320.21C531.325 328.248 556.443 356.485 592.102 347.285Z" fill="#00723B"/>
<path d="M421 446C421 446 464.353 500 552.5 500C646.752 500 690 446 690 446" stroke="#1E1E1E" stroke-width="9" stroke-linecap="round" stroke-linejoin="round"/>
<path d="M449 417C449 417 463 440.5 492 440.5C523.008 440.5 537.5 417 537.5 417" stroke="#1E1E1E" stroke-width="9" stroke-linecap="round" stroke-linejoin="round"/>
<path d="M571 417C571 417 585 440.5 614 440.5C645.008 440.5 659.5 417 659.5 417" stroke="#1E1E1E" stroke-width="9" stroke-linecap="round" stroke-linejoin="round"/>
<path d="M766.961 531C766.961 531 853.941 646.453 805.651 693.514C757.693 740.252 662.91 673.387 629.854 667.358C596.798 661.33 581.53 696.5 568.751 686C559.25 678.194 573.068 665.214 582.25 658C596.25 647 619.694 643 619.694 627.95C619.694 612.901 609.46 610.408 599.694 612.5C589.545 614.674 566.402 626.874 561.194 618.5C555.384 609.16 572.132 594.044 582.25 588.5C609.627 573.5 636.693 576 669.925 605.282C681.39 617.401 692.124 624.577 709.113 627.95C724.131 630.933 741.938 629.585 757.195 627.95" stroke="#1E1E1E" stroke-width="9" stroke-linecap="round" stroke-linejoin="round"/>
<path d="M343.289 531C343.289 531 256.309 646.453 304.599 693.514C352.557 740.252 447.34 673.387 480.396 667.358C513.452 661.33 528.72 696.5 541.499 686C551 678.194 537.182 665.214 528 658C514 647 490.556 643 490.556 627.95C490.556 612.901 500.79 610.408 510.556 612.5C520.705 614.674 543.848 626.874 549.056 618.5C554.866 609.16 538.118 594.044 528 588.5C500.623 573.5 473.557 576 440.325 605.282C428.86 617.401 418.126 624.577 401.137 627.95C386.119 630.933 368.312 629.585 353.055 627.95" stroke="#1E1E1E" stroke-width="9" stroke-linecap="round" stroke-linejoin="round"/>
</g>
<defs>
<clipPath id="clip0_674_136">
<rect width="1111" height="1168" fill="white"/>
</clipPath>
</defs>
</svg>
