<svg width="1111" height="1168" viewBox="0 0 1111 1168" fill="none" xmlns="http://www.w3.org/2000/svg">
<g clip-path="url(#clip0_674_86)">
<rect x="265" y="320" width="582" height="434" rx="217" fill="#FF7401"/>
<path d="M615.999 752L622.999 905.5C642.666 891 695.799 893.7 708.999 936.5C722.199 979.3 608.999 991.167 565.999 987.5V752" stroke="#1E1E1E" stroke-width="9" stroke-linecap="round" stroke-linejoin="round"/>
<path d="M495.064 754L488.063 907.5C468.397 893 415.264 895.7 402.064 938.5C388.864 981.3 502.064 993.167 545.064 989.5V754" stroke="#1E1E1E" stroke-width="9" stroke-linecap="round" stroke-linejoin="round"/>
<path d="M523.933 231.311C486.934 228.079 494.502 289.215 502.911 320.188H587C581.394 291.909 560.933 234.543 523.933 231.311Z" fill="#00A254"/>
<path d="M592.102 347.285C620.488 339.961 619.635 327.062 587.469 320.21L502.892 320.21C531.325 328.248 556.443 356.485 592.102 347.285Z" fill="#00723B"/>
<path d="M757 665.584C757 665.584 752.348 760.986 652.321 760.986C589.768 760.986 568.773 738.48 559.191 712.487M369.298 636.886C328.202 691.956 374.725 805.196 451.491 760.986C491.004 738.23 527.423 722.543 559.191 712.487C609.234 696.646 647.735 694.779 668.604 701.263C642.55 619.978 560 622 522.828 644.642C522.828 644.642 418.169 719.782 429.004 681.872C430.534 676.518 434.432 668.687 434.432 668.687C434.432 668.687 422.669 679.98 418.148 674.892C413.737 669.926 425.127 659.379 425.127 659.379C425.127 659.379 411.854 673.241 406 668C400.207 662.813 409 651 409 651C409 651 390.5 664.5 390.5 648C398.94 624.999 458.118 594.796 531.357 640.764" stroke="#1E1E1E" stroke-width="9" stroke-linecap="round" stroke-linejoin="round"/>
<path d="M421 457C421 457 464.353 511 552.5 511C646.752 511 690 457 690 457" stroke="#1E1E1E" stroke-width="9" stroke-linecap="round" stroke-linejoin="round"/>
<path d="M449 428C449 428 463 451.5 492 451.5C523.008 451.5 537.5 428 537.5 428" stroke="#1E1E1E" stroke-width="9" stroke-linecap="round" stroke-linejoin="round"/>
<path d="M571 428C571 428 585 451.5 614 451.5C645.008 451.5 659.5 428 659.5 428" stroke="#1E1E1E" stroke-width="9" stroke-linecap="round" stroke-linejoin="round"/>
</g>
<defs>
<clipPath id="clip0_674_86">
<rect width="1111" height="1168" fill="white"/>
</clipPath>
</defs>
</svg>
