<svg width="1377" height="927" viewBox="0 0 1377 927" fill="none" xmlns="http://www.w3.org/2000/svg">
<ellipse cx="638.161" cy="794.984" rx="606.304" ry="131.711" fill="#4C2FCE"/>
<path d="M279.175 587.032C278.521 617.464 276.856 715.387 293.349 738.166C277.968 730.968 244.064 721.873 231.497 743.078C215.789 769.586 241.316 803.947 330.656 773.513C315.929 729.661 296.389 613.59 326.234 574.32" stroke="#FCFBFF" stroke-width="7.54327" stroke-linecap="round" stroke-linejoin="round"/>
<path d="M344.554 579.146C341.935 610.56 329.164 658.226 354.593 670.335C371.087 678.189 404.113 663.462 413.276 649.718C410.986 677.861 405.446 718.549 443.93 714.622C482.415 710.695 477.388 638.202 421.427 608.75C421.427 608.75 384.938 639.681 374.245 633.361C363.552 627.042 379.656 561.641 390.473 536.148" stroke="#FCFBFF" stroke-width="7.54327" stroke-linecap="round" stroke-linejoin="round"/>
<path d="M681.225 687.047L686.813 809.587C702.513 798.011 744.93 800.167 755.467 834.334C766.005 868.502 675.637 877.975 641.31 875.048V687.047" stroke="#FCFBFF" stroke-width="7.54327" stroke-linecap="round" stroke-linejoin="round"/>
<path d="M584.681 688.641L579.093 811.18C563.393 799.605 520.977 801.76 510.439 835.928C499.901 870.095 590.269 879.569 624.597 876.641V688.641" stroke="#FCFBFF" stroke-width="7.54327" stroke-linecap="round" stroke-linejoin="round"/>
<path d="M949.724 625.516C939.982 657.563 935.976 725.958 939.982 737.979C925.166 730.884 880.012 704.855 870.913 748.333C864.548 778.75 933.635 791.15 968.066 785.516C968.692 757.971 959.67 685.963 986.057 625.516" stroke="#FCFBFF" stroke-width="7.54327" stroke-linecap="round" stroke-linejoin="round"/>
<path d="M1089.27 582.602C1108.08 610.317 1132.2 674.445 1131.94 687.113C1143.98 675.943 1179.38 637.69 1200.97 676.513C1216.07 703.673 1153.77 736.008 1119.22 740.841C1110.45 714.722 1097.71 643.279 1054.58 593.38" stroke="#FCFBFF" stroke-width="7.54327" stroke-linecap="round" stroke-linejoin="round"/>
<path d="M1112.7 328.4C1066.24 284.62 991.714 298.992 960.257 311.65C884.314 302.72 832.38 334.541 805.576 383.682C778.773 432.822 823.445 559.023 888.779 609.281C954.114 659.538 1027.82 687.459 1087.57 604.813C1147.32 522.168 1170.78 383.125 1112.7 328.4Z" fill="#E0483E"/>
<ellipse cx="1007.1" cy="543.07" rx="5.72949" ry="8.59375" fill="#FFCA00"/>
<ellipse cx="962.915" cy="585.574" rx="5.72949" ry="8.59375" transform="rotate(-10.157 962.915 585.574)" fill="#FFCA00"/>
<ellipse cx="910.993" cy="552.666" rx="5.72949" ry="8.59375" transform="rotate(-9.21874 910.993 552.666)" fill="#FFCA00"/>
<ellipse cx="1010.21" cy="616.171" rx="5.72949" ry="8.59375" transform="rotate(-6.23356 1010.21 616.171)" fill="#FFCA00"/>
<ellipse cx="1066.5" cy="572.977" rx="5.72949" ry="8.59375" fill="#FFCA00"/>
<ellipse cx="1100.56" cy="526.145" rx="5.72949" ry="8.59375" transform="rotate(1.71961 1100.56 526.145)" fill="#FFCA00"/>
<ellipse cx="1080.9" cy="470.883" rx="5.72949" ry="8.59375" transform="rotate(-6.35943 1080.9 470.883)" fill="#FFCA00"/>
<ellipse cx="1112.96" cy="403.167" rx="5.72949" ry="8.59375" transform="rotate(-5.03813 1112.96 403.167)" fill="#FFCA00"/>
<ellipse cx="1080.9" cy="352.773" rx="5.72949" ry="8.59375" fill="#FFCA00"/>
<path d="M922.514 403.62C937.607 401.105 954.79 410.106 962.652 420.664C949.479 416.219 918.006 412.167 897.496 431.521" stroke="#1E1E1E" stroke-width="7.66041" stroke-linecap="round" stroke-linejoin="round"/>
<path d="M1022.35 386.99C1007.25 389.505 993.919 403.591 989.905 416.129C1000.92 407.652 1029.38 393.613 1055.06 405.271" stroke="#1E1E1E" stroke-width="7.66041" stroke-linecap="round" stroke-linejoin="round"/>
<path d="M948.104 458.922C972.548 480.585 1001.56 474.525 1016.07 447.596" stroke="#1E1E1E" stroke-width="7.66041" stroke-linecap="round" stroke-linejoin="round"/>
<path d="M962.459 240.633C941.48 240.631 933.266 284.507 931.782 306.445C906.382 299.022 854.792 288.63 851.625 306.445C848.458 324.26 894.838 333.328 918.424 335.635C904.404 343.222 880.918 361.464 899.126 373.735C917.335 386.006 952.234 355.427 967.408 338.604C989.179 347.181 1034.11 361.761 1039.65 351.469C1045.19 341.177 1023.15 328.708 1011.44 323.76C1032.06 315.019 1071.02 294.864 1061.91 284.177C1052.81 273.489 1011.28 288.63 991.653 297.536C990.663 278.569 983.439 240.634 962.459 240.633Z" fill="#00A254"/>
<path d="M1188.62 342.222C1188.62 342.222 1201.03 339.879 1204.57 345.229C1208.89 351.773 1199.05 362.697 1199.05 362.697" stroke="#FCFBFF" stroke-width="6.10684" stroke-linecap="round"/>
<path d="M1154.62 370.845C1160.82 358.947 1178.4 332.746 1187.79 342.371C1197.17 351.996 1183.34 365.363 1175.25 370.844" stroke="#FCFBFF" stroke-width="6.10684" stroke-linecap="round"/>
<path d="M1111.35 491.743C1111.35 491.743 1152.83 483.265 1169.84 464.732C1190.05 442.721 1190.01 383.229 1190.01 383.229C1190.01 383.229 1205.86 378.025 1205.61 370.429C1205.35 362.415 1187.59 361.93 1187.59 361.93" stroke="#FCFBFF" stroke-width="6.10684" stroke-linecap="round"/>
<path d="M1112.89 440.482C1123.45 441.696 1145.6 439.268 1149.77 419.845C1153.94 400.423 1154.44 373.986 1154.18 363.195C1153.91 352.405 1147.36 298.048 1159.79 298.048C1169.81 298.048 1165.8 333.251 1172.21 333.251C1178.63 333.251 1180.23 291.98 1191.05 294.002C1201.87 296.023 1189.85 339.725 1189.85 339.725" stroke="#FCFBFF" stroke-width="6.10684" stroke-linecap="round"/>
<path d="M215.869 242.671C215.869 242.671 222.752 216.706 204.661 221.233C195.264 223.585 201.907 246.598 201.907 246.598" stroke="#FCFBFF" stroke-width="7.54327" stroke-linecap="round"/>
<path d="M237.357 263.995C229.696 249.299 213.69 237.746 202.097 249.635C190.505 261.523 198.008 280.065 215.087 259.856" stroke="#FCFBFF" stroke-width="7.54327" stroke-linecap="round"/>
<path d="M290.809 413.328C290.809 413.328 239.563 402.856 218.552 379.964C193.598 352.775 191.374 259.89 191.374 259.89C191.374 259.89 180.024 234.437 188.339 230.08C198.292 224.864 201.318 244.629 201.318 244.629" stroke="#FCFBFF" stroke-width="7.54327" stroke-linecap="round"/>
<path d="M288.9 350.016C275.862 351.515 248.499 348.516 243.35 324.525C238.201 300.533 237.574 267.878 237.904 254.55C238.234 241.221 246.321 174.078 230.972 174.078C218.595 174.078 217.028 222.648 217.028 231.749" stroke="#FCFBFF" stroke-width="7.54327" stroke-linecap="round"/>
<path d="M306.363 113.097C314.307 114.837 329.503 115.787 326.739 105.666C323.975 95.5449 267.37 78.2723 239.413 70.9012" stroke="white" stroke-width="7" stroke-linecap="round"/>
<path d="M536.426 71.6609L489.644 65.3594L471.422 103.608C438.79 428.469 360.744 543.045 56 588.971L60.4994 630.356C120.778 646.55 289.016 672.641 450.957 488.208C580.51 340.661 554.12 174.222 524.731 109.445L536.426 71.6609Z" fill="#F8B516"/>
<path d="M475.247 104.946L491.44 64.4637L462.651 23.0781L414.069 99.5504C389.778 149.632 322.482 272.468 247.629 363.155C172.776 453.842 72.4924 535.292 31.707 564.682L69.494 597.969C166.659 617.762 303.409 556.584 409.57 419.834C494.5 310.434 488.742 164.325 475.247 104.946Z" fill="#FFCA00"/>
<ellipse cx="501.646" cy="44.8217" rx="46.0358" ry="25.8602" transform="rotate(28.7637 501.646 44.8217)" fill="#6B3100"/>
<ellipse cx="47.4677" cy="594.276" rx="38.9816" ry="21.8976" transform="rotate(74.4134 47.4677 594.276)" fill="#6B3100"/>
<rect x="395.184" y="330.273" width="498.35" height="371.622" rx="185.811" fill="#FF7401"/>
<path d="M616.899 254.332C585.217 251.565 591.698 303.914 598.898 330.435H670.901C666.101 306.22 648.58 257.099 616.899 254.332Z" fill="#00A254"/>
<path d="M675.27 353.635C699.576 347.364 698.846 336.319 671.303 330.451L598.882 330.452C623.228 337.335 644.736 361.513 675.27 353.635Z" fill="#00723B"/>
<path d="M528.76 451.875C528.76 451.875 565.882 498.114 641.359 498.114C722.064 498.114 759.097 451.875 759.097 451.875" stroke="#1E1E1E" stroke-width="7.70644" stroke-linecap="round" stroke-linejoin="round"/>
<path d="M552.738 433.453C552.738 433.453 564.726 413.331 589.558 413.331C616.11 413.331 628.518 433.453 628.518 433.453" stroke="#1E1E1E" stroke-width="7.70644" stroke-linecap="round" stroke-linejoin="round"/>
<path d="M657.203 433.453C657.203 433.453 669.191 413.331 694.023 413.331C720.574 413.331 732.983 433.453 732.983 433.453" stroke="#1E1E1E" stroke-width="7.70644" stroke-linecap="round" stroke-linejoin="round"/>
<circle cx="227.154" cy="86.873" r="83.4512" fill="#E86A01"/>
<path d="M1011.29 459.242C1018.18 462.686 1029.89 471.898 1021.62 481.195C1013.36 490.493 1002.11 477.895 997.516 470.433" stroke="#1E1E1E" stroke-width="7.66041" stroke-linecap="round" stroke-linejoin="round"/>
<path d="M199.847 7.95312C200.539 9.53059 201.513 11.666 202.761 14.1914C205.526 19.7882 209.619 27.2771 214.929 34.8691C225.041 49.328 239.161 63.5712 256.506 66.6445C258.392 43.7351 257.606 22.8734 255.981 8.57617C257.764 9.23524 259.518 9.95358 261.24 10.7285C262.7 25.2271 263.291 45.322 261.474 67.2363C279.969 68.7225 291.123 65.3322 297.589 61.7295C300.933 59.8658 303.071 57.9196 304.35 56.4912C304.457 56.3714 304.556 56.2531 304.651 56.1406C305.335 57.8666 305.962 59.6212 306.532 61.4014C304.956 62.8837 302.831 64.5324 300.022 66.0977C292.522 70.2769 280.327 73.7746 261.022 72.2158C260.672 75.7652 260.26 79.3542 259.773 82.9668C258.81 90.1224 257.564 97.3863 255.987 104.635C266.51 105.827 279.727 105.821 290.553 105.492C296.17 105.322 301.111 105.066 304.646 104.853C306.299 104.753 307.643 104.662 308.605 104.595C308.234 106.315 307.808 108.015 307.332 109.693C306.631 109.739 305.832 109.79 304.946 109.844C301.374 110.059 296.382 110.318 290.704 110.49C279.651 110.826 265.865 110.837 254.869 109.538C253.326 115.994 251.508 122.414 249.379 128.712C257.241 130.752 265.841 134.973 272.637 138.776C276.528 140.954 279.898 143.035 282.294 144.571C283.493 145.34 284.45 145.974 285.11 146.417C285.194 146.473 285.272 146.526 285.346 146.576C284.118 147.775 282.853 148.936 281.554 150.058C281.012 149.699 280.354 149.268 279.595 148.781C277.261 147.285 273.98 145.258 270.195 143.14C263.313 139.288 254.983 135.258 247.709 133.445C242.851 146.671 236.551 159.24 228.451 170.31C227.982 170.317 227.512 170.323 227.041 170.323C226.019 170.323 225.001 170.303 223.988 170.267L222.877 169.414C231.228 158.525 237.717 145.943 242.703 132.573C238.53 132.159 232.209 132.05 224.689 132.165C215.438 132.306 204.616 132.778 194.284 133.346C183.957 133.913 174.139 134.576 166.902 135.097C163.876 135.314 161.301 135.508 159.33 135.658C158.211 134.108 157.143 132.518 156.131 130.891C156.605 130.853 157.185 130.808 157.86 130.756C159.935 130.596 162.916 130.37 166.544 130.109C173.799 129.588 183.646 128.923 194.01 128.354C204.37 127.784 215.266 127.308 224.613 127.165C232.708 127.041 239.832 127.16 244.43 127.734C246.54 121.562 248.347 115.249 249.885 108.88C222.069 104.947 195.389 96.8707 175.386 89.6455C164.874 85.8486 156.186 82.2805 150.122 79.6592C147.703 78.6136 145.701 77.7179 144.166 77.0186C144.37 75.2853 144.627 73.5683 144.936 71.8691C145.016 71.9064 145.098 71.9463 145.183 71.9854C146.772 72.7182 149.113 73.7757 152.105 75.0693C158.092 77.6571 166.684 81.1868 177.084 84.9434C197.012 92.1415 223.51 100.145 251.012 103.989C252.597 96.7613 253.85 89.4904 254.818 82.2998C255.3 78.7184 255.708 75.1605 256.055 71.6426C236.447 68.365 221.168 52.5147 210.831 37.7344C205.337 29.8791 201.12 22.1579 198.278 16.4062C196.931 13.6785 195.889 11.3871 195.164 9.72656C196.702 9.09024 198.264 8.4985 199.847 7.95312Z" fill="#151515"/>
<path d="M134.391 73.0766C126.402 71.5571 111.185 71.0283 114.229 81.0688C117.272 91.1093 174.333 106.808 202.483 113.402" stroke="white" stroke-width="7" stroke-linecap="round"/>
<path d="M306.363 113.097C314.307 114.837 329.503 115.787 326.739 105.666" stroke="white" stroke-width="7" stroke-linecap="round"/>
<path d="M357.082 230.355C360.613 225.449 369.792 216.226 378.264 218.581C388.854 221.526 377.087 242.704 384.147 250.352" stroke="black" stroke-width="7" stroke-linecap="round"/>
<path d="M403.842 259.088C410.314 256.145 426.083 255.202 437.379 274.971" stroke="black" stroke-width="7" stroke-linecap="round"/>
<ellipse cx="364.015" cy="247.798" rx="5.94238" ry="11.1836" transform="rotate(24.5909 364.015 247.798)" fill="black"/>
<ellipse cx="407.875" cy="277.353" rx="5.94238" ry="11.1836" transform="rotate(24.5909 407.875 277.353)" fill="black"/>
<path d="M359.541 306.422C364.922 314.139 382.421 326.908 409.371 316.242" stroke="black" stroke-width="7" stroke-linecap="round"/>
<path d="M804.787 598.06C804.787 598.06 801.073 674.219 721.221 674.219C671.285 674.219 654.524 656.253 646.875 635.502M495.283 575.15C462.475 619.112 499.615 709.513 560.898 674.219C592.441 656.053 621.515 643.53 646.875 635.502C686.825 622.857 717.56 621.366 734.22 626.542C713.422 561.652 647.521 563.266 617.846 581.342C617.846 581.342 534.297 641.326 542.946 611.062C544.168 606.788 547.279 600.536 547.279 600.536C547.279 600.536 537.889 609.551 534.28 605.49C530.758 601.526 539.851 593.106 539.851 593.106C539.851 593.106 529.255 604.172 524.582 599.988C519.958 595.848 526.977 586.417 526.977 586.417C526.977 586.417 512.208 597.194 512.208 584.022C518.946 565.661 566.188 541.549 624.656 578.246" stroke="#FCFBFF" stroke-width="7.54327" stroke-linecap="round" stroke-linejoin="round"/>
<path d="M1180.17 49.666L1197.75 32.082L1206.71 41.0371L1189.13 58.6191H1213.99V71.2842H1189.12L1206.71 88.8721L1197.75 97.8271L1180.17 80.2422V105.109H1167.5V80.2422L1149.92 97.8271L1140.96 88.8721L1158.55 71.2842H1133.68V58.6191H1158.55L1140.96 41.0371L1149.92 32.082L1167.5 49.667V24.7969H1180.17V49.666Z" fill="#FFCA00"/>
<path d="M721.062 196.248C721.813 194.7 724.019 194.7 724.77 196.248L726.673 200.165C727.184 201.217 728.466 201.633 729.498 201.083L733.339 199.032C734.857 198.222 736.641 199.518 736.34 201.212L735.577 205.499C735.372 206.65 736.164 207.741 737.323 207.902L741.636 208.501C743.34 208.738 744.022 210.835 742.782 212.028L739.644 215.048C738.802 215.859 738.802 217.208 739.644 218.018L742.782 221.038C744.022 222.231 743.34 224.329 741.636 224.565L737.323 225.164C736.164 225.325 735.372 226.416 735.577 227.567L736.34 231.855C736.641 233.549 734.857 234.845 733.339 234.035L729.498 231.984C728.466 231.433 727.184 231.85 726.673 232.902L724.77 236.819C724.019 238.367 721.813 238.367 721.062 236.819L719.159 232.902C718.648 231.85 717.366 231.433 716.334 231.984L712.493 234.035C710.975 234.845 709.191 233.549 709.492 231.855L710.256 227.567C710.46 226.416 709.668 225.325 708.51 225.164L704.196 224.565C702.492 224.329 701.81 222.231 703.05 221.038L706.188 218.018C707.03 217.208 707.03 215.859 706.188 215.048L703.05 212.028C701.81 210.835 702.492 208.738 704.196 208.501L708.51 207.902C709.668 207.741 710.46 206.65 710.256 205.499L709.492 201.212C709.191 199.518 710.975 198.222 712.493 199.032L716.334 201.083C717.366 201.633 718.648 201.217 719.159 200.165L721.062 196.248Z" fill="#CDDC39"/>
<path d="M57.6388 280.036C45.583 278.312 33.0463 273.851 23.3709 265.924C21.7283 264.578 19.0326 265.583 18.707 267.681C16.7678 280.18 11.0756 292.545 3.72717 301.876C2.39422 303.568 3.55279 306.316 5.68489 306.626C18.0466 308.418 31.2915 315.494 40.2612 321.698C41.9924 322.896 44.5474 321.598 44.7579 319.504C45.9262 307.883 52.1411 293.715 59.418 284.863C60.7958 283.188 59.7865 280.343 57.6388 280.036Z" fill="#00A254"/>
<path d="M1354.77 508.23C1357.28 496.312 1362.55 484.093 1371.09 474.954C1372.54 473.403 1371.71 470.648 1369.64 470.186C1357.29 467.437 1345.32 460.951 1336.49 453.011C1334.89 451.57 1332.07 452.547 1331.62 454.655C1329.03 466.873 1321.11 479.629 1314.33 488.176C1313.02 489.825 1314.15 492.459 1316.23 492.806C1327.75 494.729 1341.48 501.853 1349.84 509.691C1351.42 511.175 1354.33 510.353 1354.77 508.23Z" fill="#FF7401"/>
</svg>
