<svg width="5388" height="240" viewBox="0 0 5388 240" fill="none" xmlns="http://www.w3.org/2000/svg">
<rect width="5388" height="240" fill="#CDDC39"/>
<rect width="240" height="240" fill="#FF7401"/>
<path d="M134.531 86.2314L173.818 46.9443L193.825 66.9512L154.538 106.237L210.097 106.238V134.531H154.537L193.823 173.817L173.816 193.824L134.531 154.539V210.097H106.237V154.538L66.9521 193.823L46.9453 173.817L86.2314 134.531H30.6719V106.237H86.2295L46.9434 66.9512L66.9502 46.9443L106.237 86.2314V30.6719H134.531V86.2314Z" fill="#5434E2"/>
<path d="M414.591 130.397C415.177 130.504 415.897 130.61 416.751 130.717C417.604 130.77 418.404 130.797 419.151 130.797C420.964 130.797 422.617 130.53 424.111 129.997C425.657 129.464 426.964 128.637 428.031 127.517C429.151 126.397 430.004 124.957 430.591 123.197C431.231 121.384 431.551 119.224 431.551 116.717C431.551 111.917 430.431 108.317 428.191 105.917C425.951 103.464 422.964 102.237 419.231 102.237C418.484 102.237 417.711 102.264 416.911 102.317C416.164 102.37 415.391 102.45 414.591 102.557V130.397ZM419.071 142.077C418.164 142.077 417.124 142.05 415.951 141.997C414.777 141.944 413.551 141.837 412.271 141.677C411.044 141.517 409.791 141.304 408.511 141.037C407.284 140.824 406.137 140.504 405.071 140.077C402.137 138.957 400.671 137.01 400.671 134.237V96.8769C400.671 95.7569 400.964 94.9035 401.551 94.3169C402.191 93.6769 403.044 93.1702 404.111 92.7969C406.404 92.0502 408.831 91.5702 411.391 91.3569C413.951 91.0902 416.244 90.9569 418.271 90.9569C422.431 90.9569 426.191 91.4635 429.551 92.4769C432.964 93.4902 435.871 95.0635 438.271 97.1969C440.724 99.2769 442.617 101.917 443.951 105.117C445.284 108.317 445.951 112.104 445.951 116.477C445.951 120.744 445.311 124.477 444.031 127.677C442.751 130.824 440.911 133.49 438.511 135.677C436.164 137.81 433.337 139.41 430.031 140.477C426.724 141.544 423.071 142.077 419.071 142.077ZM473.472 142.077C470.325 142.077 467.392 141.65 464.672 140.797C462.005 139.89 459.659 138.557 457.632 136.797C455.659 135.037 454.085 132.824 452.912 130.157C451.792 127.49 451.232 124.37 451.232 120.797C451.232 117.277 451.792 114.264 452.912 111.757C454.085 109.197 455.605 107.117 457.472 105.517C459.339 103.864 461.472 102.664 463.872 101.917C466.272 101.117 468.725 100.717 471.232 100.717C474.059 100.717 476.619 101.144 478.912 101.997C481.259 102.85 483.259 104.024 484.912 105.517C486.619 107.01 487.925 108.797 488.832 110.877C489.792 112.957 490.272 115.224 490.272 117.677C490.272 119.49 489.765 120.877 488.752 121.837C487.739 122.797 486.325 123.41 484.512 123.677L464.752 126.637C465.339 128.397 466.539 129.73 468.352 130.637C470.165 131.49 472.245 131.917 474.592 131.917C476.779 131.917 478.832 131.65 480.752 131.117C482.725 130.53 484.325 129.864 485.552 129.117C486.405 129.65 487.125 130.397 487.712 131.357C488.299 132.317 488.592 133.33 488.592 134.397C488.592 136.797 487.472 138.584 485.232 139.757C483.525 140.664 481.605 141.277 479.472 141.597C477.339 141.917 475.339 142.077 473.472 142.077ZM471.232 110.637C469.952 110.637 468.832 110.85 467.872 111.277C466.965 111.704 466.219 112.264 465.632 112.957C465.045 113.597 464.592 114.344 464.272 115.197C464.005 115.997 463.845 116.824 463.792 117.677L477.472 115.437C477.312 114.37 476.725 113.304 475.712 112.237C474.699 111.17 473.205 110.637 471.232 110.637ZM529.618 129.197C529.618 133.25 528.098 136.424 525.058 138.717C522.018 141.01 517.538 142.157 511.618 142.157C509.378 142.157 507.298 141.997 505.378 141.677C503.458 141.357 501.805 140.877 500.418 140.237C499.085 139.544 498.018 138.69 497.218 137.677C496.472 136.664 496.098 135.464 496.098 134.077C496.098 132.797 496.365 131.73 496.898 130.877C497.432 129.97 498.072 129.224 498.818 128.637C500.365 129.49 502.125 130.264 504.098 130.957C506.125 131.597 508.445 131.917 511.058 131.917C512.712 131.917 513.965 131.677 514.818 131.197C515.725 130.717 516.178 130.077 516.178 129.277C516.178 128.53 515.858 127.944 515.218 127.517C514.578 127.09 513.512 126.744 512.018 126.477L509.618 125.997C504.978 125.09 501.512 123.677 499.218 121.757C496.978 119.784 495.858 116.984 495.858 113.357C495.858 111.384 496.285 109.597 497.138 107.997C497.992 106.397 499.192 105.064 500.738 103.997C502.285 102.93 504.125 102.104 506.258 101.517C508.445 100.93 510.845 100.637 513.458 100.637C515.432 100.637 517.272 100.797 518.978 101.117C520.738 101.384 522.258 101.81 523.538 102.397C524.818 102.984 525.832 103.757 526.578 104.717C527.325 105.624 527.698 106.717 527.698 107.997C527.698 109.224 527.458 110.29 526.978 111.197C526.552 112.05 525.992 112.77 525.298 113.357C524.872 113.09 524.232 112.824 523.378 112.557C522.525 112.237 521.592 111.97 520.578 111.757C519.565 111.49 518.525 111.277 517.458 111.117C516.445 110.957 515.512 110.877 514.658 110.877C512.898 110.877 511.538 111.09 510.578 111.517C509.618 111.89 509.138 112.504 509.138 113.357C509.138 113.944 509.405 114.424 509.938 114.797C510.472 115.17 511.485 115.517 512.978 115.837L515.458 116.397C520.578 117.57 524.205 119.197 526.338 121.277C528.525 123.304 529.618 125.944 529.618 129.197ZM535.873 91.1169C535.873 89.0902 536.54 87.3835 537.873 85.9969C539.26 84.6102 541.073 83.9169 543.313 83.9169C545.553 83.9169 547.34 84.6102 548.673 85.9969C550.06 87.3835 550.753 89.0902 550.753 91.1169C550.753 93.1435 550.06 94.8502 548.673 96.2369C547.34 97.6235 545.553 98.3169 543.313 98.3169C541.073 98.3169 539.26 97.6235 537.873 96.2369C536.54 94.8502 535.873 93.1435 535.873 91.1169ZM550.113 140.717C549.527 140.824 548.647 140.957 547.473 141.117C546.353 141.33 545.207 141.437 544.033 141.437C542.86 141.437 541.793 141.357 540.833 141.197C539.927 141.037 539.153 140.717 538.513 140.237C537.873 139.757 537.367 139.117 536.993 138.317C536.673 137.464 536.513 136.37 536.513 135.037V102.477C537.1 102.37 537.953 102.237 539.073 102.077C540.247 101.864 541.42 101.757 542.593 101.757C543.767 101.757 544.807 101.837 545.713 101.997C546.673 102.157 547.473 102.477 548.113 102.957C548.753 103.437 549.233 104.104 549.553 104.957C549.927 105.757 550.113 106.824 550.113 108.157V140.717ZM577.731 100.717C580.771 100.717 583.518 101.117 585.971 101.917C588.478 102.664 590.585 103.65 592.291 104.877C593.358 105.624 594.185 106.45 594.771 107.357C595.411 108.264 595.731 109.437 595.731 110.877V138.877C595.731 141.704 595.198 144.13 594.131 146.157C593.065 148.237 591.598 149.944 589.731 151.277C587.918 152.664 585.758 153.677 583.251 154.317C580.798 154.957 578.158 155.277 575.331 155.277C570.478 155.277 566.665 154.61 563.891 153.277C561.118 151.997 559.731 149.89 559.731 146.957C559.731 145.73 559.971 144.637 560.451 143.677C560.985 142.77 561.571 142.077 562.211 141.597C563.758 142.45 565.491 143.17 567.411 143.757C569.385 144.344 571.411 144.637 573.491 144.637C576.371 144.637 578.665 144.157 580.371 143.197C582.078 142.237 582.931 140.69 582.931 138.557V137.277C580.745 138.237 578.078 138.717 574.931 138.717C572.531 138.717 570.238 138.37 568.051 137.677C565.918 136.93 564.025 135.81 562.371 134.317C560.771 132.77 559.465 130.797 558.451 128.397C557.491 125.997 557.011 123.144 557.011 119.837C557.011 116.584 557.518 113.757 558.531 111.357C559.598 108.957 561.038 106.984 562.851 105.437C564.718 103.837 566.905 102.664 569.411 101.917C571.971 101.117 574.745 100.717 577.731 100.717ZM582.691 112.317C582.318 112.104 581.758 111.89 581.011 111.677C580.318 111.464 579.438 111.357 578.371 111.357C575.758 111.357 573.785 112.104 572.451 113.597C571.171 115.037 570.531 117.117 570.531 119.837C570.531 122.93 571.171 125.17 572.451 126.557C573.785 127.89 575.465 128.557 577.491 128.557C579.678 128.557 581.411 128.05 582.691 127.037V112.317ZM628.802 116.157C628.802 114.504 628.322 113.304 627.362 112.557C626.455 111.757 625.202 111.357 623.602 111.357C622.535 111.357 621.469 111.49 620.402 111.757C619.389 112.024 618.509 112.424 617.762 112.957V140.717C617.229 140.877 616.375 141.037 615.202 141.197C614.082 141.357 612.909 141.437 611.682 141.437C610.509 141.437 609.442 141.357 608.482 141.197C607.575 141.037 606.802 140.717 606.162 140.237C605.522 139.757 605.015 139.117 604.642 138.317C604.322 137.464 604.162 136.37 604.162 135.037V111.037C604.162 109.597 604.455 108.424 605.042 107.517C605.682 106.61 606.535 105.784 607.602 105.037C609.415 103.757 611.682 102.717 614.402 101.917C617.175 101.117 620.242 100.717 623.602 100.717C629.629 100.717 634.269 102.05 637.522 104.717C640.775 107.33 642.402 110.984 642.402 115.677V140.717C641.869 140.877 641.015 141.037 639.842 141.197C638.722 141.357 637.549 141.437 636.322 141.437C635.149 141.437 634.082 141.357 633.122 141.197C632.215 141.037 631.442 140.717 630.802 140.237C630.162 139.757 629.655 139.117 629.282 138.317C628.962 137.464 628.802 136.37 628.802 135.037V116.157ZM688.978 139.597C688.232 140.237 687.218 140.744 685.938 141.117C684.658 141.544 683.138 141.757 681.378 141.757C679.192 141.757 677.298 141.437 675.698 140.797C674.098 140.21 673.032 139.357 672.498 138.237C671.912 136.957 671.218 134.93 670.418 132.157C669.672 129.384 668.925 126.344 668.178 123.037C667.432 119.73 666.712 116.37 666.018 112.957C665.378 109.544 664.872 106.53 664.498 103.917C665.245 103.17 666.232 102.53 667.458 101.997C668.738 101.41 670.125 101.117 671.618 101.117C673.485 101.117 675.005 101.544 676.178 102.397C677.405 103.197 678.152 104.61 678.418 106.637C678.952 110.69 679.405 114.05 679.778 116.717C680.152 119.33 680.445 121.49 680.658 123.197C680.925 124.85 681.112 126.13 681.218 127.037C681.378 127.89 681.512 128.584 681.618 129.117H681.938C682.098 128.264 682.365 127.037 682.738 125.437C683.165 123.784 683.645 121.917 684.178 119.837C684.712 117.757 685.272 115.517 685.858 113.117C686.445 110.664 687.032 108.237 687.618 105.837C688.685 105.25 689.725 104.797 690.738 104.477C691.805 104.157 693.112 103.997 694.658 103.997C696.525 103.997 698.125 104.29 699.458 104.877C700.792 105.464 701.645 106.37 702.018 107.597C702.658 109.944 703.272 112.237 703.858 114.477C704.445 116.664 704.978 118.717 705.458 120.637C705.938 122.504 706.365 124.184 706.738 125.677C707.112 127.117 707.378 128.264 707.538 129.117H707.938C708.525 125.01 709.085 120.744 709.618 116.317C710.205 111.89 710.738 107.384 711.218 102.797C712.178 102.21 713.192 101.784 714.258 101.517C715.325 101.25 716.392 101.117 717.458 101.117C719.325 101.117 720.872 101.517 722.098 102.317C723.325 103.117 723.938 104.504 723.938 106.477C723.938 107.33 723.805 108.61 723.538 110.317C723.272 112.024 722.925 113.944 722.498 116.077C722.072 118.21 721.565 120.45 720.978 122.797C720.445 125.144 719.885 127.41 719.298 129.597C718.765 131.784 718.232 133.757 717.698 135.517C717.218 137.277 716.792 138.637 716.418 139.597C715.672 140.237 714.525 140.744 712.978 141.117C711.432 141.544 709.778 141.757 708.018 141.757C703.538 141.757 700.898 140.637 700.098 138.397C699.778 137.437 699.378 136.237 698.898 134.797C698.418 133.304 697.912 131.677 697.378 129.917C696.845 128.157 696.338 126.344 695.858 124.477C695.378 122.557 694.978 120.717 694.658 118.957C694.285 120.824 693.832 122.77 693.298 124.797C692.765 126.77 692.205 128.717 691.618 130.637C691.085 132.504 690.578 134.237 690.098 135.837C689.618 137.384 689.245 138.637 688.978 139.597ZM729.779 91.1169C729.779 89.0902 730.446 87.3835 731.779 85.9969C733.166 84.6102 734.979 83.9169 737.219 83.9169C739.459 83.9169 741.246 84.6102 742.579 85.9969C743.966 87.3835 744.659 89.0902 744.659 91.1169C744.659 93.1435 743.966 94.8502 742.579 96.2369C741.246 97.6235 739.459 98.3169 737.219 98.3169C734.979 98.3169 733.166 97.6235 731.779 96.2369C730.446 94.8502 729.779 93.1435 729.779 91.1169ZM744.019 140.717C743.433 140.824 742.553 140.957 741.379 141.117C740.259 141.33 739.113 141.437 737.939 141.437C736.766 141.437 735.699 141.357 734.739 141.197C733.833 141.037 733.059 140.717 732.419 140.237C731.779 139.757 731.273 139.117 730.899 138.317C730.579 137.464 730.419 136.37 730.419 135.037V102.477C731.006 102.37 731.859 102.237 732.979 102.077C734.153 101.864 735.326 101.757 736.499 101.757C737.673 101.757 738.713 101.837 739.619 101.997C740.579 102.157 741.379 102.477 742.019 102.957C742.659 103.437 743.139 104.104 743.459 104.957C743.833 105.757 744.019 106.824 744.019 108.157V140.717ZM766.278 127.437C766.278 128.824 766.704 129.81 767.558 130.397C768.464 130.984 769.718 131.277 771.318 131.277C772.118 131.277 772.944 131.224 773.798 131.117C774.651 130.957 775.398 130.77 776.038 130.557C776.518 131.144 776.918 131.81 777.238 132.557C777.611 133.25 777.798 134.104 777.798 135.117C777.798 137.144 777.024 138.797 775.478 140.077C773.984 141.357 771.318 141.997 767.478 141.997C762.784 141.997 759.158 140.93 756.598 138.797C754.091 136.664 752.838 133.197 752.838 128.397V94.1569C753.424 93.9969 754.251 93.8369 755.318 93.6769C756.438 93.4635 757.611 93.3569 758.838 93.3569C761.184 93.3569 762.998 93.7835 764.278 94.6369C765.611 95.4369 766.278 97.1702 766.278 99.8369V104.957H776.758C777.078 105.544 777.371 106.29 777.638 107.197C777.958 108.05 778.118 109.01 778.118 110.077C778.118 111.944 777.691 113.304 776.838 114.157C776.038 114.957 774.944 115.357 773.558 115.357H766.278V127.437ZM823.109 140.717C822.575 140.877 821.722 141.037 820.549 141.197C819.429 141.357 818.255 141.437 817.029 141.437C815.855 141.437 814.789 141.357 813.829 141.197C812.922 141.037 812.149 140.717 811.509 140.237C810.869 139.757 810.362 139.117 809.989 138.317C809.669 137.464 809.509 136.37 809.509 135.037V117.277C809.509 115.09 808.949 113.57 807.829 112.717C806.762 111.81 805.429 111.357 803.829 111.357C802.762 111.357 801.749 111.49 800.789 111.757C799.829 112.024 799.055 112.344 798.469 112.717V140.717C797.935 140.877 797.082 141.037 795.909 141.197C794.789 141.357 793.615 141.437 792.389 141.437C791.215 141.437 790.149 141.357 789.189 141.197C788.282 141.037 787.509 140.717 786.869 140.237C786.229 139.757 785.722 139.117 785.349 138.317C785.029 137.464 784.869 136.37 784.869 135.037V88.6369C785.455 88.5302 786.309 88.3969 787.429 88.2369C788.602 88.0235 789.775 87.9169 790.949 87.9169C792.122 87.9169 793.162 87.9969 794.069 88.1569C795.029 88.3169 795.829 88.6369 796.469 89.1169C797.109 89.5969 797.589 90.2635 797.909 91.1169C798.282 91.9169 798.469 92.9835 798.469 94.3169V102.157C799.162 101.89 800.202 101.597 801.589 101.277C803.029 100.904 804.602 100.717 806.309 100.717C811.589 100.717 815.695 102.05 818.629 104.717C821.615 107.33 823.109 111.25 823.109 116.477V140.717ZM847.201 91.1169C847.201 89.0902 847.868 87.3835 849.201 85.9969C850.588 84.6102 852.401 83.9169 854.641 83.9169C856.881 83.9169 858.668 84.6102 860.001 85.9969C861.388 87.3835 862.081 89.0902 862.081 91.1169C862.081 93.1435 861.388 94.8502 860.001 96.2369C858.668 97.6235 856.881 98.3169 854.641 98.3169C852.401 98.3169 850.588 97.6235 849.201 96.2369C847.868 94.8502 847.201 93.1435 847.201 91.1169ZM861.441 140.717C860.855 140.824 859.975 140.957 858.801 141.117C857.681 141.33 856.535 141.437 855.361 141.437C854.188 141.437 853.121 141.357 852.161 141.197C851.255 141.037 850.481 140.717 849.841 140.237C849.201 139.757 848.695 139.117 848.321 138.317C848.001 137.464 847.841 136.37 847.841 135.037V102.477C848.428 102.37 849.281 102.237 850.401 102.077C851.575 101.864 852.748 101.757 853.921 101.757C855.095 101.757 856.135 101.837 857.041 101.997C858.001 102.157 858.801 102.477 859.441 102.957C860.081 103.437 860.561 104.104 860.881 104.957C861.255 105.757 861.441 106.824 861.441 108.157V140.717ZM894.739 116.157C894.739 114.504 894.259 113.304 893.299 112.557C892.393 111.757 891.139 111.357 889.539 111.357C888.473 111.357 887.406 111.49 886.339 111.757C885.326 112.024 884.446 112.424 883.699 112.957V140.717C883.166 140.877 882.313 141.037 881.139 141.197C880.019 141.357 878.846 141.437 877.619 141.437C876.446 141.437 875.379 141.357 874.419 141.197C873.513 141.037 872.739 140.717 872.099 140.237C871.459 139.757 870.953 139.117 870.579 138.317C870.259 137.464 870.099 136.37 870.099 135.037V111.037C870.099 109.597 870.393 108.424 870.979 107.517C871.619 106.61 872.473 105.784 873.539 105.037C875.353 103.757 877.619 102.717 880.339 101.917C883.113 101.117 886.179 100.717 889.539 100.717C895.566 100.717 900.206 102.05 903.459 104.717C906.713 107.33 908.339 110.984 908.339 115.677V140.717C907.806 140.877 906.953 141.037 905.779 141.197C904.659 141.357 903.486 141.437 902.259 141.437C901.086 141.437 900.019 141.357 899.059 141.197C898.153 141.037 897.379 140.717 896.739 140.237C896.099 139.757 895.593 139.117 895.219 138.317C894.899 137.464 894.739 136.37 894.739 135.037V116.157ZM930.34 127.437C930.34 128.824 930.767 129.81 931.62 130.397C932.527 130.984 933.78 131.277 935.38 131.277C936.18 131.277 937.007 131.224 937.86 131.117C938.713 130.957 939.46 130.77 940.1 130.557C940.58 131.144 940.98 131.81 941.3 132.557C941.673 133.25 941.86 134.104 941.86 135.117C941.86 137.144 941.087 138.797 939.54 140.077C938.047 141.357 935.38 141.997 931.54 141.997C926.847 141.997 923.22 140.93 920.66 138.797C918.153 136.664 916.9 133.197 916.9 128.397V94.1569C917.487 93.9969 918.313 93.8369 919.38 93.6769C920.5 93.4635 921.673 93.3569 922.9 93.3569C925.247 93.3569 927.06 93.7835 928.34 94.6369C929.673 95.4369 930.34 97.1702 930.34 99.8369V104.957H940.82C941.14 105.544 941.433 106.29 941.7 107.197C942.02 108.05 942.18 109.01 942.18 110.077C942.18 111.944 941.753 113.304 940.9 114.157C940.1 114.957 939.007 115.357 937.62 115.357H930.34V127.437ZM968.863 142.077C965.716 142.077 962.783 141.65 960.063 140.797C957.396 139.89 955.049 138.557 953.023 136.797C951.049 135.037 949.476 132.824 948.303 130.157C947.183 127.49 946.623 124.37 946.623 120.797C946.623 117.277 947.183 114.264 948.303 111.757C949.476 109.197 950.996 107.117 952.863 105.517C954.729 103.864 956.863 102.664 959.263 101.917C961.663 101.117 964.116 100.717 966.623 100.717C969.449 100.717 972.009 101.144 974.303 101.997C976.649 102.85 978.649 104.024 980.303 105.517C982.009 107.01 983.316 108.797 984.223 110.877C985.183 112.957 985.663 115.224 985.663 117.677C985.663 119.49 985.156 120.877 984.143 121.837C983.129 122.797 981.716 123.41 979.903 123.677L960.143 126.637C960.729 128.397 961.929 129.73 963.743 130.637C965.556 131.49 967.636 131.917 969.983 131.917C972.169 131.917 974.223 131.65 976.143 131.117C978.116 130.53 979.716 129.864 980.943 129.117C981.796 129.65 982.516 130.397 983.103 131.357C983.689 132.317 983.983 133.33 983.983 134.397C983.983 136.797 982.863 138.584 980.623 139.757C978.916 140.664 976.996 141.277 974.863 141.597C972.729 141.917 970.729 142.077 968.863 142.077ZM966.623 110.637C965.343 110.637 964.223 110.85 963.263 111.277C962.356 111.704 961.609 112.264 961.023 112.957C960.436 113.597 959.983 114.344 959.663 115.197C959.396 115.997 959.236 116.824 959.183 117.677L972.863 115.437C972.703 114.37 972.116 113.304 971.103 112.237C970.089 111.17 968.596 110.637 966.623 110.637ZM1016.85 116.157C1016.85 114.504 1016.37 113.304 1015.41 112.557C1014.5 111.757 1013.25 111.357 1011.65 111.357C1010.58 111.357 1009.52 111.49 1008.45 111.757C1007.44 112.024 1006.56 112.424 1005.81 112.957V140.717C1005.28 140.877 1004.42 141.037 1003.25 141.197C1002.13 141.357 1000.96 141.437 999.729 141.437C998.555 141.437 997.489 141.357 996.529 141.197C995.622 141.037 994.849 140.717 994.209 140.237C993.569 139.757 993.062 139.117 992.689 138.317C992.369 137.464 992.209 136.37 992.209 135.037V111.037C992.209 109.597 992.502 108.424 993.089 107.517C993.729 106.61 994.582 105.784 995.649 105.037C997.462 103.757 999.729 102.717 1002.45 101.917C1005.22 101.117 1008.29 100.717 1011.65 100.717C1017.68 100.717 1022.32 102.05 1025.57 104.717C1028.82 107.33 1030.45 110.984 1030.45 115.677V140.717C1029.92 140.877 1029.06 141.037 1027.89 141.197C1026.77 141.357 1025.6 141.437 1024.37 141.437C1023.2 141.437 1022.13 141.357 1021.17 141.197C1020.26 141.037 1019.49 140.717 1018.85 140.237C1018.21 139.757 1017.7 139.117 1017.33 138.317C1017.01 137.464 1016.85 136.37 1016.85 135.037V116.157ZM1052.45 127.437C1052.45 128.824 1052.88 129.81 1053.73 130.397C1054.64 130.984 1055.89 131.277 1057.49 131.277C1058.29 131.277 1059.12 131.224 1059.97 131.117C1060.82 130.957 1061.57 130.77 1062.21 130.557C1062.69 131.144 1063.09 131.81 1063.41 132.557C1063.78 133.25 1063.97 134.104 1063.97 135.117C1063.97 137.144 1063.2 138.797 1061.65 140.077C1060.16 141.357 1057.49 141.997 1053.65 141.997C1048.96 141.997 1045.33 140.93 1042.77 138.797C1040.26 136.664 1039.01 133.197 1039.01 128.397V94.1569C1039.6 93.9969 1040.42 93.8369 1041.49 93.6769C1042.61 93.4635 1043.78 93.3569 1045.01 93.3569C1047.36 93.3569 1049.17 93.7835 1050.45 94.6369C1051.78 95.4369 1052.45 97.1702 1052.45 99.8369V104.957H1062.93C1063.25 105.544 1063.54 106.29 1063.81 107.197C1064.13 108.05 1064.29 109.01 1064.29 110.077C1064.29 111.944 1063.86 113.304 1063.01 114.157C1062.21 114.957 1061.12 115.357 1059.73 115.357H1052.45V127.437ZM1070.56 91.1169C1070.56 89.0902 1071.23 87.3835 1072.56 85.9969C1073.95 84.6102 1075.76 83.9169 1078 83.9169C1080.24 83.9169 1082.03 84.6102 1083.36 85.9969C1084.75 87.3835 1085.44 89.0902 1085.44 91.1169C1085.44 93.1435 1084.75 94.8502 1083.36 96.2369C1082.03 97.6235 1080.24 98.3169 1078 98.3169C1075.76 98.3169 1073.95 97.6235 1072.56 96.2369C1071.23 94.8502 1070.56 93.1435 1070.56 91.1169ZM1084.8 140.717C1084.21 140.824 1083.33 140.957 1082.16 141.117C1081.04 141.33 1079.89 141.437 1078.72 141.437C1077.55 141.437 1076.48 141.357 1075.52 141.197C1074.61 141.037 1073.84 140.717 1073.2 140.237C1072.56 139.757 1072.05 139.117 1071.68 138.317C1071.36 137.464 1071.2 136.37 1071.2 135.037V102.477C1071.79 102.37 1072.64 102.237 1073.76 102.077C1074.93 101.864 1076.11 101.757 1077.28 101.757C1078.45 101.757 1079.49 101.837 1080.4 101.997C1081.36 102.157 1082.16 102.477 1082.8 102.957C1083.44 103.437 1083.92 104.104 1084.24 104.957C1084.61 105.757 1084.8 106.824 1084.8 108.157V140.717ZM1133.7 121.357C1133.7 124.664 1133.19 127.624 1132.18 130.237C1131.17 132.797 1129.73 134.957 1127.86 136.717C1126.05 138.477 1123.86 139.81 1121.3 140.717C1118.74 141.624 1115.89 142.077 1112.74 142.077C1109.59 142.077 1106.74 141.597 1104.18 140.637C1101.62 139.677 1099.41 138.317 1097.54 136.557C1095.73 134.744 1094.31 132.557 1093.3 129.997C1092.29 127.437 1091.78 124.557 1091.78 121.357C1091.78 118.21 1092.29 115.357 1093.3 112.797C1094.31 110.237 1095.73 108.077 1097.54 106.317C1099.41 104.504 1101.62 103.117 1104.18 102.157C1106.74 101.197 1109.59 100.717 1112.74 100.717C1115.89 100.717 1118.74 101.224 1121.3 102.237C1123.86 103.197 1126.05 104.584 1127.86 106.397C1129.73 108.157 1131.17 110.317 1132.18 112.877C1133.19 115.437 1133.7 118.264 1133.7 121.357ZM1105.7 121.357C1105.7 124.61 1106.31 127.117 1107.54 128.877C1108.82 130.584 1110.58 131.437 1112.82 131.437C1115.06 131.437 1116.77 130.557 1117.94 128.797C1119.17 127.037 1119.78 124.557 1119.78 121.357C1119.78 118.157 1119.17 115.704 1117.94 113.997C1116.71 112.237 1114.98 111.357 1112.74 111.357C1110.5 111.357 1108.77 112.237 1107.54 113.997C1106.31 115.704 1105.7 118.157 1105.7 121.357ZM1164.97 116.157C1164.97 114.504 1164.49 113.304 1163.53 112.557C1162.63 111.757 1161.37 111.357 1159.77 111.357C1158.71 111.357 1157.64 111.49 1156.57 111.757C1155.56 112.024 1154.68 112.424 1153.93 112.957V140.717C1153.4 140.877 1152.55 141.037 1151.37 141.197C1150.25 141.357 1149.08 141.437 1147.85 141.437C1146.68 141.437 1145.61 141.357 1144.65 141.197C1143.75 141.037 1142.97 140.717 1142.33 140.237C1141.69 139.757 1141.19 139.117 1140.81 138.317C1140.49 137.464 1140.33 136.37 1140.33 135.037V111.037C1140.33 109.597 1140.63 108.424 1141.21 107.517C1141.85 106.61 1142.71 105.784 1143.77 105.037C1145.59 103.757 1147.85 102.717 1150.57 101.917C1153.35 101.117 1156.41 100.717 1159.77 100.717C1165.8 100.717 1170.44 102.05 1173.69 104.717C1176.95 107.33 1178.57 110.984 1178.57 115.677V140.717C1178.04 140.877 1177.19 141.037 1176.01 141.197C1174.89 141.357 1173.72 141.437 1172.49 141.437C1171.32 141.437 1170.25 141.357 1169.29 141.197C1168.39 141.037 1167.61 140.717 1166.97 140.237C1166.33 139.757 1165.83 139.117 1165.45 138.317C1165.13 137.464 1164.97 136.37 1164.97 135.037V116.157Z" fill="black"/>
<rect x="1338.29" width="240" height="240" fill="#00723B"/>
<circle cx="1415.35" cy="77.0571" r="43.3227" fill="#FFCA00"/>
<circle cx="1415.35" cy="163.706" r="43.3227" fill="#FFCA00"/>
<circle cx="1501.99" cy="77.0571" r="43.3227" fill="#FFCA00"/>
<circle cx="1501.99" cy="163.706" r="43.3227" fill="#FFCA00"/>
<path d="M1752.88 130.397C1753.46 130.504 1754.18 130.61 1755.04 130.717C1755.89 130.77 1756.69 130.797 1757.44 130.797C1759.25 130.797 1760.9 130.53 1762.4 129.997C1763.94 129.464 1765.25 128.637 1766.32 127.517C1767.44 126.397 1768.29 124.957 1768.88 123.197C1769.52 121.384 1769.84 119.224 1769.84 116.717C1769.84 111.917 1768.72 108.317 1766.48 105.917C1764.24 103.464 1761.25 102.237 1757.52 102.237C1756.77 102.237 1756 102.264 1755.2 102.317C1754.45 102.37 1753.68 102.45 1752.88 102.557V130.397ZM1757.36 142.077C1756.45 142.077 1755.41 142.05 1754.24 141.997C1753.06 141.944 1751.84 141.837 1750.56 141.677C1749.33 141.517 1748.08 141.304 1746.8 141.037C1745.57 140.824 1744.42 140.504 1743.36 140.077C1740.42 138.957 1738.96 137.01 1738.96 134.237V96.8769C1738.96 95.7569 1739.25 94.9035 1739.84 94.3169C1740.48 93.6769 1741.33 93.1702 1742.4 92.7969C1744.69 92.0502 1747.12 91.5702 1749.68 91.3569C1752.24 91.0902 1754.53 90.9569 1756.56 90.9569C1760.72 90.9569 1764.48 91.4635 1767.84 92.4769C1771.25 93.4902 1774.16 95.0635 1776.56 97.1969C1779.01 99.2769 1780.9 101.917 1782.24 105.117C1783.57 108.317 1784.24 112.104 1784.24 116.477C1784.24 120.744 1783.6 124.477 1782.32 127.677C1781.04 130.824 1779.2 133.49 1776.8 135.677C1774.45 137.81 1771.62 139.41 1768.32 140.477C1765.01 141.544 1761.36 142.077 1757.36 142.077ZM1811.76 142.077C1808.61 142.077 1805.68 141.65 1802.96 140.797C1800.29 139.89 1797.94 138.557 1795.92 136.797C1793.94 135.037 1792.37 132.824 1791.2 130.157C1790.08 127.49 1789.52 124.37 1789.52 120.797C1789.52 117.277 1790.08 114.264 1791.2 111.757C1792.37 109.197 1793.89 107.117 1795.76 105.517C1797.62 103.864 1799.76 102.664 1802.16 101.917C1804.56 101.117 1807.01 100.717 1809.52 100.717C1812.34 100.717 1814.9 101.144 1817.2 101.997C1819.54 102.85 1821.54 104.024 1823.2 105.517C1824.9 107.01 1826.21 108.797 1827.12 110.877C1828.08 112.957 1828.56 115.224 1828.56 117.677C1828.56 119.49 1828.05 120.877 1827.04 121.837C1826.02 122.797 1824.61 123.41 1822.8 123.677L1803.04 126.637C1803.62 128.397 1804.82 129.73 1806.64 130.637C1808.45 131.49 1810.53 131.917 1812.88 131.917C1815.06 131.917 1817.12 131.65 1819.04 131.117C1821.01 130.53 1822.61 129.864 1823.84 129.117C1824.69 129.65 1825.41 130.397 1826 131.357C1826.58 132.317 1826.88 133.33 1826.88 134.397C1826.88 136.797 1825.76 138.584 1823.52 139.757C1821.81 140.664 1819.89 141.277 1817.76 141.597C1815.62 141.917 1813.62 142.077 1811.76 142.077ZM1809.52 110.637C1808.24 110.637 1807.12 110.85 1806.16 111.277C1805.25 111.704 1804.5 112.264 1803.92 112.957C1803.33 113.597 1802.88 114.344 1802.56 115.197C1802.29 115.997 1802.13 116.824 1802.08 117.677L1815.76 115.437C1815.6 114.37 1815.01 113.304 1814 112.237C1812.98 111.17 1811.49 110.637 1809.52 110.637ZM1867.9 129.197C1867.9 133.25 1866.38 136.424 1863.34 138.717C1860.3 141.01 1855.82 142.157 1849.9 142.157C1847.66 142.157 1845.58 141.997 1843.66 141.677C1841.74 141.357 1840.09 140.877 1838.7 140.237C1837.37 139.544 1836.3 138.69 1835.5 137.677C1834.76 136.664 1834.38 135.464 1834.38 134.077C1834.38 132.797 1834.65 131.73 1835.18 130.877C1835.72 129.97 1836.36 129.224 1837.1 128.637C1838.65 129.49 1840.41 130.264 1842.38 130.957C1844.41 131.597 1846.73 131.917 1849.34 131.917C1851 131.917 1852.25 131.677 1853.1 131.197C1854.01 130.717 1854.46 130.077 1854.46 129.277C1854.46 128.53 1854.14 127.944 1853.5 127.517C1852.86 127.09 1851.8 126.744 1850.3 126.477L1847.9 125.997C1843.26 125.09 1839.8 123.677 1837.5 121.757C1835.26 119.784 1834.14 116.984 1834.14 113.357C1834.14 111.384 1834.57 109.597 1835.42 107.997C1836.28 106.397 1837.48 105.064 1839.02 103.997C1840.57 102.93 1842.41 102.104 1844.54 101.517C1846.73 100.93 1849.13 100.637 1851.74 100.637C1853.72 100.637 1855.56 100.797 1857.26 101.117C1859.02 101.384 1860.54 101.81 1861.82 102.397C1863.1 102.984 1864.12 103.757 1864.86 104.717C1865.61 105.624 1865.98 106.717 1865.98 107.997C1865.98 109.224 1865.74 110.29 1865.26 111.197C1864.84 112.05 1864.28 112.77 1863.58 113.357C1863.16 113.09 1862.52 112.824 1861.66 112.557C1860.81 112.237 1859.88 111.97 1858.86 111.757C1857.85 111.49 1856.81 111.277 1855.74 111.117C1854.73 110.957 1853.8 110.877 1852.94 110.877C1851.18 110.877 1849.82 111.09 1848.86 111.517C1847.9 111.89 1847.42 112.504 1847.42 113.357C1847.42 113.944 1847.69 114.424 1848.22 114.797C1848.76 115.17 1849.77 115.517 1851.26 115.837L1853.74 116.397C1858.86 117.57 1862.49 119.197 1864.62 121.277C1866.81 123.304 1867.9 125.944 1867.9 129.197ZM1874.16 91.1169C1874.16 89.0902 1874.83 87.3835 1876.16 85.9969C1877.55 84.6102 1879.36 83.9169 1881.6 83.9169C1883.84 83.9169 1885.63 84.6102 1886.96 85.9969C1888.35 87.3835 1889.04 89.0902 1889.04 91.1169C1889.04 93.1435 1888.35 94.8502 1886.96 96.2369C1885.63 97.6235 1883.84 98.3169 1881.6 98.3169C1879.36 98.3169 1877.55 97.6235 1876.16 96.2369C1874.83 94.8502 1874.16 93.1435 1874.16 91.1169ZM1888.4 140.717C1887.81 140.824 1886.93 140.957 1885.76 141.117C1884.64 141.33 1883.49 141.437 1882.32 141.437C1881.15 141.437 1880.08 141.357 1879.12 141.197C1878.21 141.037 1877.44 140.717 1876.8 140.237C1876.16 139.757 1875.65 139.117 1875.28 138.317C1874.96 137.464 1874.8 136.37 1874.8 135.037V102.477C1875.39 102.37 1876.24 102.237 1877.36 102.077C1878.53 101.864 1879.71 101.757 1880.88 101.757C1882.05 101.757 1883.09 101.837 1884 101.997C1884.96 102.157 1885.76 102.477 1886.4 102.957C1887.04 103.437 1887.52 104.104 1887.84 104.957C1888.21 105.757 1888.4 106.824 1888.4 108.157V140.717ZM1916.02 100.717C1919.06 100.717 1921.8 101.117 1924.26 101.917C1926.76 102.664 1928.87 103.65 1930.58 104.877C1931.64 105.624 1932.47 106.45 1933.06 107.357C1933.7 108.264 1934.02 109.437 1934.02 110.877V138.877C1934.02 141.704 1933.48 144.13 1932.42 146.157C1931.35 148.237 1929.88 149.944 1928.02 151.277C1926.2 152.664 1924.04 153.677 1921.54 154.317C1919.08 154.957 1916.44 155.277 1913.62 155.277C1908.76 155.277 1904.95 154.61 1902.18 153.277C1899.4 151.997 1898.02 149.89 1898.02 146.957C1898.02 145.73 1898.26 144.637 1898.74 143.677C1899.27 142.77 1899.86 142.077 1900.5 141.597C1902.04 142.45 1903.78 143.17 1905.7 143.757C1907.67 144.344 1909.7 144.637 1911.78 144.637C1914.66 144.637 1916.95 144.157 1918.66 143.197C1920.36 142.237 1921.22 140.69 1921.22 138.557V137.277C1919.03 138.237 1916.36 138.717 1913.22 138.717C1910.82 138.717 1908.52 138.37 1906.34 137.677C1904.2 136.93 1902.31 135.81 1900.66 134.317C1899.06 132.77 1897.75 130.797 1896.74 128.397C1895.78 125.997 1895.3 123.144 1895.3 119.837C1895.3 116.584 1895.8 113.757 1896.82 111.357C1897.88 108.957 1899.32 106.984 1901.14 105.437C1903 103.837 1905.19 102.664 1907.7 101.917C1910.26 101.117 1913.03 100.717 1916.02 100.717ZM1920.98 112.317C1920.6 112.104 1920.04 111.89 1919.3 111.677C1918.6 111.464 1917.72 111.357 1916.66 111.357C1914.04 111.357 1912.07 112.104 1910.74 113.597C1909.46 115.037 1908.82 117.117 1908.82 119.837C1908.82 122.93 1909.46 125.17 1910.74 126.557C1912.07 127.89 1913.75 128.557 1915.78 128.557C1917.96 128.557 1919.7 128.05 1920.98 127.037V112.317ZM1967.09 116.157C1967.09 114.504 1966.61 113.304 1965.65 112.557C1964.74 111.757 1963.49 111.357 1961.89 111.357C1960.82 111.357 1959.75 111.49 1958.69 111.757C1957.67 112.024 1956.79 112.424 1956.05 112.957V140.717C1955.51 140.877 1954.66 141.037 1953.49 141.197C1952.37 141.357 1951.19 141.437 1949.97 141.437C1948.79 141.437 1947.73 141.357 1946.77 141.197C1945.86 141.037 1945.09 140.717 1944.45 140.237C1943.81 139.757 1943.3 139.117 1942.93 138.317C1942.61 137.464 1942.45 136.37 1942.45 135.037V111.037C1942.45 109.597 1942.74 108.424 1943.33 107.517C1943.97 106.61 1944.82 105.784 1945.89 105.037C1947.7 103.757 1949.97 102.717 1952.69 101.917C1955.46 101.117 1958.53 100.717 1961.89 100.717C1967.91 100.717 1972.55 102.05 1975.81 104.717C1979.06 107.33 1980.69 110.984 1980.69 115.677V140.717C1980.15 140.877 1979.3 141.037 1978.13 141.197C1977.01 141.357 1975.83 141.437 1974.61 141.437C1973.43 141.437 1972.37 141.357 1971.41 141.197C1970.5 141.037 1969.73 140.717 1969.09 140.237C1968.45 139.757 1967.94 139.117 1967.57 138.317C1967.25 137.464 1967.09 136.37 1967.09 135.037V116.157ZM2027.26 139.597C2026.52 140.237 2025.5 140.744 2024.22 141.117C2022.94 141.544 2021.42 141.757 2019.66 141.757C2017.48 141.757 2015.58 141.437 2013.98 140.797C2012.38 140.21 2011.32 139.357 2010.78 138.237C2010.2 136.957 2009.5 134.93 2008.7 132.157C2007.96 129.384 2007.21 126.344 2006.46 123.037C2005.72 119.73 2005 116.37 2004.3 112.957C2003.66 109.544 2003.16 106.53 2002.78 103.917C2003.53 103.17 2004.52 102.53 2005.74 101.997C2007.02 101.41 2008.41 101.117 2009.9 101.117C2011.77 101.117 2013.29 101.544 2014.46 102.397C2015.69 103.197 2016.44 104.61 2016.7 106.637C2017.24 110.69 2017.69 114.05 2018.06 116.717C2018.44 119.33 2018.73 121.49 2018.94 123.197C2019.21 124.85 2019.4 126.13 2019.5 127.037C2019.66 127.89 2019.8 128.584 2019.9 129.117H2020.22C2020.38 128.264 2020.65 127.037 2021.02 125.437C2021.45 123.784 2021.93 121.917 2022.46 119.837C2023 117.757 2023.56 115.517 2024.14 113.117C2024.73 110.664 2025.32 108.237 2025.9 105.837C2026.97 105.25 2028.01 104.797 2029.02 104.477C2030.09 104.157 2031.4 103.997 2032.94 103.997C2034.81 103.997 2036.41 104.29 2037.74 104.877C2039.08 105.464 2039.93 106.37 2040.3 107.597C2040.94 109.944 2041.56 112.237 2042.14 114.477C2042.73 116.664 2043.26 118.717 2043.74 120.637C2044.22 122.504 2044.65 124.184 2045.02 125.677C2045.4 127.117 2045.66 128.264 2045.82 129.117H2046.22C2046.81 125.01 2047.37 120.744 2047.9 116.317C2048.49 111.89 2049.02 107.384 2049.5 102.797C2050.46 102.21 2051.48 101.784 2052.54 101.517C2053.61 101.25 2054.68 101.117 2055.74 101.117C2057.61 101.117 2059.16 101.517 2060.38 102.317C2061.61 103.117 2062.22 104.504 2062.22 106.477C2062.22 107.33 2062.09 108.61 2061.82 110.317C2061.56 112.024 2061.21 113.944 2060.78 116.077C2060.36 118.21 2059.85 120.45 2059.26 122.797C2058.73 125.144 2058.17 127.41 2057.58 129.597C2057.05 131.784 2056.52 133.757 2055.98 135.517C2055.5 137.277 2055.08 138.637 2054.7 139.597C2053.96 140.237 2052.81 140.744 2051.26 141.117C2049.72 141.544 2048.06 141.757 2046.3 141.757C2041.82 141.757 2039.18 140.637 2038.38 138.397C2038.06 137.437 2037.66 136.237 2037.18 134.797C2036.7 133.304 2036.2 131.677 2035.66 129.917C2035.13 128.157 2034.62 126.344 2034.14 124.477C2033.66 122.557 2033.26 120.717 2032.94 118.957C2032.57 120.824 2032.12 122.77 2031.58 124.797C2031.05 126.77 2030.49 128.717 2029.9 130.637C2029.37 132.504 2028.86 134.237 2028.38 135.837C2027.9 137.384 2027.53 138.637 2027.26 139.597ZM2068.06 91.1169C2068.06 89.0902 2068.73 87.3835 2070.06 85.9969C2071.45 84.6102 2073.26 83.9169 2075.5 83.9169C2077.74 83.9169 2079.53 84.6102 2080.86 85.9969C2082.25 87.3835 2082.94 89.0902 2082.94 91.1169C2082.94 93.1435 2082.25 94.8502 2080.86 96.2369C2079.53 97.6235 2077.74 98.3169 2075.5 98.3169C2073.26 98.3169 2071.45 97.6235 2070.06 96.2369C2068.73 94.8502 2068.06 93.1435 2068.06 91.1169ZM2082.3 140.717C2081.72 140.824 2080.84 140.957 2079.66 141.117C2078.54 141.33 2077.4 141.437 2076.22 141.437C2075.05 141.437 2073.98 141.357 2073.02 141.197C2072.12 141.037 2071.34 140.717 2070.7 140.237C2070.06 139.757 2069.56 139.117 2069.18 138.317C2068.86 137.464 2068.7 136.37 2068.7 135.037V102.477C2069.29 102.37 2070.14 102.237 2071.26 102.077C2072.44 101.864 2073.61 101.757 2074.78 101.757C2075.96 101.757 2077 101.837 2077.9 101.997C2078.86 102.157 2079.66 102.477 2080.3 102.957C2080.94 103.437 2081.42 104.104 2081.74 104.957C2082.12 105.757 2082.3 106.824 2082.3 108.157V140.717ZM2104.56 127.437C2104.56 128.824 2104.99 129.81 2105.84 130.397C2106.75 130.984 2108 131.277 2109.6 131.277C2110.4 131.277 2111.23 131.224 2112.08 131.117C2112.94 130.957 2113.68 130.77 2114.32 130.557C2114.8 131.144 2115.2 131.81 2115.52 132.557C2115.9 133.25 2116.08 134.104 2116.08 135.117C2116.08 137.144 2115.31 138.797 2113.76 140.077C2112.27 141.357 2109.6 141.997 2105.76 141.997C2101.07 141.997 2097.44 140.93 2094.88 138.797C2092.38 136.664 2091.12 133.197 2091.12 128.397V94.1569C2091.71 93.9969 2092.54 93.8369 2093.6 93.6769C2094.72 93.4635 2095.9 93.3569 2097.12 93.3569C2099.47 93.3569 2101.28 93.7835 2102.56 94.6369C2103.9 95.4369 2104.56 97.1702 2104.56 99.8369V104.957H2115.04C2115.36 105.544 2115.66 106.29 2115.92 107.197C2116.24 108.05 2116.4 109.01 2116.4 110.077C2116.4 111.944 2115.98 113.304 2115.12 114.157C2114.32 114.957 2113.23 115.357 2111.84 115.357H2104.56V127.437ZM2161.39 140.717C2160.86 140.877 2160.01 141.037 2158.83 141.197C2157.71 141.357 2156.54 141.437 2155.31 141.437C2154.14 141.437 2153.07 141.357 2152.11 141.197C2151.21 141.037 2150.43 140.717 2149.79 140.237C2149.15 139.757 2148.65 139.117 2148.27 138.317C2147.95 137.464 2147.79 136.37 2147.79 135.037V117.277C2147.79 115.09 2147.23 113.57 2146.11 112.717C2145.05 111.81 2143.71 111.357 2142.11 111.357C2141.05 111.357 2140.03 111.49 2139.07 111.757C2138.11 112.024 2137.34 112.344 2136.75 112.717V140.717C2136.22 140.877 2135.37 141.037 2134.19 141.197C2133.07 141.357 2131.9 141.437 2130.67 141.437C2129.5 141.437 2128.43 141.357 2127.47 141.197C2126.57 141.037 2125.79 140.717 2125.15 140.237C2124.51 139.757 2124.01 139.117 2123.63 138.317C2123.31 137.464 2123.15 136.37 2123.15 135.037V88.6369C2123.74 88.5302 2124.59 88.3969 2125.71 88.2369C2126.89 88.0235 2128.06 87.9169 2129.23 87.9169C2130.41 87.9169 2131.45 87.9969 2132.35 88.1569C2133.31 88.3169 2134.11 88.6369 2134.75 89.1169C2135.39 89.5969 2135.87 90.2635 2136.19 91.1169C2136.57 91.9169 2136.75 92.9835 2136.75 94.3169V102.157C2137.45 101.89 2138.49 101.597 2139.87 101.277C2141.31 100.904 2142.89 100.717 2144.59 100.717C2149.87 100.717 2153.98 102.05 2156.91 104.717C2159.9 107.33 2161.39 111.25 2161.39 116.477V140.717ZM2185.49 91.1169C2185.49 89.0902 2186.15 87.3835 2187.49 85.9969C2188.87 84.6102 2190.69 83.9169 2192.93 83.9169C2195.17 83.9169 2196.95 84.6102 2198.29 85.9969C2199.67 87.3835 2200.37 89.0902 2200.37 91.1169C2200.37 93.1435 2199.67 94.8502 2198.29 96.2369C2196.95 97.6235 2195.17 98.3169 2192.93 98.3169C2190.69 98.3169 2188.87 97.6235 2187.49 96.2369C2186.15 94.8502 2185.49 93.1435 2185.49 91.1169ZM2199.73 140.717C2199.14 140.824 2198.26 140.957 2197.09 141.117C2195.97 141.33 2194.82 141.437 2193.65 141.437C2192.47 141.437 2191.41 141.357 2190.45 141.197C2189.54 141.037 2188.77 140.717 2188.13 140.237C2187.49 139.757 2186.98 139.117 2186.61 138.317C2186.29 137.464 2186.13 136.37 2186.13 135.037V102.477C2186.71 102.37 2187.57 102.237 2188.69 102.077C2189.86 101.864 2191.03 101.757 2192.21 101.757C2193.38 101.757 2194.42 101.837 2195.33 101.997C2196.29 102.157 2197.09 102.477 2197.73 102.957C2198.37 103.437 2198.85 104.104 2199.17 104.957C2199.54 105.757 2199.73 106.824 2199.73 108.157V140.717ZM2233.02 116.157C2233.02 114.504 2232.54 113.304 2231.58 112.557C2230.68 111.757 2229.42 111.357 2227.82 111.357C2226.76 111.357 2225.69 111.49 2224.62 111.757C2223.61 112.024 2222.73 112.424 2221.98 112.957V140.717C2221.45 140.877 2220.6 141.037 2219.42 141.197C2218.3 141.357 2217.13 141.437 2215.9 141.437C2214.73 141.437 2213.66 141.357 2212.7 141.197C2211.8 141.037 2211.02 140.717 2210.38 140.237C2209.74 139.757 2209.24 139.117 2208.86 138.317C2208.54 137.464 2208.38 136.37 2208.38 135.037V111.037C2208.38 109.597 2208.68 108.424 2209.26 107.517C2209.9 106.61 2210.76 105.784 2211.82 105.037C2213.64 103.757 2215.9 102.717 2218.62 101.917C2221.4 101.117 2224.46 100.717 2227.82 100.717C2233.85 100.717 2238.49 102.05 2241.74 104.717C2245 107.33 2246.62 110.984 2246.62 115.677V140.717C2246.09 140.877 2245.24 141.037 2244.06 141.197C2242.94 141.357 2241.77 141.437 2240.54 141.437C2239.37 141.437 2238.3 141.357 2237.34 141.197C2236.44 141.037 2235.66 140.717 2235.02 140.237C2234.38 139.757 2233.88 139.117 2233.5 138.317C2233.18 137.464 2233.02 136.37 2233.02 135.037V116.157ZM2268.63 127.437C2268.63 128.824 2269.05 129.81 2269.91 130.397C2270.81 130.984 2272.07 131.277 2273.67 131.277C2274.47 131.277 2275.29 131.224 2276.15 131.117C2277 130.957 2277.75 130.77 2278.39 130.557C2278.87 131.144 2279.27 131.81 2279.59 132.557C2279.96 133.25 2280.15 134.104 2280.15 135.117C2280.15 137.144 2279.37 138.797 2277.83 140.077C2276.33 141.357 2273.67 141.997 2269.83 141.997C2265.13 141.997 2261.51 140.93 2258.95 138.797C2256.44 136.664 2255.19 133.197 2255.19 128.397V94.1569C2255.77 93.9969 2256.6 93.8369 2257.67 93.6769C2258.79 93.4635 2259.96 93.3569 2261.19 93.3569C2263.53 93.3569 2265.35 93.7835 2266.63 94.6369C2267.96 95.4369 2268.63 97.1702 2268.63 99.8369V104.957H2279.11C2279.43 105.544 2279.72 106.29 2279.99 107.197C2280.31 108.05 2280.47 109.01 2280.47 110.077C2280.47 111.944 2280.04 113.304 2279.19 114.157C2278.39 114.957 2277.29 115.357 2275.91 115.357H2268.63V127.437ZM2307.15 142.077C2304 142.077 2301.07 141.65 2298.35 140.797C2295.68 139.89 2293.33 138.557 2291.31 136.797C2289.33 135.037 2287.76 132.824 2286.59 130.157C2285.47 127.49 2284.91 124.37 2284.91 120.797C2284.91 117.277 2285.47 114.264 2286.59 111.757C2287.76 109.197 2289.28 107.117 2291.15 105.517C2293.01 103.864 2295.15 102.664 2297.55 101.917C2299.95 101.117 2302.4 100.717 2304.91 100.717C2307.73 100.717 2310.29 101.144 2312.59 101.997C2314.93 102.85 2316.93 104.024 2318.59 105.517C2320.29 107.01 2321.6 108.797 2322.51 110.877C2323.47 112.957 2323.95 115.224 2323.95 117.677C2323.95 119.49 2323.44 120.877 2322.43 121.837C2321.41 122.797 2320 123.41 2318.19 123.677L2298.43 126.637C2299.01 128.397 2300.21 129.73 2302.03 130.637C2303.84 131.49 2305.92 131.917 2308.27 131.917C2310.45 131.917 2312.51 131.65 2314.43 131.117C2316.4 130.53 2318 129.864 2319.23 129.117C2320.08 129.65 2320.8 130.397 2321.39 131.357C2321.97 132.317 2322.27 133.33 2322.27 134.397C2322.27 136.797 2321.15 138.584 2318.91 139.757C2317.2 140.664 2315.28 141.277 2313.15 141.597C2311.01 141.917 2309.01 142.077 2307.15 142.077ZM2304.91 110.637C2303.63 110.637 2302.51 110.85 2301.55 111.277C2300.64 111.704 2299.89 112.264 2299.31 112.957C2298.72 113.597 2298.27 114.344 2297.95 115.197C2297.68 115.997 2297.52 116.824 2297.47 117.677L2311.15 115.437C2310.99 114.37 2310.4 113.304 2309.39 112.237C2308.37 111.17 2306.88 110.637 2304.91 110.637ZM2355.13 116.157C2355.13 114.504 2354.65 113.304 2353.69 112.557C2352.79 111.757 2351.53 111.357 2349.93 111.357C2348.87 111.357 2347.8 111.49 2346.73 111.757C2345.72 112.024 2344.84 112.424 2344.09 112.957V140.717C2343.56 140.877 2342.71 141.037 2341.53 141.197C2340.41 141.357 2339.24 141.437 2338.01 141.437C2336.84 141.437 2335.77 141.357 2334.81 141.197C2333.91 141.037 2333.13 140.717 2332.49 140.237C2331.85 139.757 2331.35 139.117 2330.97 138.317C2330.65 137.464 2330.49 136.37 2330.49 135.037V111.037C2330.49 109.597 2330.79 108.424 2331.37 107.517C2332.01 106.61 2332.87 105.784 2333.93 105.037C2335.75 103.757 2338.01 102.717 2340.73 101.917C2343.51 101.117 2346.57 100.717 2349.93 100.717C2355.96 100.717 2360.6 102.05 2363.85 104.717C2367.11 107.33 2368.73 110.984 2368.73 115.677V140.717C2368.2 140.877 2367.35 141.037 2366.17 141.197C2365.05 141.357 2363.88 141.437 2362.65 141.437C2361.48 141.437 2360.41 141.357 2359.45 141.197C2358.55 141.037 2357.77 140.717 2357.13 140.237C2356.49 139.757 2355.99 139.117 2355.61 138.317C2355.29 137.464 2355.13 136.37 2355.13 135.037V116.157ZM2390.73 127.437C2390.73 128.824 2391.16 129.81 2392.01 130.397C2392.92 130.984 2394.17 131.277 2395.77 131.277C2396.57 131.277 2397.4 131.224 2398.25 131.117C2399.11 130.957 2399.85 130.77 2400.49 130.557C2400.97 131.144 2401.37 131.81 2401.69 132.557C2402.07 133.25 2402.25 134.104 2402.25 135.117C2402.25 137.144 2401.48 138.797 2399.93 140.077C2398.44 141.357 2395.77 141.997 2391.93 141.997C2387.24 141.997 2383.61 140.93 2381.05 138.797C2378.55 136.664 2377.29 133.197 2377.29 128.397V94.1569C2377.88 93.9969 2378.71 93.8369 2379.77 93.6769C2380.89 93.4635 2382.07 93.3569 2383.29 93.3569C2385.64 93.3569 2387.45 93.7835 2388.73 94.6369C2390.07 95.4369 2390.73 97.1702 2390.73 99.8369V104.957H2401.21C2401.53 105.544 2401.83 106.29 2402.09 107.197C2402.41 108.05 2402.57 109.01 2402.57 110.077C2402.57 111.944 2402.15 113.304 2401.29 114.157C2400.49 114.957 2399.4 115.357 2398.01 115.357H2390.73V127.437ZM2408.85 91.1169C2408.85 89.0902 2409.51 87.3835 2410.85 85.9969C2412.23 84.6102 2414.05 83.9169 2416.29 83.9169C2418.53 83.9169 2420.31 84.6102 2421.65 85.9969C2423.03 87.3835 2423.73 89.0902 2423.73 91.1169C2423.73 93.1435 2423.03 94.8502 2421.65 96.2369C2420.31 97.6235 2418.53 98.3169 2416.29 98.3169C2414.05 98.3169 2412.23 97.6235 2410.85 96.2369C2409.51 94.8502 2408.85 93.1435 2408.85 91.1169ZM2423.09 140.717C2422.5 140.824 2421.62 140.957 2420.45 141.117C2419.33 141.33 2418.18 141.437 2417.01 141.437C2415.83 141.437 2414.77 141.357 2413.81 141.197C2412.9 141.037 2412.13 140.717 2411.49 140.237C2410.85 139.757 2410.34 139.117 2409.97 138.317C2409.65 137.464 2409.49 136.37 2409.49 135.037V102.477C2410.07 102.37 2410.93 102.237 2412.05 102.077C2413.22 101.864 2414.39 101.757 2415.57 101.757C2416.74 101.757 2417.78 101.837 2418.69 101.997C2419.65 102.157 2420.45 102.477 2421.09 102.957C2421.73 103.437 2422.21 104.104 2422.53 104.957C2422.9 105.757 2423.09 106.824 2423.09 108.157V140.717ZM2471.98 121.357C2471.98 124.664 2471.48 127.624 2470.46 130.237C2469.45 132.797 2468.01 134.957 2466.14 136.717C2464.33 138.477 2462.14 139.81 2459.58 140.717C2457.02 141.624 2454.17 142.077 2451.02 142.077C2447.88 142.077 2445.02 141.597 2442.46 140.637C2439.9 139.677 2437.69 138.317 2435.82 136.557C2434.01 134.744 2432.6 132.557 2431.58 129.997C2430.57 127.437 2430.06 124.557 2430.06 121.357C2430.06 118.21 2430.57 115.357 2431.58 112.797C2432.6 110.237 2434.01 108.077 2435.82 106.317C2437.69 104.504 2439.9 103.117 2442.46 102.157C2445.02 101.197 2447.88 100.717 2451.02 100.717C2454.17 100.717 2457.02 101.224 2459.58 102.237C2462.14 103.197 2464.33 104.584 2466.14 106.397C2468.01 108.157 2469.45 110.317 2470.46 112.877C2471.48 115.437 2471.98 118.264 2471.98 121.357ZM2443.98 121.357C2443.98 124.61 2444.6 127.117 2445.82 128.877C2447.1 130.584 2448.86 131.437 2451.1 131.437C2453.34 131.437 2455.05 130.557 2456.22 128.797C2457.45 127.037 2458.06 124.557 2458.06 121.357C2458.06 118.157 2457.45 115.704 2456.22 113.997C2455 112.237 2453.26 111.357 2451.02 111.357C2448.78 111.357 2447.05 112.237 2445.82 113.997C2444.6 115.704 2443.98 118.157 2443.98 121.357ZM2503.26 116.157C2503.26 114.504 2502.78 113.304 2501.82 112.557C2500.91 111.757 2499.66 111.357 2498.06 111.357C2496.99 111.357 2495.93 111.49 2494.86 111.757C2493.85 112.024 2492.97 112.424 2492.22 112.957V140.717C2491.69 140.877 2490.83 141.037 2489.66 141.197C2488.54 141.357 2487.37 141.437 2486.14 141.437C2484.97 141.437 2483.9 141.357 2482.94 141.197C2482.03 141.037 2481.26 140.717 2480.62 140.237C2479.98 139.757 2479.47 139.117 2479.1 138.317C2478.78 137.464 2478.62 136.37 2478.62 135.037V111.037C2478.62 109.597 2478.91 108.424 2479.5 107.517C2480.14 106.61 2480.99 105.784 2482.06 105.037C2483.87 103.757 2486.14 102.717 2488.86 101.917C2491.63 101.117 2494.7 100.717 2498.06 100.717C2504.09 100.717 2508.73 102.05 2511.98 104.717C2515.23 107.33 2516.86 110.984 2516.86 115.677V140.717C2516.33 140.877 2515.47 141.037 2514.3 141.197C2513.18 141.357 2512.01 141.437 2510.78 141.437C2509.61 141.437 2508.54 141.357 2507.58 141.197C2506.67 141.037 2505.9 140.717 2505.26 140.237C2504.62 139.757 2504.11 139.117 2503.74 138.317C2503.42 137.464 2503.26 136.37 2503.26 135.037V116.157Z" fill="black"/>
<rect x="2676.57" width="240" height="240" fill="#5434E2"/>
<path d="M2789.23 44.1072C2792.03 38.3502 2800.23 38.3501 2803.03 44.1072L2810.11 58.6773C2812.01 62.5899 2816.78 64.14 2820.61 62.0916L2834.9 54.4637C2840.55 51.4496 2847.18 56.2708 2846.06 62.5719L2843.22 78.5188C2842.46 82.8011 2845.41 86.8594 2849.72 87.4576L2865.76 89.6854C2872.1 90.5656 2874.64 98.3664 2870.03 102.805L2858.35 114.037C2855.22 117.054 2855.22 122.07 2858.35 125.086L2870.03 136.319C2874.64 140.757 2872.1 148.558 2865.76 149.438L2849.72 151.666C2845.41 152.264 2842.46 156.323 2843.22 160.605L2846.06 176.552C2847.18 182.853 2840.55 187.674 2834.9 184.66L2820.61 177.032C2816.78 174.984 2812.01 176.534 2810.11 180.446L2803.03 195.016C2800.23 200.773 2792.03 200.773 2789.23 195.016L2782.16 180.446C2780.26 176.534 2775.49 174.984 2771.65 177.032L2757.36 184.66C2751.71 187.674 2745.08 182.853 2746.2 176.552L2749.04 160.605C2749.8 156.323 2746.85 152.264 2742.55 151.666L2726.5 149.438C2720.16 148.558 2717.63 140.757 2722.24 136.319L2733.91 125.086C2737.04 122.07 2737.04 117.054 2733.91 114.037L2722.24 102.805C2717.63 98.3664 2720.16 90.5656 2726.5 89.6854L2742.55 87.4576C2746.85 86.8594 2749.8 82.8011 2749.04 78.5188L2746.2 62.5719C2745.08 56.2708 2751.71 51.4496 2757.36 54.4637L2771.65 62.0916C2775.49 64.14 2780.26 62.5899 2782.16 58.6773L2789.23 44.1072Z" fill="#CDDC39"/>
<path d="M3091.16 130.397C3091.75 130.504 3092.47 130.61 3093.32 130.717C3094.18 130.77 3094.98 130.797 3095.72 130.797C3097.54 130.797 3099.19 130.53 3100.68 129.997C3102.23 129.464 3103.54 128.637 3104.6 127.517C3105.72 126.397 3106.58 124.957 3107.16 123.197C3107.8 121.384 3108.12 119.224 3108.12 116.717C3108.12 111.917 3107 108.317 3104.76 105.917C3102.52 103.464 3099.54 102.237 3095.8 102.237C3095.06 102.237 3094.28 102.264 3093.48 102.317C3092.74 102.37 3091.96 102.45 3091.16 102.557V130.397ZM3095.64 142.077C3094.74 142.077 3093.7 142.05 3092.52 141.997C3091.35 141.944 3090.12 141.837 3088.84 141.677C3087.62 141.517 3086.36 141.304 3085.08 141.037C3083.86 140.824 3082.71 140.504 3081.64 140.077C3078.71 138.957 3077.24 137.01 3077.24 134.237V96.8769C3077.24 95.7569 3077.54 94.9035 3078.12 94.3169C3078.76 93.6769 3079.62 93.1702 3080.68 92.7969C3082.98 92.0502 3085.4 91.5702 3087.96 91.3569C3090.52 91.0902 3092.82 90.9569 3094.84 90.9569C3099 90.9569 3102.76 91.4635 3106.12 92.4769C3109.54 93.4902 3112.44 95.0635 3114.84 97.1969C3117.3 99.2769 3119.19 101.917 3120.52 105.117C3121.86 108.317 3122.52 112.104 3122.52 116.477C3122.52 120.744 3121.88 124.477 3120.6 127.677C3119.32 130.824 3117.48 133.49 3115.08 135.677C3112.74 137.81 3109.91 139.41 3106.6 140.477C3103.3 141.544 3099.64 142.077 3095.64 142.077ZM3150.04 142.077C3146.9 142.077 3143.96 141.65 3141.24 140.797C3138.58 139.89 3136.23 138.557 3134.2 136.797C3132.23 135.037 3130.66 132.824 3129.48 130.157C3128.36 127.49 3127.8 124.37 3127.8 120.797C3127.8 117.277 3128.36 114.264 3129.48 111.757C3130.66 109.197 3132.18 107.117 3134.04 105.517C3135.91 103.864 3138.04 102.664 3140.44 101.917C3142.84 101.117 3145.3 100.717 3147.8 100.717C3150.63 100.717 3153.19 101.144 3155.48 101.997C3157.83 102.85 3159.83 104.024 3161.48 105.517C3163.19 107.01 3164.5 108.797 3165.4 110.877C3166.36 112.957 3166.84 115.224 3166.84 117.677C3166.84 119.49 3166.34 120.877 3165.32 121.837C3164.31 122.797 3162.9 123.41 3161.08 123.677L3141.32 126.637C3141.91 128.397 3143.11 129.73 3144.92 130.637C3146.74 131.49 3148.82 131.917 3151.16 131.917C3153.35 131.917 3155.4 131.65 3157.32 131.117C3159.3 130.53 3160.9 129.864 3162.12 129.117C3162.98 129.65 3163.7 130.397 3164.28 131.357C3164.87 132.317 3165.16 133.33 3165.16 134.397C3165.16 136.797 3164.04 138.584 3161.8 139.757C3160.1 140.664 3158.18 141.277 3156.04 141.597C3153.91 141.917 3151.91 142.077 3150.04 142.077ZM3147.8 110.637C3146.52 110.637 3145.4 110.85 3144.44 111.277C3143.54 111.704 3142.79 112.264 3142.2 112.957C3141.62 113.597 3141.16 114.344 3140.84 115.197C3140.58 115.997 3140.42 116.824 3140.36 117.677L3154.04 115.437C3153.88 114.37 3153.3 113.304 3152.28 112.237C3151.27 111.17 3149.78 110.637 3147.8 110.637ZM3206.19 129.197C3206.19 133.25 3204.67 136.424 3201.63 138.717C3198.59 141.01 3194.11 142.157 3188.19 142.157C3185.95 142.157 3183.87 141.997 3181.95 141.677C3180.03 141.357 3178.38 140.877 3176.99 140.237C3175.66 139.544 3174.59 138.69 3173.79 137.677C3173.04 136.664 3172.67 135.464 3172.67 134.077C3172.67 132.797 3172.94 131.73 3173.47 130.877C3174 129.97 3174.64 129.224 3175.39 128.637C3176.94 129.49 3178.7 130.264 3180.67 130.957C3182.7 131.597 3185.02 131.917 3187.63 131.917C3189.28 131.917 3190.54 131.677 3191.39 131.197C3192.3 130.717 3192.75 130.077 3192.75 129.277C3192.75 128.53 3192.43 127.944 3191.79 127.517C3191.15 127.09 3190.08 126.744 3188.59 126.477L3186.19 125.997C3181.55 125.09 3178.08 123.677 3175.79 121.757C3173.55 119.784 3172.43 116.984 3172.43 113.357C3172.43 111.384 3172.86 109.597 3173.71 107.997C3174.56 106.397 3175.76 105.064 3177.31 103.997C3178.86 102.93 3180.7 102.104 3182.83 101.517C3185.02 100.93 3187.42 100.637 3190.03 100.637C3192 100.637 3193.84 100.797 3195.55 101.117C3197.31 101.384 3198.83 101.81 3200.11 102.397C3201.39 102.984 3202.4 103.757 3203.15 104.717C3203.9 105.624 3204.27 106.717 3204.27 107.997C3204.27 109.224 3204.03 110.29 3203.55 111.197C3203.12 112.05 3202.56 112.77 3201.87 113.357C3201.44 113.09 3200.8 112.824 3199.95 112.557C3199.1 112.237 3198.16 111.97 3197.15 111.757C3196.14 111.49 3195.1 111.277 3194.03 111.117C3193.02 110.957 3192.08 110.877 3191.23 110.877C3189.47 110.877 3188.11 111.09 3187.15 111.517C3186.19 111.89 3185.71 112.504 3185.71 113.357C3185.71 113.944 3185.98 114.424 3186.51 114.797C3187.04 115.17 3188.06 115.517 3189.55 115.837L3192.03 116.397C3197.15 117.57 3200.78 119.197 3202.91 121.277C3205.1 123.304 3206.19 125.944 3206.19 129.197ZM3212.45 91.1169C3212.45 89.0902 3213.11 87.3835 3214.45 85.9969C3215.83 84.6102 3217.65 83.9169 3219.89 83.9169C3222.13 83.9169 3223.91 84.6102 3225.25 85.9969C3226.63 87.3835 3227.33 89.0902 3227.33 91.1169C3227.33 93.1435 3226.63 94.8502 3225.25 96.2369C3223.91 97.6235 3222.13 98.3169 3219.89 98.3169C3217.65 98.3169 3215.83 97.6235 3214.45 96.2369C3213.11 94.8502 3212.45 93.1435 3212.45 91.1169ZM3226.69 140.717C3226.1 140.824 3225.22 140.957 3224.05 141.117C3222.93 141.33 3221.78 141.437 3220.61 141.437C3219.43 141.437 3218.37 141.357 3217.41 141.197C3216.5 141.037 3215.73 140.717 3215.09 140.237C3214.45 139.757 3213.94 139.117 3213.57 138.317C3213.25 137.464 3213.09 136.37 3213.09 135.037V102.477C3213.67 102.37 3214.53 102.237 3215.65 102.077C3216.82 101.864 3217.99 101.757 3219.17 101.757C3220.34 101.757 3221.38 101.837 3222.29 101.997C3223.25 102.157 3224.05 102.477 3224.69 102.957C3225.33 103.437 3225.81 104.104 3226.13 104.957C3226.5 105.757 3226.69 106.824 3226.69 108.157V140.717ZM3254.3 100.717C3257.34 100.717 3260.09 101.117 3262.54 101.917C3265.05 102.664 3267.16 103.65 3268.86 104.877C3269.93 105.624 3270.76 106.45 3271.34 107.357C3271.98 108.264 3272.3 109.437 3272.3 110.877V138.877C3272.3 141.704 3271.77 144.13 3270.7 146.157C3269.64 148.237 3268.17 149.944 3266.3 151.277C3264.49 152.664 3262.33 153.677 3259.82 154.317C3257.37 154.957 3254.73 155.277 3251.9 155.277C3247.05 155.277 3243.24 154.61 3240.46 153.277C3237.69 151.997 3236.3 149.89 3236.3 146.957C3236.3 145.73 3236.54 144.637 3237.02 143.677C3237.56 142.77 3238.14 142.077 3238.78 141.597C3240.33 142.45 3242.06 143.17 3243.98 143.757C3245.96 144.344 3247.98 144.637 3250.06 144.637C3252.94 144.637 3255.24 144.157 3256.94 143.197C3258.65 142.237 3259.5 140.69 3259.5 138.557V137.277C3257.32 138.237 3254.65 138.717 3251.5 138.717C3249.1 138.717 3246.81 138.37 3244.62 137.677C3242.49 136.93 3240.6 135.81 3238.94 134.317C3237.34 132.77 3236.04 130.797 3235.02 128.397C3234.06 125.997 3233.58 123.144 3233.58 119.837C3233.58 116.584 3234.09 113.757 3235.1 111.357C3236.17 108.957 3237.61 106.984 3239.42 105.437C3241.29 103.837 3243.48 102.664 3245.98 101.917C3248.54 101.117 3251.32 100.717 3254.3 100.717ZM3259.26 112.317C3258.89 112.104 3258.33 111.89 3257.58 111.677C3256.89 111.464 3256.01 111.357 3254.94 111.357C3252.33 111.357 3250.36 112.104 3249.02 113.597C3247.74 115.037 3247.1 117.117 3247.1 119.837C3247.1 122.93 3247.74 125.17 3249.02 126.557C3250.36 127.89 3252.04 128.557 3254.06 128.557C3256.25 128.557 3257.98 128.05 3259.26 127.037V112.317ZM3305.37 116.157C3305.37 114.504 3304.89 113.304 3303.93 112.557C3303.03 111.757 3301.77 111.357 3300.17 111.357C3299.11 111.357 3298.04 111.49 3296.97 111.757C3295.96 112.024 3295.08 112.424 3294.33 112.957V140.717C3293.8 140.877 3292.95 141.037 3291.77 141.197C3290.65 141.357 3289.48 141.437 3288.25 141.437C3287.08 141.437 3286.01 141.357 3285.05 141.197C3284.15 141.037 3283.37 140.717 3282.73 140.237C3282.09 139.757 3281.59 139.117 3281.21 138.317C3280.89 137.464 3280.73 136.37 3280.73 135.037V111.037C3280.73 109.597 3281.03 108.424 3281.61 107.517C3282.25 106.61 3283.11 105.784 3284.17 105.037C3285.99 103.757 3288.25 102.717 3290.97 101.917C3293.75 101.117 3296.81 100.717 3300.17 100.717C3306.2 100.717 3310.84 102.05 3314.09 104.717C3317.35 107.33 3318.97 110.984 3318.97 115.677V140.717C3318.44 140.877 3317.59 141.037 3316.41 141.197C3315.29 141.357 3314.12 141.437 3312.89 141.437C3311.72 141.437 3310.65 141.357 3309.69 141.197C3308.79 141.037 3308.01 140.717 3307.37 140.237C3306.73 139.757 3306.23 139.117 3305.85 138.317C3305.53 137.464 3305.37 136.37 3305.37 135.037V116.157ZM3365.55 139.597C3364.8 140.237 3363.79 140.744 3362.51 141.117C3361.23 141.544 3359.71 141.757 3357.95 141.757C3355.76 141.757 3353.87 141.437 3352.27 140.797C3350.67 140.21 3349.6 139.357 3349.07 138.237C3348.48 136.957 3347.79 134.93 3346.99 132.157C3346.24 129.384 3345.5 126.344 3344.75 123.037C3344 119.73 3343.28 116.37 3342.59 112.957C3341.95 109.544 3341.44 106.53 3341.07 103.917C3341.82 103.17 3342.8 102.53 3344.03 101.997C3345.31 101.41 3346.7 101.117 3348.19 101.117C3350.06 101.117 3351.58 101.544 3352.75 102.397C3353.98 103.197 3354.72 104.61 3354.99 106.637C3355.52 110.69 3355.98 114.05 3356.35 116.717C3356.72 119.33 3357.02 121.49 3357.23 123.197C3357.5 124.85 3357.68 126.13 3357.79 127.037C3357.95 127.89 3358.08 128.584 3358.19 129.117H3358.51C3358.67 128.264 3358.94 127.037 3359.31 125.437C3359.74 123.784 3360.22 121.917 3360.75 119.837C3361.28 117.757 3361.84 115.517 3362.43 113.117C3363.02 110.664 3363.6 108.237 3364.19 105.837C3365.26 105.25 3366.3 104.797 3367.31 104.477C3368.38 104.157 3369.68 103.997 3371.23 103.997C3373.1 103.997 3374.7 104.29 3376.03 104.877C3377.36 105.464 3378.22 106.37 3378.59 107.597C3379.23 109.944 3379.84 112.237 3380.43 114.477C3381.02 116.664 3381.55 118.717 3382.03 120.637C3382.51 122.504 3382.94 124.184 3383.31 125.677C3383.68 127.117 3383.95 128.264 3384.11 129.117H3384.51C3385.1 125.01 3385.66 120.744 3386.19 116.317C3386.78 111.89 3387.31 107.384 3387.79 102.797C3388.75 102.21 3389.76 101.784 3390.83 101.517C3391.9 101.25 3392.96 101.117 3394.03 101.117C3395.9 101.117 3397.44 101.517 3398.67 102.317C3399.9 103.117 3400.51 104.504 3400.51 106.477C3400.51 107.33 3400.38 108.61 3400.11 110.317C3399.84 112.024 3399.5 113.944 3399.07 116.077C3398.64 118.21 3398.14 120.45 3397.55 122.797C3397.02 125.144 3396.46 127.41 3395.87 129.597C3395.34 131.784 3394.8 133.757 3394.27 135.517C3393.79 137.277 3393.36 138.637 3392.99 139.597C3392.24 140.237 3391.1 140.744 3389.55 141.117C3388 141.544 3386.35 141.757 3384.59 141.757C3380.11 141.757 3377.47 140.637 3376.67 138.397C3376.35 137.437 3375.95 136.237 3375.47 134.797C3374.99 133.304 3374.48 131.677 3373.95 129.917C3373.42 128.157 3372.91 126.344 3372.43 124.477C3371.95 122.557 3371.55 120.717 3371.23 118.957C3370.86 120.824 3370.4 122.77 3369.87 124.797C3369.34 126.77 3368.78 128.717 3368.19 130.637C3367.66 132.504 3367.15 134.237 3366.67 135.837C3366.19 137.384 3365.82 138.637 3365.55 139.597ZM3406.35 91.1169C3406.35 89.0902 3407.02 87.3835 3408.35 85.9969C3409.74 84.6102 3411.55 83.9169 3413.79 83.9169C3416.03 83.9169 3417.82 84.6102 3419.15 85.9969C3420.54 87.3835 3421.23 89.0902 3421.23 91.1169C3421.23 93.1435 3420.54 94.8502 3419.15 96.2369C3417.82 97.6235 3416.03 98.3169 3413.79 98.3169C3411.55 98.3169 3409.74 97.6235 3408.35 96.2369C3407.02 94.8502 3406.35 93.1435 3406.35 91.1169ZM3420.59 140.717C3420.01 140.824 3419.13 140.957 3417.95 141.117C3416.83 141.33 3415.69 141.437 3414.51 141.437C3413.34 141.437 3412.27 141.357 3411.31 141.197C3410.41 141.037 3409.63 140.717 3408.99 140.237C3408.35 139.757 3407.85 139.117 3407.47 138.317C3407.15 137.464 3406.99 136.37 3406.99 135.037V102.477C3407.58 102.37 3408.43 102.237 3409.55 102.077C3410.73 101.864 3411.9 101.757 3413.07 101.757C3414.25 101.757 3415.29 101.837 3416.19 101.997C3417.15 102.157 3417.95 102.477 3418.59 102.957C3419.23 103.437 3419.71 104.104 3420.03 104.957C3420.41 105.757 3420.59 106.824 3420.59 108.157V140.717ZM3442.85 127.437C3442.85 128.824 3443.28 129.81 3444.13 130.397C3445.04 130.984 3446.29 131.277 3447.89 131.277C3448.69 131.277 3449.52 131.224 3450.37 131.117C3451.22 130.957 3451.97 130.77 3452.61 130.557C3453.09 131.144 3453.49 131.81 3453.81 132.557C3454.18 133.25 3454.37 134.104 3454.37 135.117C3454.37 137.144 3453.6 138.797 3452.05 140.077C3450.56 141.357 3447.89 141.997 3444.05 141.997C3439.36 141.997 3435.73 140.93 3433.17 138.797C3430.66 136.664 3429.41 133.197 3429.41 128.397V94.1569C3430 93.9969 3430.82 93.8369 3431.89 93.6769C3433.01 93.4635 3434.18 93.3569 3435.41 93.3569C3437.76 93.3569 3439.57 93.7835 3440.85 94.6369C3442.18 95.4369 3442.85 97.1702 3442.85 99.8369V104.957H3453.33C3453.65 105.544 3453.94 106.29 3454.21 107.197C3454.53 108.05 3454.69 109.01 3454.69 110.077C3454.69 111.944 3454.26 113.304 3453.41 114.157C3452.61 114.957 3451.52 115.357 3450.13 115.357H3442.85V127.437ZM3499.68 140.717C3499.15 140.877 3498.29 141.037 3497.12 141.197C3496 141.357 3494.83 141.437 3493.6 141.437C3492.43 141.437 3491.36 141.357 3490.4 141.197C3489.49 141.037 3488.72 140.717 3488.08 140.237C3487.44 139.757 3486.93 139.117 3486.56 138.317C3486.24 137.464 3486.08 136.37 3486.08 135.037V117.277C3486.08 115.09 3485.52 113.57 3484.4 112.717C3483.33 111.81 3482 111.357 3480.4 111.357C3479.33 111.357 3478.32 111.49 3477.36 111.757C3476.4 112.024 3475.63 112.344 3475.04 112.717V140.717C3474.51 140.877 3473.65 141.037 3472.48 141.197C3471.36 141.357 3470.19 141.437 3468.96 141.437C3467.79 141.437 3466.72 141.357 3465.76 141.197C3464.85 141.037 3464.08 140.717 3463.44 140.237C3462.8 139.757 3462.29 139.117 3461.92 138.317C3461.6 137.464 3461.44 136.37 3461.44 135.037V88.6369C3462.03 88.5302 3462.88 88.3969 3464 88.2369C3465.17 88.0235 3466.35 87.9169 3467.52 87.9169C3468.69 87.9169 3469.73 87.9969 3470.64 88.1569C3471.6 88.3169 3472.4 88.6369 3473.04 89.1169C3473.68 89.5969 3474.16 90.2635 3474.48 91.1169C3474.85 91.9169 3475.04 92.9835 3475.04 94.3169V102.157C3475.73 101.89 3476.77 101.597 3478.16 101.277C3479.6 100.904 3481.17 100.717 3482.88 100.717C3488.16 100.717 3492.27 102.05 3495.2 104.717C3498.19 107.33 3499.68 111.25 3499.68 116.477V140.717ZM3523.77 91.1169C3523.77 89.0902 3524.44 87.3835 3525.77 85.9969C3527.16 84.6102 3528.97 83.9169 3531.21 83.9169C3533.45 83.9169 3535.24 84.6102 3536.57 85.9969C3537.96 87.3835 3538.65 89.0902 3538.65 91.1169C3538.65 93.1435 3537.96 94.8502 3536.57 96.2369C3535.24 97.6235 3533.45 98.3169 3531.21 98.3169C3528.97 98.3169 3527.16 97.6235 3525.77 96.2369C3524.44 94.8502 3523.77 93.1435 3523.77 91.1169ZM3538.01 140.717C3537.43 140.824 3536.55 140.957 3535.37 141.117C3534.25 141.33 3533.11 141.437 3531.93 141.437C3530.76 141.437 3529.69 141.357 3528.73 141.197C3527.83 141.037 3527.05 140.717 3526.41 140.237C3525.77 139.757 3525.27 139.117 3524.89 138.317C3524.57 137.464 3524.41 136.37 3524.41 135.037V102.477C3525 102.37 3525.85 102.237 3526.97 102.077C3528.15 101.864 3529.32 101.757 3530.49 101.757C3531.67 101.757 3532.71 101.837 3533.61 101.997C3534.57 102.157 3535.37 102.477 3536.01 102.957C3536.65 103.437 3537.13 104.104 3537.45 104.957C3537.83 105.757 3538.01 106.824 3538.01 108.157V140.717ZM3571.31 116.157C3571.31 114.504 3570.83 113.304 3569.87 112.557C3568.97 111.757 3567.71 111.357 3566.11 111.357C3565.05 111.357 3563.98 111.49 3562.91 111.757C3561.9 112.024 3561.02 112.424 3560.27 112.957V140.717C3559.74 140.877 3558.89 141.037 3557.71 141.197C3556.59 141.357 3555.42 141.437 3554.19 141.437C3553.02 141.437 3551.95 141.357 3550.99 141.197C3550.09 141.037 3549.31 140.717 3548.67 140.237C3548.03 139.757 3547.53 139.117 3547.15 138.317C3546.83 137.464 3546.67 136.37 3546.67 135.037V111.037C3546.67 109.597 3546.97 108.424 3547.55 107.517C3548.19 106.61 3549.05 105.784 3550.11 105.037C3551.93 103.757 3554.19 102.717 3556.91 101.917C3559.69 101.117 3562.75 100.717 3566.11 100.717C3572.14 100.717 3576.78 102.05 3580.03 104.717C3583.29 107.33 3584.91 110.984 3584.91 115.677V140.717C3584.38 140.877 3583.53 141.037 3582.35 141.197C3581.23 141.357 3580.06 141.437 3578.83 141.437C3577.66 141.437 3576.59 141.357 3575.63 141.197C3574.73 141.037 3573.95 140.717 3573.31 140.237C3572.67 139.757 3572.17 139.117 3571.79 138.317C3571.47 137.464 3571.31 136.37 3571.31 135.037V116.157ZM3606.91 127.437C3606.91 128.824 3607.34 129.81 3608.19 130.397C3609.1 130.984 3610.35 131.277 3611.95 131.277C3612.75 131.277 3613.58 131.224 3614.43 131.117C3615.29 130.957 3616.03 130.77 3616.67 130.557C3617.15 131.144 3617.55 131.81 3617.87 132.557C3618.25 133.25 3618.43 134.104 3618.43 135.117C3618.43 137.144 3617.66 138.797 3616.11 140.077C3614.62 141.357 3611.95 141.997 3608.11 141.997C3603.42 141.997 3599.79 140.93 3597.23 138.797C3594.73 136.664 3593.47 133.197 3593.47 128.397V94.1569C3594.06 93.9969 3594.89 93.8369 3595.95 93.6769C3597.07 93.4635 3598.25 93.3569 3599.47 93.3569C3601.82 93.3569 3603.63 93.7835 3604.91 94.6369C3606.25 95.4369 3606.91 97.1702 3606.91 99.8369V104.957H3617.39C3617.71 105.544 3618.01 106.29 3618.27 107.197C3618.59 108.05 3618.75 109.01 3618.75 110.077C3618.75 111.944 3618.33 113.304 3617.47 114.157C3616.67 114.957 3615.58 115.357 3614.19 115.357H3606.91V127.437ZM3645.43 142.077C3642.29 142.077 3639.35 141.65 3636.63 140.797C3633.97 139.89 3631.62 138.557 3629.59 136.797C3627.62 135.037 3626.05 132.824 3624.87 130.157C3623.75 127.49 3623.19 124.37 3623.19 120.797C3623.19 117.277 3623.75 114.264 3624.87 111.757C3626.05 109.197 3627.57 107.117 3629.43 105.517C3631.3 103.864 3633.43 102.664 3635.83 101.917C3638.23 101.117 3640.69 100.717 3643.19 100.717C3646.02 100.717 3648.58 101.144 3650.87 101.997C3653.22 102.85 3655.22 104.024 3656.87 105.517C3658.58 107.01 3659.89 108.797 3660.79 110.877C3661.75 112.957 3662.23 115.224 3662.23 117.677C3662.23 119.49 3661.73 120.877 3660.71 121.837C3659.7 122.797 3658.29 123.41 3656.47 123.677L3636.71 126.637C3637.3 128.397 3638.5 129.73 3640.31 130.637C3642.13 131.49 3644.21 131.917 3646.55 131.917C3648.74 131.917 3650.79 131.65 3652.71 131.117C3654.69 130.53 3656.29 129.864 3657.51 129.117C3658.37 129.65 3659.09 130.397 3659.67 131.357C3660.26 132.317 3660.55 133.33 3660.55 134.397C3660.55 136.797 3659.43 138.584 3657.19 139.757C3655.49 140.664 3653.57 141.277 3651.43 141.597C3649.3 141.917 3647.3 142.077 3645.43 142.077ZM3643.19 110.637C3641.91 110.637 3640.79 110.85 3639.83 111.277C3638.93 111.704 3638.18 112.264 3637.59 112.957C3637.01 113.597 3636.55 114.344 3636.23 115.197C3635.97 115.997 3635.81 116.824 3635.75 117.677L3649.43 115.437C3649.27 114.37 3648.69 113.304 3647.67 112.237C3646.66 111.17 3645.17 110.637 3643.19 110.637ZM3693.42 116.157C3693.42 114.504 3692.94 113.304 3691.98 112.557C3691.07 111.757 3689.82 111.357 3688.22 111.357C3687.15 111.357 3686.09 111.49 3685.02 111.757C3684.01 112.024 3683.13 112.424 3682.38 112.957V140.717C3681.85 140.877 3680.99 141.037 3679.82 141.197C3678.7 141.357 3677.53 141.437 3676.3 141.437C3675.13 141.437 3674.06 141.357 3673.1 141.197C3672.19 141.037 3671.42 140.717 3670.78 140.237C3670.14 139.757 3669.63 139.117 3669.26 138.317C3668.94 137.464 3668.78 136.37 3668.78 135.037V111.037C3668.78 109.597 3669.07 108.424 3669.66 107.517C3670.3 106.61 3671.15 105.784 3672.22 105.037C3674.03 103.757 3676.3 102.717 3679.02 101.917C3681.79 101.117 3684.86 100.717 3688.22 100.717C3694.25 100.717 3698.89 102.05 3702.14 104.717C3705.39 107.33 3707.02 110.984 3707.02 115.677V140.717C3706.49 140.877 3705.63 141.037 3704.46 141.197C3703.34 141.357 3702.17 141.437 3700.94 141.437C3699.77 141.437 3698.7 141.357 3697.74 141.197C3696.83 141.037 3696.06 140.717 3695.42 140.237C3694.78 139.757 3694.27 139.117 3693.9 138.317C3693.58 137.464 3693.42 136.37 3693.42 135.037V116.157ZM3729.02 127.437C3729.02 128.824 3729.45 129.81 3730.3 130.397C3731.21 130.984 3732.46 131.277 3734.06 131.277C3734.86 131.277 3735.69 131.224 3736.54 131.117C3737.4 130.957 3738.14 130.77 3738.78 130.557C3739.26 131.144 3739.66 131.81 3739.98 132.557C3740.36 133.25 3740.54 134.104 3740.54 135.117C3740.54 137.144 3739.77 138.797 3738.22 140.077C3736.73 141.357 3734.06 141.997 3730.22 141.997C3725.53 141.997 3721.9 140.93 3719.34 138.797C3716.84 136.664 3715.58 133.197 3715.58 128.397V94.1569C3716.17 93.9969 3717 93.8369 3718.06 93.6769C3719.18 93.4635 3720.36 93.3569 3721.58 93.3569C3723.93 93.3569 3725.74 93.7835 3727.02 94.6369C3728.36 95.4369 3729.02 97.1702 3729.02 99.8369V104.957H3739.5C3739.82 105.544 3740.12 106.29 3740.38 107.197C3740.7 108.05 3740.86 109.01 3740.86 110.077C3740.86 111.944 3740.44 113.304 3739.58 114.157C3738.78 114.957 3737.69 115.357 3736.3 115.357H3729.02V127.437ZM3747.13 91.1169C3747.13 89.0902 3747.8 87.3835 3749.13 85.9969C3750.52 84.6102 3752.33 83.9169 3754.57 83.9169C3756.81 83.9169 3758.6 84.6102 3759.93 85.9969C3761.32 87.3835 3762.01 89.0902 3762.01 91.1169C3762.01 93.1435 3761.32 94.8502 3759.93 96.2369C3758.6 97.6235 3756.81 98.3169 3754.57 98.3169C3752.33 98.3169 3750.52 97.6235 3749.13 96.2369C3747.8 94.8502 3747.13 93.1435 3747.13 91.1169ZM3761.37 140.717C3760.79 140.824 3759.91 140.957 3758.73 141.117C3757.61 141.33 3756.47 141.437 3755.29 141.437C3754.12 141.437 3753.05 141.357 3752.09 141.197C3751.19 141.037 3750.41 140.717 3749.77 140.237C3749.13 139.757 3748.63 139.117 3748.25 138.317C3747.93 137.464 3747.77 136.37 3747.77 135.037V102.477C3748.36 102.37 3749.21 102.237 3750.33 102.077C3751.51 101.864 3752.68 101.757 3753.85 101.757C3755.03 101.757 3756.07 101.837 3756.97 101.997C3757.93 102.157 3758.73 102.477 3759.37 102.957C3760.01 103.437 3760.49 104.104 3760.81 104.957C3761.19 105.757 3761.37 106.824 3761.37 108.157V140.717ZM3810.27 121.357C3810.27 124.664 3809.76 127.624 3808.75 130.237C3807.74 132.797 3806.3 134.957 3804.43 136.717C3802.62 138.477 3800.43 139.81 3797.87 140.717C3795.31 141.624 3792.46 142.077 3789.31 142.077C3786.16 142.077 3783.31 141.597 3780.75 140.637C3778.19 139.677 3775.98 138.317 3774.11 136.557C3772.3 134.744 3770.88 132.557 3769.87 129.997C3768.86 127.437 3768.35 124.557 3768.35 121.357C3768.35 118.21 3768.86 115.357 3769.87 112.797C3770.88 110.237 3772.3 108.077 3774.11 106.317C3775.98 104.504 3778.19 103.117 3780.75 102.157C3783.31 101.197 3786.16 100.717 3789.31 100.717C3792.46 100.717 3795.31 101.224 3797.87 102.237C3800.43 103.197 3802.62 104.584 3804.43 106.397C3806.3 108.157 3807.74 110.317 3808.75 112.877C3809.76 115.437 3810.27 118.264 3810.27 121.357ZM3782.27 121.357C3782.27 124.61 3782.88 127.117 3784.11 128.877C3785.39 130.584 3787.15 131.437 3789.39 131.437C3791.63 131.437 3793.34 130.557 3794.51 128.797C3795.74 127.037 3796.35 124.557 3796.35 121.357C3796.35 118.157 3795.74 115.704 3794.51 113.997C3793.28 112.237 3791.55 111.357 3789.31 111.357C3787.07 111.357 3785.34 112.237 3784.11 113.997C3782.88 115.704 3782.27 118.157 3782.27 121.357ZM3841.55 116.157C3841.55 114.504 3841.07 113.304 3840.11 112.557C3839.2 111.757 3837.95 111.357 3836.35 111.357C3835.28 111.357 3834.21 111.49 3833.15 111.757C3832.13 112.024 3831.25 112.424 3830.51 112.957V140.717C3829.97 140.877 3829.12 141.037 3827.95 141.197C3826.83 141.357 3825.65 141.437 3824.43 141.437C3823.25 141.437 3822.19 141.357 3821.23 141.197C3820.32 141.037 3819.55 140.717 3818.91 140.237C3818.27 139.757 3817.76 139.117 3817.39 138.317C3817.07 137.464 3816.91 136.37 3816.91 135.037V111.037C3816.91 109.597 3817.2 108.424 3817.79 107.517C3818.43 106.61 3819.28 105.784 3820.35 105.037C3822.16 103.757 3824.43 102.717 3827.15 101.917C3829.92 101.117 3832.99 100.717 3836.35 100.717C3842.37 100.717 3847.01 102.05 3850.27 104.717C3853.52 107.33 3855.15 110.984 3855.15 115.677V140.717C3854.61 140.877 3853.76 141.037 3852.59 141.197C3851.47 141.357 3850.29 141.437 3849.07 141.437C3847.89 141.437 3846.83 141.357 3845.87 141.197C3844.96 141.037 3844.19 140.717 3843.55 140.237C3842.91 139.757 3842.4 139.117 3842.03 138.317C3841.71 137.464 3841.55 136.37 3841.55 135.037V116.157Z" fill="black"/>
<rect x="4014.86" width="240" height="240" fill="#FFCA00"/>
<path d="M4181.14 33.3438C4199.92 33.3438 4215.14 72.1813 4215.14 120.09C4215.14 167.998 4199.92 206.836 4181.14 206.836C4171.68 206.836 4163.13 196.99 4156.97 181.1C4150.81 196.99 4142.25 206.836 4132.8 206.836C4124.58 206.836 4117.05 199.404 4111.17 187.033C4105.29 199.404 4097.76 206.836 4089.54 206.836C4070.76 206.836 4055.54 167.998 4055.54 120.09C4055.54 72.1813 4070.76 33.3438 4089.54 33.3438C4097.76 33.3438 4105.29 40.7748 4111.17 53.1455C4117.05 40.7748 4124.58 33.3438 4132.8 33.3438C4142.25 33.3438 4150.81 43.1889 4156.97 59.0791C4163.13 43.1889 4171.68 33.3438 4181.14 33.3438Z" fill="#FF7401"/>
<path d="M4429.45 130.397C4430.03 130.504 4430.75 130.61 4431.61 130.717C4432.46 130.77 4433.26 130.797 4434.01 130.797C4435.82 130.797 4437.47 130.53 4438.97 129.997C4440.51 129.464 4441.82 128.637 4442.89 127.517C4444.01 126.397 4444.86 124.957 4445.45 123.197C4446.09 121.384 4446.41 119.224 4446.41 116.717C4446.41 111.917 4445.29 108.317 4443.05 105.917C4440.81 103.464 4437.82 102.237 4434.09 102.237C4433.34 102.237 4432.57 102.264 4431.77 102.317C4431.02 102.37 4430.25 102.45 4429.45 102.557V130.397ZM4433.93 142.077C4433.02 142.077 4431.98 142.05 4430.81 141.997C4429.63 141.944 4428.41 141.837 4427.13 141.677C4425.9 141.517 4424.65 141.304 4423.37 141.037C4422.14 140.824 4420.99 140.504 4419.93 140.077C4416.99 138.957 4415.53 137.01 4415.53 134.237V96.8769C4415.53 95.7569 4415.82 94.9035 4416.41 94.3169C4417.05 93.6769 4417.9 93.1702 4418.97 92.7969C4421.26 92.0502 4423.69 91.5702 4426.25 91.3569C4428.81 91.0902 4431.1 90.9569 4433.13 90.9569C4437.29 90.9569 4441.05 91.4635 4444.41 92.4769C4447.82 93.4902 4450.73 95.0635 4453.13 97.1969C4455.58 99.2769 4457.47 101.917 4458.81 105.117C4460.14 108.317 4460.81 112.104 4460.81 116.477C4460.81 120.744 4460.17 124.477 4458.89 127.677C4457.61 130.824 4455.77 133.49 4453.37 135.677C4451.02 137.81 4448.19 139.41 4444.89 140.477C4441.58 141.544 4437.93 142.077 4433.93 142.077ZM4488.33 142.077C4485.18 142.077 4482.25 141.65 4479.53 140.797C4476.86 139.89 4474.52 138.557 4472.49 136.797C4470.52 135.037 4468.94 132.824 4467.77 130.157C4466.65 127.49 4466.09 124.37 4466.09 120.797C4466.09 117.277 4466.65 114.264 4467.77 111.757C4468.94 109.197 4470.46 107.117 4472.33 105.517C4474.2 103.864 4476.33 102.664 4478.73 101.917C4481.13 101.117 4483.58 100.717 4486.09 100.717C4488.92 100.717 4491.48 101.144 4493.77 101.997C4496.12 102.85 4498.12 104.024 4499.77 105.517C4501.48 107.01 4502.78 108.797 4503.69 110.877C4504.65 112.957 4505.13 115.224 4505.13 117.677C4505.13 119.49 4504.62 120.877 4503.61 121.837C4502.6 122.797 4501.18 123.41 4499.37 123.677L4479.61 126.637C4480.2 128.397 4481.4 129.73 4483.21 130.637C4485.02 131.49 4487.1 131.917 4489.45 131.917C4491.64 131.917 4493.69 131.65 4495.61 131.117C4497.58 130.53 4499.18 129.864 4500.41 129.117C4501.26 129.65 4501.98 130.397 4502.57 131.357C4503.16 132.317 4503.45 133.33 4503.45 134.397C4503.45 136.797 4502.33 138.584 4500.09 139.757C4498.38 140.664 4496.46 141.277 4494.33 141.597C4492.2 141.917 4490.2 142.077 4488.33 142.077ZM4486.09 110.637C4484.81 110.637 4483.69 110.85 4482.73 111.277C4481.82 111.704 4481.08 112.264 4480.49 112.957C4479.9 113.597 4479.45 114.344 4479.13 115.197C4478.86 115.997 4478.7 116.824 4478.65 117.677L4492.33 115.437C4492.17 114.37 4491.58 113.304 4490.57 112.237C4489.56 111.17 4488.06 110.637 4486.09 110.637ZM4544.48 129.197C4544.48 133.25 4542.96 136.424 4539.92 138.717C4536.88 141.01 4532.4 142.157 4526.48 142.157C4524.24 142.157 4522.16 141.997 4520.24 141.677C4518.32 141.357 4516.66 140.877 4515.28 140.237C4513.94 139.544 4512.88 138.69 4512.08 137.677C4511.33 136.664 4510.96 135.464 4510.96 134.077C4510.96 132.797 4511.22 131.73 4511.76 130.877C4512.29 129.97 4512.93 129.224 4513.68 128.637C4515.22 129.49 4516.98 130.264 4518.96 130.957C4520.98 131.597 4523.3 131.917 4525.92 131.917C4527.57 131.917 4528.82 131.677 4529.68 131.197C4530.58 130.717 4531.04 130.077 4531.04 129.277C4531.04 128.53 4530.72 127.944 4530.08 127.517C4529.44 127.09 4528.37 126.744 4526.88 126.477L4524.48 125.997C4519.84 125.09 4516.37 123.677 4514.08 121.757C4511.84 119.784 4510.72 116.984 4510.72 113.357C4510.72 111.384 4511.14 109.597 4512 107.997C4512.85 106.397 4514.05 105.064 4515.6 103.997C4517.14 102.93 4518.98 102.104 4521.12 101.517C4523.3 100.93 4525.7 100.637 4528.32 100.637C4530.29 100.637 4532.13 100.797 4533.84 101.117C4535.6 101.384 4537.12 101.81 4538.4 102.397C4539.68 102.984 4540.69 103.757 4541.44 104.717C4542.18 105.624 4542.56 106.717 4542.56 107.997C4542.56 109.224 4542.32 110.29 4541.84 111.197C4541.41 112.05 4540.85 112.77 4540.16 113.357C4539.73 113.09 4539.09 112.824 4538.24 112.557C4537.38 112.237 4536.45 111.97 4535.44 111.757C4534.42 111.49 4533.38 111.277 4532.32 111.117C4531.3 110.957 4530.37 110.877 4529.52 110.877C4527.76 110.877 4526.4 111.09 4525.44 111.517C4524.48 111.89 4524 112.504 4524 113.357C4524 113.944 4524.26 114.424 4524.8 114.797C4525.33 115.17 4526.34 115.517 4527.84 115.837L4530.32 116.397C4535.44 117.57 4539.06 119.197 4541.2 121.277C4543.38 123.304 4544.48 125.944 4544.48 129.197ZM4550.73 91.1169C4550.73 89.0902 4551.4 87.3835 4552.73 85.9969C4554.12 84.6102 4555.93 83.9169 4558.17 83.9169C4560.41 83.9169 4562.2 84.6102 4563.53 85.9969C4564.92 87.3835 4565.61 89.0902 4565.61 91.1169C4565.61 93.1435 4564.92 94.8502 4563.53 96.2369C4562.2 97.6235 4560.41 98.3169 4558.17 98.3169C4555.93 98.3169 4554.12 97.6235 4552.73 96.2369C4551.4 94.8502 4550.73 93.1435 4550.73 91.1169ZM4564.97 140.717C4564.38 140.824 4563.5 140.957 4562.33 141.117C4561.21 141.33 4560.06 141.437 4558.89 141.437C4557.72 141.437 4556.65 141.357 4555.69 141.197C4554.78 141.037 4554.01 140.717 4553.37 140.237C4552.73 139.757 4552.22 139.117 4551.85 138.317C4551.53 137.464 4551.37 136.37 4551.37 135.037V102.477C4551.96 102.37 4552.81 102.237 4553.93 102.077C4555.1 101.864 4556.28 101.757 4557.45 101.757C4558.62 101.757 4559.66 101.837 4560.57 101.997C4561.53 102.157 4562.33 102.477 4562.97 102.957C4563.61 103.437 4564.09 104.104 4564.41 104.957C4564.78 105.757 4564.97 106.824 4564.97 108.157V140.717ZM4592.59 100.717C4595.63 100.717 4598.38 101.117 4600.83 101.917C4603.34 102.664 4605.44 103.65 4607.15 104.877C4608.22 105.624 4609.04 106.45 4609.63 107.357C4610.27 108.264 4610.59 109.437 4610.59 110.877V138.877C4610.59 141.704 4610.06 144.13 4608.99 146.157C4607.92 148.237 4606.46 149.944 4604.59 151.277C4602.78 152.664 4600.62 153.677 4598.11 154.317C4595.66 154.957 4593.02 155.277 4590.19 155.277C4585.34 155.277 4581.52 154.61 4578.75 153.277C4575.98 151.997 4574.59 149.89 4574.59 146.957C4574.59 145.73 4574.83 144.637 4575.31 143.677C4575.84 142.77 4576.43 142.077 4577.07 141.597C4578.62 142.45 4580.35 143.17 4582.27 143.757C4584.24 144.344 4586.27 144.637 4588.35 144.637C4591.23 144.637 4593.52 144.157 4595.23 143.197C4596.94 142.237 4597.79 140.69 4597.79 138.557V137.277C4595.6 138.237 4592.94 138.717 4589.79 138.717C4587.39 138.717 4585.1 138.37 4582.91 137.677C4580.78 136.93 4578.88 135.81 4577.23 134.317C4575.63 132.77 4574.32 130.797 4573.31 128.397C4572.35 125.997 4571.87 123.144 4571.87 119.837C4571.87 116.584 4572.38 113.757 4573.39 111.357C4574.46 108.957 4575.9 106.984 4577.71 105.437C4579.58 103.837 4581.76 102.664 4584.27 101.917C4586.83 101.117 4589.6 100.717 4592.59 100.717ZM4597.55 112.317C4597.18 112.104 4596.62 111.89 4595.87 111.677C4595.18 111.464 4594.3 111.357 4593.23 111.357C4590.62 111.357 4588.64 112.104 4587.31 113.597C4586.03 115.037 4585.39 117.117 4585.39 119.837C4585.39 122.93 4586.03 125.17 4587.31 126.557C4588.64 127.89 4590.32 128.557 4592.35 128.557C4594.54 128.557 4596.27 128.05 4597.55 127.037V112.317ZM4643.66 116.157C4643.66 114.504 4643.18 113.304 4642.22 112.557C4641.31 111.757 4640.06 111.357 4638.46 111.357C4637.39 111.357 4636.33 111.49 4635.26 111.757C4634.25 112.024 4633.37 112.424 4632.62 112.957V140.717C4632.09 140.877 4631.23 141.037 4630.06 141.197C4628.94 141.357 4627.77 141.437 4626.54 141.437C4625.37 141.437 4624.3 141.357 4623.34 141.197C4622.43 141.037 4621.66 140.717 4621.02 140.237C4620.38 139.757 4619.87 139.117 4619.5 138.317C4619.18 137.464 4619.02 136.37 4619.02 135.037V111.037C4619.02 109.597 4619.31 108.424 4619.9 107.517C4620.54 106.61 4621.39 105.784 4622.46 105.037C4624.27 103.757 4626.54 102.717 4629.26 101.917C4632.03 101.117 4635.1 100.717 4638.46 100.717C4644.49 100.717 4649.13 102.05 4652.38 104.717C4655.63 107.33 4657.26 110.984 4657.26 115.677V140.717C4656.73 140.877 4655.87 141.037 4654.7 141.197C4653.58 141.357 4652.41 141.437 4651.18 141.437C4650.01 141.437 4648.94 141.357 4647.98 141.197C4647.07 141.037 4646.3 140.717 4645.66 140.237C4645.02 139.757 4644.51 139.117 4644.14 138.317C4643.82 137.464 4643.66 136.37 4643.66 135.037V116.157ZM4703.84 139.597C4703.09 140.237 4702.08 140.744 4700.8 141.117C4699.52 141.544 4698 141.757 4696.24 141.757C4694.05 141.757 4692.16 141.437 4690.56 140.797C4688.96 140.21 4687.89 139.357 4687.36 138.237C4686.77 136.957 4686.08 134.93 4685.28 132.157C4684.53 129.384 4683.78 126.344 4683.04 123.037C4682.29 119.73 4681.57 116.37 4680.88 112.957C4680.24 109.544 4679.73 106.53 4679.36 103.917C4680.1 103.17 4681.09 102.53 4682.32 101.997C4683.6 101.41 4684.98 101.117 4686.48 101.117C4688.34 101.117 4689.86 101.544 4691.04 102.397C4692.26 103.197 4693.01 104.61 4693.28 106.637C4693.81 110.69 4694.26 114.05 4694.64 116.717C4695.01 119.33 4695.3 121.49 4695.52 123.197C4695.78 124.85 4695.97 126.13 4696.08 127.037C4696.24 127.89 4696.37 128.584 4696.48 129.117H4696.8C4696.96 128.264 4697.22 127.037 4697.6 125.437C4698.02 123.784 4698.5 121.917 4699.04 119.837C4699.57 117.757 4700.13 115.517 4700.72 113.117C4701.3 110.664 4701.89 108.237 4702.48 105.837C4703.54 105.25 4704.58 104.797 4705.6 104.477C4706.66 104.157 4707.97 103.997 4709.52 103.997C4711.38 103.997 4712.98 104.29 4714.32 104.877C4715.65 105.464 4716.5 106.37 4716.88 107.597C4717.52 109.944 4718.13 112.237 4718.72 114.477C4719.3 116.664 4719.84 118.717 4720.32 120.637C4720.8 122.504 4721.22 124.184 4721.6 125.677C4721.97 127.117 4722.24 128.264 4722.4 129.117H4722.8C4723.38 125.01 4723.94 120.744 4724.48 116.317C4725.06 111.89 4725.6 107.384 4726.08 102.797C4727.04 102.21 4728.05 101.784 4729.12 101.517C4730.18 101.25 4731.25 101.117 4732.32 101.117C4734.18 101.117 4735.73 101.517 4736.96 102.317C4738.18 103.117 4738.8 104.504 4738.8 106.477C4738.8 107.33 4738.66 108.61 4738.4 110.317C4738.13 112.024 4737.78 113.944 4737.36 116.077C4736.93 118.21 4736.42 120.45 4735.84 122.797C4735.3 125.144 4734.74 127.41 4734.16 129.597C4733.62 131.784 4733.09 133.757 4732.56 135.517C4732.08 137.277 4731.65 138.637 4731.28 139.597C4730.53 140.237 4729.38 140.744 4727.84 141.117C4726.29 141.544 4724.64 141.757 4722.88 141.757C4718.4 141.757 4715.76 140.637 4714.96 138.397C4714.64 137.437 4714.24 136.237 4713.76 134.797C4713.28 133.304 4712.77 131.677 4712.24 129.917C4711.7 128.157 4711.2 126.344 4710.72 124.477C4710.24 122.557 4709.84 120.717 4709.52 118.957C4709.14 120.824 4708.69 122.77 4708.16 124.797C4707.62 126.77 4707.06 128.717 4706.48 130.637C4705.94 132.504 4705.44 134.237 4704.96 135.837C4704.48 137.384 4704.1 138.637 4703.84 139.597ZM4744.64 91.1169C4744.64 89.0902 4745.3 87.3835 4746.64 85.9969C4748.02 84.6102 4749.84 83.9169 4752.08 83.9169C4754.32 83.9169 4756.1 84.6102 4757.44 85.9969C4758.82 87.3835 4759.52 89.0902 4759.52 91.1169C4759.52 93.1435 4758.82 94.8502 4757.44 96.2369C4756.1 97.6235 4754.32 98.3169 4752.08 98.3169C4749.84 98.3169 4748.02 97.6235 4746.64 96.2369C4745.3 94.8502 4744.64 93.1435 4744.64 91.1169ZM4758.88 140.717C4758.29 140.824 4757.41 140.957 4756.24 141.117C4755.12 141.33 4753.97 141.437 4752.8 141.437C4751.62 141.437 4750.56 141.357 4749.6 141.197C4748.69 141.037 4747.92 140.717 4747.28 140.237C4746.64 139.757 4746.13 139.117 4745.76 138.317C4745.44 137.464 4745.28 136.37 4745.28 135.037V102.477C4745.86 102.37 4746.72 102.237 4747.84 102.077C4749.01 101.864 4750.18 101.757 4751.36 101.757C4752.53 101.757 4753.57 101.837 4754.48 101.997C4755.44 102.157 4756.24 102.477 4756.88 102.957C4757.52 103.437 4758 104.104 4758.32 104.957C4758.69 105.757 4758.88 106.824 4758.88 108.157V140.717ZM4781.14 127.437C4781.14 128.824 4781.56 129.81 4782.42 130.397C4783.32 130.984 4784.58 131.277 4786.18 131.277C4786.98 131.277 4787.8 131.224 4788.66 131.117C4789.51 130.957 4790.26 130.77 4790.9 130.557C4791.38 131.144 4791.78 131.81 4792.1 132.557C4792.47 133.25 4792.66 134.104 4792.66 135.117C4792.66 137.144 4791.88 138.797 4790.34 140.077C4788.84 141.357 4786.18 141.997 4782.34 141.997C4777.64 141.997 4774.02 140.93 4771.46 138.797C4768.95 136.664 4767.7 133.197 4767.7 128.397V94.1569C4768.28 93.9969 4769.11 93.8369 4770.18 93.6769C4771.3 93.4635 4772.47 93.3569 4773.7 93.3569C4776.04 93.3569 4777.86 93.7835 4779.14 94.6369C4780.47 95.4369 4781.14 97.1702 4781.14 99.8369V104.957H4791.62C4791.94 105.544 4792.23 106.29 4792.5 107.197C4792.82 108.05 4792.98 109.01 4792.98 110.077C4792.98 111.944 4792.55 113.304 4791.7 114.157C4790.9 114.957 4789.8 115.357 4788.42 115.357H4781.14V127.437ZM4837.97 140.717C4837.43 140.877 4836.58 141.037 4835.41 141.197C4834.29 141.357 4833.11 141.437 4831.89 141.437C4830.71 141.437 4829.65 141.357 4828.69 141.197C4827.78 141.037 4827.01 140.717 4826.37 140.237C4825.73 139.757 4825.22 139.117 4824.85 138.317C4824.53 137.464 4824.37 136.37 4824.37 135.037V117.277C4824.37 115.09 4823.81 113.57 4822.69 112.717C4821.62 111.81 4820.29 111.357 4818.69 111.357C4817.62 111.357 4816.61 111.49 4815.65 111.757C4814.69 112.024 4813.91 112.344 4813.33 112.717V140.717C4812.79 140.877 4811.94 141.037 4810.77 141.197C4809.65 141.357 4808.47 141.437 4807.25 141.437C4806.07 141.437 4805.01 141.357 4804.05 141.197C4803.14 141.037 4802.37 140.717 4801.73 140.237C4801.09 139.757 4800.58 139.117 4800.21 138.317C4799.89 137.464 4799.73 136.37 4799.73 135.037V88.6369C4800.31 88.5302 4801.17 88.3969 4802.29 88.2369C4803.46 88.0235 4804.63 87.9169 4805.81 87.9169C4806.98 87.9169 4808.02 87.9969 4808.93 88.1569C4809.89 88.3169 4810.69 88.6369 4811.33 89.1169C4811.97 89.5969 4812.45 90.2635 4812.77 91.1169C4813.14 91.9169 4813.33 92.9835 4813.33 94.3169V102.157C4814.02 101.89 4815.06 101.597 4816.45 101.277C4817.89 100.904 4819.46 100.717 4821.17 100.717C4826.45 100.717 4830.55 102.05 4833.49 104.717C4836.47 107.33 4837.97 111.25 4837.97 116.477V140.717ZM4862.06 91.1169C4862.06 89.0902 4862.73 87.3835 4864.06 85.9969C4865.45 84.6102 4867.26 83.9169 4869.5 83.9169C4871.74 83.9169 4873.53 84.6102 4874.86 85.9969C4876.25 87.3835 4876.94 89.0902 4876.94 91.1169C4876.94 93.1435 4876.25 94.8502 4874.86 96.2369C4873.53 97.6235 4871.74 98.3169 4869.5 98.3169C4867.26 98.3169 4865.45 97.6235 4864.06 96.2369C4862.73 94.8502 4862.06 93.1435 4862.06 91.1169ZM4876.3 140.717C4875.71 140.824 4874.83 140.957 4873.66 141.117C4872.54 141.33 4871.39 141.437 4870.22 141.437C4869.05 141.437 4867.98 141.357 4867.02 141.197C4866.11 141.037 4865.34 140.717 4864.7 140.237C4864.06 139.757 4863.55 139.117 4863.18 138.317C4862.86 137.464 4862.7 136.37 4862.7 135.037V102.477C4863.29 102.37 4864.14 102.237 4865.26 102.077C4866.43 101.864 4867.61 101.757 4868.78 101.757C4869.95 101.757 4870.99 101.837 4871.9 101.997C4872.86 102.157 4873.66 102.477 4874.3 102.957C4874.94 103.437 4875.42 104.104 4875.74 104.957C4876.11 105.757 4876.3 106.824 4876.3 108.157V140.717ZM4909.6 116.157C4909.6 114.504 4909.12 113.304 4908.16 112.557C4907.25 111.757 4906 111.357 4904.4 111.357C4903.33 111.357 4902.26 111.49 4901.2 111.757C4900.18 112.024 4899.3 112.424 4898.56 112.957V140.717C4898.02 140.877 4897.17 141.037 4896 141.197C4894.88 141.357 4893.7 141.437 4892.48 141.437C4891.3 141.437 4890.24 141.357 4889.28 141.197C4888.37 141.037 4887.6 140.717 4886.96 140.237C4886.32 139.757 4885.81 139.117 4885.44 138.317C4885.12 137.464 4884.96 136.37 4884.96 135.037V111.037C4884.96 109.597 4885.25 108.424 4885.84 107.517C4886.48 106.61 4887.33 105.784 4888.4 105.037C4890.21 103.757 4892.48 102.717 4895.2 101.917C4897.97 101.117 4901.04 100.717 4904.4 100.717C4910.42 100.717 4915.06 102.05 4918.32 104.717C4921.57 107.33 4923.2 110.984 4923.2 115.677V140.717C4922.66 140.877 4921.81 141.037 4920.64 141.197C4919.52 141.357 4918.34 141.437 4917.12 141.437C4915.94 141.437 4914.88 141.357 4913.92 141.197C4913.01 141.037 4912.24 140.717 4911.6 140.237C4910.96 139.757 4910.45 139.117 4910.08 138.317C4909.76 137.464 4909.6 136.37 4909.6 135.037V116.157ZM4945.2 127.437C4945.2 128.824 4945.62 129.81 4946.48 130.397C4947.38 130.984 4948.64 131.277 4950.24 131.277C4951.04 131.277 4951.86 131.224 4952.72 131.117C4953.57 130.957 4954.32 130.77 4954.96 130.557C4955.44 131.144 4955.84 131.81 4956.16 132.557C4956.53 133.25 4956.72 134.104 4956.72 135.117C4956.72 137.144 4955.94 138.797 4954.4 140.077C4952.9 141.357 4950.24 141.997 4946.4 141.997C4941.7 141.997 4938.08 140.93 4935.52 138.797C4933.01 136.664 4931.76 133.197 4931.76 128.397V94.1569C4932.34 93.9969 4933.17 93.8369 4934.24 93.6769C4935.36 93.4635 4936.53 93.3569 4937.76 93.3569C4940.1 93.3569 4941.92 93.7835 4943.2 94.6369C4944.53 95.4369 4945.2 97.1702 4945.2 99.8369V104.957H4955.68C4956 105.544 4956.29 106.29 4956.56 107.197C4956.88 108.05 4957.04 109.01 4957.04 110.077C4957.04 111.944 4956.61 113.304 4955.76 114.157C4954.96 114.957 4953.86 115.357 4952.48 115.357H4945.2V127.437ZM4983.72 142.077C4980.57 142.077 4977.64 141.65 4974.92 140.797C4972.25 139.89 4969.91 138.557 4967.88 136.797C4965.91 135.037 4964.33 132.824 4963.16 130.157C4962.04 127.49 4961.48 124.37 4961.48 120.797C4961.48 117.277 4962.04 114.264 4963.16 111.757C4964.33 109.197 4965.85 107.117 4967.72 105.517C4969.59 103.864 4971.72 102.664 4974.12 101.917C4976.52 101.117 4978.97 100.717 4981.48 100.717C4984.31 100.717 4986.87 101.144 4989.16 101.997C4991.51 102.85 4993.51 104.024 4995.16 105.517C4996.87 107.01 4998.17 108.797 4999.08 110.877C5000.04 112.957 5000.52 115.224 5000.52 117.677C5000.52 119.49 5000.01 120.877 4999 121.837C4997.99 122.797 4996.57 123.41 4994.76 123.677L4975 126.637C4975.59 128.397 4976.79 129.73 4978.6 130.637C4980.41 131.49 4982.49 131.917 4984.84 131.917C4987.03 131.917 4989.08 131.65 4991 131.117C4992.97 130.53 4994.57 129.864 4995.8 129.117C4996.65 129.65 4997.37 130.397 4997.96 131.357C4998.55 132.317 4998.84 133.33 4998.84 134.397C4998.84 136.797 4997.72 138.584 4995.48 139.757C4993.77 140.664 4991.85 141.277 4989.72 141.597C4987.59 141.917 4985.59 142.077 4983.72 142.077ZM4981.48 110.637C4980.2 110.637 4979.08 110.85 4978.12 111.277C4977.21 111.704 4976.47 112.264 4975.88 112.957C4975.29 113.597 4974.84 114.344 4974.52 115.197C4974.25 115.997 4974.09 116.824 4974.04 117.677L4987.72 115.437C4987.56 114.37 4986.97 113.304 4985.96 112.237C4984.95 111.17 4983.45 110.637 4981.48 110.637ZM5031.71 116.157C5031.71 114.504 5031.23 113.304 5030.27 112.557C5029.36 111.757 5028.11 111.357 5026.51 111.357C5025.44 111.357 5024.37 111.49 5023.31 111.757C5022.29 112.024 5021.41 112.424 5020.67 112.957V140.717C5020.13 140.877 5019.28 141.037 5018.11 141.197C5016.99 141.357 5015.81 141.437 5014.59 141.437C5013.41 141.437 5012.35 141.357 5011.39 141.197C5010.48 141.037 5009.71 140.717 5009.07 140.237C5008.43 139.757 5007.92 139.117 5007.55 138.317C5007.23 137.464 5007.07 136.37 5007.07 135.037V111.037C5007.07 109.597 5007.36 108.424 5007.95 107.517C5008.59 106.61 5009.44 105.784 5010.51 105.037C5012.32 103.757 5014.59 102.717 5017.31 101.917C5020.08 101.117 5023.15 100.717 5026.51 100.717C5032.53 100.717 5037.17 102.05 5040.43 104.717C5043.68 107.33 5045.31 110.984 5045.31 115.677V140.717C5044.77 140.877 5043.92 141.037 5042.75 141.197C5041.63 141.357 5040.45 141.437 5039.23 141.437C5038.05 141.437 5036.99 141.357 5036.03 141.197C5035.12 141.037 5034.35 140.717 5033.71 140.237C5033.07 139.757 5032.56 139.117 5032.19 138.317C5031.87 137.464 5031.71 136.37 5031.71 135.037V116.157ZM5067.31 127.437C5067.31 128.824 5067.73 129.81 5068.59 130.397C5069.49 130.984 5070.75 131.277 5072.35 131.277C5073.15 131.277 5073.97 131.224 5074.83 131.117C5075.68 130.957 5076.43 130.77 5077.07 130.557C5077.55 131.144 5077.95 131.81 5078.27 132.557C5078.64 133.25 5078.83 134.104 5078.83 135.117C5078.83 137.144 5078.05 138.797 5076.51 140.077C5075.01 141.357 5072.35 141.997 5068.51 141.997C5063.81 141.997 5060.19 140.93 5057.63 138.797C5055.12 136.664 5053.87 133.197 5053.87 128.397V94.1569C5054.45 93.9969 5055.28 93.8369 5056.35 93.6769C5057.47 93.4635 5058.64 93.3569 5059.87 93.3569C5062.21 93.3569 5064.03 93.7835 5065.31 94.6369C5066.64 95.4369 5067.31 97.1702 5067.31 99.8369V104.957H5077.79C5078.11 105.544 5078.4 106.29 5078.67 107.197C5078.99 108.05 5079.15 109.01 5079.15 110.077C5079.15 111.944 5078.72 113.304 5077.87 114.157C5077.07 114.957 5075.97 115.357 5074.59 115.357H5067.31V127.437ZM5085.42 91.1169C5085.42 89.0902 5086.08 87.3835 5087.42 85.9969C5088.8 84.6102 5090.62 83.9169 5092.86 83.9169C5095.1 83.9169 5096.88 84.6102 5098.22 85.9969C5099.6 87.3835 5100.3 89.0902 5100.3 91.1169C5100.3 93.1435 5099.6 94.8502 5098.22 96.2369C5096.88 97.6235 5095.1 98.3169 5092.86 98.3169C5090.62 98.3169 5088.8 97.6235 5087.42 96.2369C5086.08 94.8502 5085.42 93.1435 5085.42 91.1169ZM5099.66 140.717C5099.07 140.824 5098.19 140.957 5097.02 141.117C5095.9 141.33 5094.75 141.437 5093.58 141.437C5092.4 141.437 5091.34 141.357 5090.38 141.197C5089.47 141.037 5088.7 140.717 5088.06 140.237C5087.42 139.757 5086.91 139.117 5086.54 138.317C5086.22 137.464 5086.06 136.37 5086.06 135.037V102.477C5086.64 102.37 5087.5 102.237 5088.62 102.077C5089.79 101.864 5090.96 101.757 5092.14 101.757C5093.31 101.757 5094.35 101.837 5095.26 101.997C5096.22 102.157 5097.02 102.477 5097.66 102.957C5098.3 103.437 5098.78 104.104 5099.1 104.957C5099.47 105.757 5099.66 106.824 5099.66 108.157V140.717ZM5148.56 121.357C5148.56 124.664 5148.05 127.624 5147.04 130.237C5146.02 132.797 5144.58 134.957 5142.72 136.717C5140.9 138.477 5138.72 139.81 5136.16 140.717C5133.6 141.624 5130.74 142.077 5127.6 142.077C5124.45 142.077 5121.6 141.597 5119.04 140.637C5116.48 139.677 5114.26 138.317 5112.4 136.557C5110.58 134.744 5109.17 132.557 5108.16 129.997C5107.14 127.437 5106.64 124.557 5106.64 121.357C5106.64 118.21 5107.14 115.357 5108.16 112.797C5109.17 110.237 5110.58 108.077 5112.4 106.317C5114.26 104.504 5116.48 103.117 5119.04 102.157C5121.6 101.197 5124.45 100.717 5127.6 100.717C5130.74 100.717 5133.6 101.224 5136.16 102.237C5138.72 103.197 5140.9 104.584 5142.72 106.397C5144.58 108.157 5146.02 110.317 5147.04 112.877C5148.05 115.437 5148.56 118.264 5148.56 121.357ZM5120.56 121.357C5120.56 124.61 5121.17 127.117 5122.4 128.877C5123.68 130.584 5125.44 131.437 5127.68 131.437C5129.92 131.437 5131.62 130.557 5132.8 128.797C5134.02 127.037 5134.64 124.557 5134.64 121.357C5134.64 118.157 5134.02 115.704 5132.8 113.997C5131.57 112.237 5129.84 111.357 5127.6 111.357C5125.36 111.357 5123.62 112.237 5122.4 113.997C5121.17 115.704 5120.56 118.157 5120.56 121.357ZM5179.83 116.157C5179.83 114.504 5179.35 113.304 5178.39 112.557C5177.48 111.757 5176.23 111.357 5174.63 111.357C5173.56 111.357 5172.5 111.49 5171.43 111.757C5170.42 112.024 5169.54 112.424 5168.79 112.957V140.717C5168.26 140.877 5167.4 141.037 5166.23 141.197C5165.11 141.357 5163.94 141.437 5162.71 141.437C5161.54 141.437 5160.47 141.357 5159.51 141.197C5158.6 141.037 5157.83 140.717 5157.19 140.237C5156.55 139.757 5156.04 139.117 5155.67 138.317C5155.35 137.464 5155.19 136.37 5155.19 135.037V111.037C5155.19 109.597 5155.48 108.424 5156.07 107.517C5156.71 106.61 5157.56 105.784 5158.63 105.037C5160.44 103.757 5162.71 102.717 5165.43 101.917C5168.2 101.117 5171.27 100.717 5174.63 100.717C5180.66 100.717 5185.3 102.05 5188.55 104.717C5191.8 107.33 5193.43 110.984 5193.43 115.677V140.717C5192.9 140.877 5192.04 141.037 5190.87 141.197C5189.75 141.357 5188.58 141.437 5187.35 141.437C5186.18 141.437 5185.11 141.357 5184.15 141.197C5183.24 141.037 5182.47 140.717 5181.83 140.237C5181.19 139.757 5180.68 139.117 5180.31 138.317C5179.99 137.464 5179.83 136.37 5179.83 135.037V116.157Z" fill="black"/>
</svg>
