<svg width="5388" height="240" viewBox="0 0 5388 240" fill="none" xmlns="http://www.w3.org/2000/svg">
<g clip-path="url(#clip0_696_858)">
<rect width="5388" height="240" fill="#CDDC39"/>
<rect width="240" height="240" fill="#FF7401"/>
<path d="M134.531 86.2314L173.818 46.9443L193.825 66.9512L154.538 106.237L210.097 106.238V134.531H154.537L193.823 173.817L173.816 193.824L134.531 154.539V210.097H106.237V154.538L66.9521 193.823L46.9453 173.817L86.2314 134.531H30.6719V106.237H86.2295L46.9434 66.9512L66.9502 46.9443L106.237 86.2314V30.6719H134.531V86.2314Z" fill="#5434E2"/>
<path d="M383.586 152.5V92.9H403.026C409.32 92.9 414.786 94.18 419.426 96.74C424.12 99.2467 427.746 102.74 430.306 107.22C432.866 111.647 434.146 116.793 434.146 122.66C434.146 128.473 432.866 133.647 430.306 138.18C427.746 142.66 424.12 146.18 419.426 148.74C414.786 151.247 409.32 152.5 403.026 152.5H383.586ZM394.466 142.9H403.266C407.32 142.9 410.813 142.073 413.746 140.42C416.733 138.713 419.053 136.367 420.706 133.38C422.36 130.34 423.186 126.767 423.186 122.66C423.186 118.5 422.36 114.927 420.706 111.94C419.053 108.953 416.733 106.633 413.746 104.98C410.813 103.327 407.32 102.5 403.266 102.5H394.466V142.9ZM462.565 153.46C458.085 153.46 454.165 152.447 450.805 150.42C447.445 148.393 444.832 145.647 442.965 142.18C441.098 138.713 440.165 134.873 440.165 130.66C440.165 126.287 441.098 122.42 442.965 119.06C444.885 115.647 447.472 112.953 450.725 110.98C454.032 109.007 457.712 108.02 461.765 108.02C465.178 108.02 468.165 108.58 470.725 109.7C473.338 110.82 475.552 112.367 477.365 114.34C479.178 116.313 480.565 118.58 481.525 121.14C482.485 123.647 482.965 126.367 482.965 129.3C482.965 130.047 482.912 130.82 482.805 131.62C482.752 132.42 482.618 133.113 482.405 133.7H448.805V125.7H476.485L471.525 129.46C472.005 127.007 471.872 124.82 471.125 122.9C470.432 120.98 469.258 119.46 467.605 118.34C466.005 117.22 464.058 116.66 461.765 116.66C459.578 116.66 457.632 117.22 455.925 118.34C454.218 119.407 452.912 121.007 452.005 123.14C451.152 125.22 450.832 127.753 451.045 130.74C450.832 133.407 451.178 135.78 452.085 137.86C453.045 139.887 454.432 141.46 456.245 142.58C458.112 143.7 460.245 144.26 462.645 144.26C465.045 144.26 467.072 143.753 468.725 142.74C470.432 141.727 471.765 140.367 472.725 138.66L481.205 142.82C480.352 144.9 479.018 146.74 477.205 148.34C475.392 149.94 473.232 151.193 470.725 152.1C468.272 153.007 465.552 153.46 462.565 153.46ZM507.469 153.46C502.829 153.46 498.776 152.367 495.309 150.18C491.896 147.94 489.549 144.927 488.269 141.14L496.109 137.38C497.229 139.833 498.776 141.753 500.749 143.14C502.776 144.527 505.016 145.22 507.469 145.22C509.389 145.22 510.909 144.793 512.029 143.94C513.149 143.087 513.709 141.967 513.709 140.58C513.709 139.727 513.469 139.033 512.989 138.5C512.563 137.913 511.949 137.433 511.149 137.06C510.403 136.633 509.576 136.287 508.669 136.02L501.549 134.02C497.869 132.953 495.069 131.327 493.149 129.14C491.283 126.953 490.349 124.367 490.349 121.38C490.349 118.713 491.016 116.393 492.349 114.42C493.736 112.393 495.629 110.82 498.029 109.7C500.483 108.58 503.283 108.02 506.429 108.02C510.536 108.02 514.163 109.007 517.309 110.98C520.456 112.953 522.696 115.727 524.029 119.3L516.029 123.06C515.283 121.087 514.029 119.513 512.269 118.34C510.509 117.167 508.536 116.58 506.349 116.58C504.589 116.58 503.203 116.98 502.189 117.78C501.176 118.58 500.669 119.62 500.669 120.9C500.669 121.7 500.883 122.393 501.309 122.98C501.736 123.567 502.323 124.047 503.069 124.42C503.869 124.793 504.776 125.14 505.789 125.46L512.749 127.54C516.323 128.607 519.069 130.207 520.989 132.34C522.963 134.473 523.949 137.087 523.949 140.18C523.949 142.793 523.256 145.113 521.869 147.14C520.483 149.113 518.563 150.66 516.109 151.78C513.656 152.9 510.776 153.46 507.469 153.46ZM532.003 152.5V108.98H542.483V152.5H532.003ZM532.003 104.1V92.9H542.483V104.1H532.003ZM573.279 170.1C570.026 170.1 567.013 169.567 564.239 168.5C561.466 167.433 559.066 165.94 557.039 164.02C555.066 162.153 553.626 159.94 552.719 157.38L562.479 153.7C563.119 155.727 564.373 157.353 566.239 158.58C568.159 159.86 570.506 160.5 573.279 160.5C575.413 160.5 577.279 160.1 578.879 159.3C580.533 158.5 581.813 157.327 582.719 155.78C583.626 154.287 584.079 152.473 584.079 150.34V140.42L586.079 142.82C584.586 145.433 582.586 147.407 580.079 148.74C577.573 150.073 574.719 150.74 571.519 150.74C567.466 150.74 563.839 149.807 560.639 147.94C557.439 146.073 554.933 143.513 553.119 140.26C551.306 137.007 550.399 133.353 550.399 129.3C550.399 125.193 551.306 121.54 553.119 118.34C554.933 115.14 557.413 112.633 560.559 110.82C563.706 108.953 567.279 108.02 571.279 108.02C574.533 108.02 577.386 108.713 579.839 110.1C582.346 111.433 584.426 113.38 586.079 115.94L584.639 118.58V108.98H594.559V150.34C594.559 154.127 593.626 157.513 591.759 160.5C589.946 163.487 587.439 165.833 584.239 167.54C581.093 169.247 577.439 170.1 573.279 170.1ZM572.799 141.06C575.039 141.06 576.986 140.58 578.639 139.62C580.346 138.607 581.679 137.22 582.639 135.46C583.599 133.7 584.079 131.673 584.079 129.38C584.079 127.14 583.573 125.14 582.559 123.38C581.599 121.567 580.266 120.153 578.559 119.14C576.906 118.127 574.986 117.62 572.799 117.62C570.613 117.62 568.639 118.127 566.879 119.14C565.119 120.153 563.733 121.567 562.719 123.38C561.759 125.14 561.279 127.14 561.279 129.38C561.279 131.62 561.759 133.62 562.719 135.38C563.733 137.14 565.093 138.527 566.799 139.54C568.559 140.553 570.559 141.06 572.799 141.06ZM604.347 152.5V108.98H614.187V117.54L613.387 116.02C614.4 113.407 616.053 111.433 618.347 110.1C620.693 108.713 623.413 108.02 626.507 108.02C629.707 108.02 632.533 108.713 634.987 110.1C637.493 111.487 639.44 113.433 640.827 115.94C642.213 118.393 642.907 121.247 642.907 124.5V152.5H632.427V126.98C632.427 125.06 632.053 123.407 631.307 122.02C630.56 120.633 629.52 119.567 628.187 118.82C626.907 118.02 625.387 117.62 623.627 117.62C621.92 117.62 620.4 118.02 619.067 118.82C617.733 119.567 616.693 120.633 615.947 122.02C615.2 123.407 614.827 125.06 614.827 126.98V152.5H604.347ZM676.947 152.5L661.987 108.98H673.027L683.987 142.02L680.147 141.94L691.827 108.98H701.107L712.707 141.94L708.867 142.02L719.827 108.98H730.867L715.907 152.5H706.547L694.707 118.02H698.227L686.227 152.5H676.947ZM736.612 152.5V108.98H747.092V152.5H736.612ZM736.612 104.1V92.9H747.092V104.1H736.612ZM776.609 152.98C771.702 152.98 767.889 151.647 765.169 148.98C762.502 146.26 761.169 142.447 761.169 137.54V118.34H753.649V108.98H754.449C756.582 108.98 758.235 108.42 759.409 107.3C760.582 106.18 761.169 104.553 761.169 102.42V99.06H771.649V108.98H781.649V118.34H771.649V136.98C771.649 138.42 771.889 139.647 772.369 140.66C772.902 141.673 773.702 142.447 774.769 142.98C775.889 143.513 777.302 143.78 779.009 143.78C779.382 143.78 779.809 143.753 780.289 143.7C780.822 143.647 781.329 143.593 781.809 143.54V152.5C781.062 152.607 780.209 152.713 779.249 152.82C778.289 152.927 777.409 152.98 776.609 152.98ZM789.816 152.5V91.94H800.296V117.54L798.856 116.02C799.869 113.407 801.522 111.433 803.816 110.1C806.162 108.713 808.882 108.02 811.976 108.02C815.176 108.02 818.002 108.713 820.456 110.1C822.962 111.487 824.909 113.433 826.296 115.94C827.682 118.393 828.376 121.247 828.376 124.5V152.5H817.896V126.98C817.896 125.06 817.522 123.407 816.776 122.02C816.029 120.633 814.989 119.567 813.656 118.82C812.376 118.02 810.856 117.62 809.096 117.62C807.389 117.62 805.869 118.02 804.536 118.82C803.202 119.567 802.162 120.633 801.416 122.02C800.669 123.407 800.296 125.06 800.296 126.98V152.5H789.816ZM851.456 152.5V108.98H861.936V152.5H851.456ZM851.456 104.1V92.9H861.936V104.1H851.456ZM871.612 152.5V108.98H881.452V117.54L880.652 116.02C881.666 113.407 883.319 111.433 885.612 110.1C887.959 108.713 890.679 108.02 893.772 108.02C896.972 108.02 899.799 108.713 902.252 110.1C904.759 111.487 906.706 113.433 908.092 115.94C909.479 118.393 910.172 121.247 910.172 124.5V152.5H899.692V126.98C899.692 125.06 899.319 123.407 898.572 122.02C897.826 120.633 896.786 119.567 895.452 118.82C894.172 118.02 892.652 117.62 890.892 117.62C889.186 117.62 887.666 118.02 886.332 118.82C884.999 119.567 883.959 120.633 883.212 122.02C882.466 123.407 882.092 125.06 882.092 126.98V152.5H871.612ZM938.874 152.98C933.968 152.98 930.154 151.647 927.434 148.98C924.768 146.26 923.434 142.447 923.434 137.54V118.34H915.914V108.98H916.714C918.848 108.98 920.501 108.42 921.674 107.3C922.848 106.18 923.434 104.553 923.434 102.42V99.06H933.914V108.98H943.914V118.34H933.914V136.98C933.914 138.42 934.154 139.647 934.634 140.66C935.168 141.673 935.968 142.447 937.034 142.98C938.154 143.513 939.568 143.78 941.274 143.78C941.648 143.78 942.074 143.753 942.554 143.7C943.088 143.647 943.594 143.593 944.074 143.54V152.5C943.328 152.607 942.474 152.713 941.514 152.82C940.554 152.927 939.674 152.98 938.874 152.98ZM972.331 153.46C967.851 153.46 963.931 152.447 960.571 150.42C957.211 148.393 954.597 145.647 952.731 142.18C950.864 138.713 949.931 134.873 949.931 130.66C949.931 126.287 950.864 122.42 952.731 119.06C954.651 115.647 957.237 112.953 960.491 110.98C963.797 109.007 967.477 108.02 971.531 108.02C974.944 108.02 977.931 108.58 980.491 109.7C983.104 110.82 985.317 112.367 987.131 114.34C988.944 116.313 990.331 118.58 991.291 121.14C992.251 123.647 992.731 126.367 992.731 129.3C992.731 130.047 992.677 130.82 992.571 131.62C992.517 132.42 992.384 133.113 992.171 133.7H958.571V125.7H986.251L981.291 129.46C981.771 127.007 981.637 124.82 980.891 122.9C980.197 120.98 979.024 119.46 977.371 118.34C975.771 117.22 973.824 116.66 971.531 116.66C969.344 116.66 967.397 117.22 965.691 118.34C963.984 119.407 962.677 121.007 961.771 123.14C960.917 125.22 960.597 127.753 960.811 130.74C960.597 133.407 960.944 135.78 961.851 137.86C962.811 139.887 964.197 141.46 966.011 142.58C967.877 143.7 970.011 144.26 972.411 144.26C974.811 144.26 976.837 143.753 978.491 142.74C980.197 141.727 981.531 140.367 982.491 138.66L990.971 142.82C990.117 144.9 988.784 146.74 986.971 148.34C985.157 149.94 982.997 151.193 980.491 152.1C978.037 153.007 975.317 153.46 972.331 153.46ZM1000.67 152.5V108.98H1010.51V117.54L1009.71 116.02C1010.73 113.407 1012.38 111.433 1014.67 110.1C1017.02 108.713 1019.74 108.02 1022.83 108.02C1026.03 108.02 1028.86 108.713 1031.31 110.1C1033.82 111.487 1035.77 113.433 1037.15 115.94C1038.54 118.393 1039.23 121.247 1039.23 124.5V152.5H1028.75V126.98C1028.75 125.06 1028.38 123.407 1027.63 122.02C1026.89 120.633 1025.85 119.567 1024.51 118.82C1023.23 118.02 1021.71 117.62 1019.95 117.62C1018.25 117.62 1016.73 118.02 1015.39 118.82C1014.06 119.567 1013.02 120.633 1012.27 122.02C1011.53 123.407 1011.15 125.06 1011.15 126.98V152.5H1000.67ZM1067.94 152.98C1063.03 152.98 1059.22 151.647 1056.5 148.98C1053.83 146.26 1052.5 142.447 1052.5 137.54V118.34H1044.98V108.98H1045.78C1047.91 108.98 1049.56 108.42 1050.74 107.3C1051.91 106.18 1052.5 104.553 1052.5 102.42V99.06H1062.98V108.98H1072.98V118.34H1062.98V136.98C1062.98 138.42 1063.22 139.647 1063.7 140.66C1064.23 141.673 1065.03 142.447 1066.1 142.98C1067.22 143.513 1068.63 143.78 1070.34 143.78C1070.71 143.78 1071.14 143.753 1071.62 143.7C1072.15 143.647 1072.66 143.593 1073.14 143.54V152.5C1072.39 152.607 1071.54 152.713 1070.58 152.82C1069.62 152.927 1068.74 152.98 1067.94 152.98ZM1081.14 152.5V108.98H1091.62V152.5H1081.14ZM1081.14 104.1V92.9H1091.62V104.1H1081.14ZM1122.58 153.46C1118.31 153.46 1114.42 152.473 1110.9 150.5C1107.43 148.527 1104.66 145.833 1102.58 142.42C1100.55 139.007 1099.54 135.113 1099.54 130.74C1099.54 126.367 1100.55 122.473 1102.58 119.06C1104.66 115.647 1107.43 112.953 1110.9 110.98C1114.37 109.007 1118.26 108.02 1122.58 108.02C1126.85 108.02 1130.71 109.007 1134.18 110.98C1137.65 112.953 1140.39 115.647 1142.42 119.06C1144.5 122.42 1145.54 126.313 1145.54 130.74C1145.54 135.113 1144.5 139.007 1142.42 142.42C1140.34 145.833 1137.57 148.527 1134.1 150.5C1130.63 152.473 1126.79 153.46 1122.58 153.46ZM1122.58 143.86C1124.93 143.86 1126.98 143.3 1128.74 142.18C1130.55 141.06 1131.97 139.513 1132.98 137.54C1134.05 135.513 1134.58 133.247 1134.58 130.74C1134.58 128.18 1134.05 125.94 1132.98 124.02C1131.97 122.047 1130.55 120.5 1128.74 119.38C1126.98 118.207 1124.93 117.62 1122.58 117.62C1120.18 117.62 1118.07 118.207 1116.26 119.38C1114.45 120.5 1113.01 122.047 1111.94 124.02C1110.93 125.94 1110.42 128.18 1110.42 130.74C1110.42 133.247 1110.93 135.513 1111.94 137.54C1113.01 139.513 1114.45 141.06 1116.26 142.18C1118.07 143.3 1120.18 143.86 1122.58 143.86ZM1153.49 152.5V108.98H1163.33V117.54L1162.53 116.02C1163.54 113.407 1165.19 111.433 1167.49 110.1C1169.83 108.713 1172.55 108.02 1175.65 108.02C1178.85 108.02 1181.67 108.713 1184.13 110.1C1186.63 111.487 1188.58 113.433 1189.97 115.94C1191.35 118.393 1192.05 121.247 1192.05 124.5V152.5H1181.57V126.98C1181.57 125.06 1181.19 123.407 1180.45 122.02C1179.7 120.633 1178.66 119.567 1177.33 118.82C1176.05 118.02 1174.53 117.62 1172.77 117.62C1171.06 117.62 1169.54 118.02 1168.21 118.82C1166.87 119.567 1165.83 120.633 1165.09 122.02C1164.34 123.407 1163.97 125.06 1163.97 126.98V152.5H1153.49Z" fill="black"/>
<rect x="1333.86" width="240" height="240" fill="#00723B"/>
<circle cx="1410.92" cy="77.061" r="43.3227" fill="#FFCA00"/>
<circle cx="1410.92" cy="163.706" r="43.3227" fill="#FFCA00"/>
<circle cx="1497.56" cy="77.061" r="43.3227" fill="#FFCA00"/>
<circle cx="1497.56" cy="163.706" r="43.3227" fill="#FFCA00"/>
<path d="M1717.44 152.5V92.9H1736.88C1743.18 92.9 1748.64 94.18 1753.28 96.74C1757.98 99.2467 1761.6 102.74 1764.16 107.22C1766.72 111.647 1768 116.793 1768 122.66C1768 128.473 1766.72 133.647 1764.16 138.18C1761.6 142.66 1757.98 146.18 1753.28 148.74C1748.64 151.247 1743.18 152.5 1736.88 152.5H1717.44ZM1728.32 142.9H1737.12C1741.18 142.9 1744.67 142.073 1747.6 140.42C1750.59 138.713 1752.91 136.367 1754.56 133.38C1756.22 130.34 1757.04 126.767 1757.04 122.66C1757.04 118.5 1756.22 114.927 1754.56 111.94C1752.91 108.953 1750.59 106.633 1747.6 104.98C1744.67 103.327 1741.18 102.5 1737.12 102.5H1728.32V142.9ZM1796.42 153.46C1791.94 153.46 1788.02 152.447 1784.66 150.42C1781.3 148.393 1778.69 145.647 1776.82 142.18C1774.96 138.713 1774.02 134.873 1774.02 130.66C1774.02 126.287 1774.96 122.42 1776.82 119.06C1778.74 115.647 1781.33 112.953 1784.58 110.98C1787.89 109.007 1791.57 108.02 1795.62 108.02C1799.04 108.02 1802.02 108.58 1804.58 109.7C1807.2 110.82 1809.41 112.367 1811.22 114.34C1813.04 116.313 1814.42 118.58 1815.38 121.14C1816.34 123.647 1816.82 126.367 1816.82 129.3C1816.82 130.047 1816.77 130.82 1816.66 131.62C1816.61 132.42 1816.48 133.113 1816.26 133.7H1782.66V125.7H1810.34L1805.38 129.46C1805.86 127.007 1805.73 124.82 1804.98 122.9C1804.29 120.98 1803.12 119.46 1801.46 118.34C1799.86 117.22 1797.92 116.66 1795.62 116.66C1793.44 116.66 1791.49 117.22 1789.78 118.34C1788.08 119.407 1786.77 121.007 1785.86 123.14C1785.01 125.22 1784.69 127.753 1784.9 130.74C1784.69 133.407 1785.04 135.78 1785.94 137.86C1786.9 139.887 1788.29 141.46 1790.1 142.58C1791.97 143.7 1794.1 144.26 1796.5 144.26C1798.9 144.26 1800.93 143.753 1802.58 142.74C1804.29 141.727 1805.62 140.367 1806.58 138.66L1815.06 142.82C1814.21 144.9 1812.88 146.74 1811.06 148.34C1809.25 149.94 1807.09 151.193 1804.58 152.1C1802.13 153.007 1799.41 153.46 1796.42 153.46ZM1841.33 153.46C1836.69 153.46 1832.63 152.367 1829.17 150.18C1825.75 147.94 1823.41 144.927 1822.13 141.14L1829.97 137.38C1831.09 139.833 1832.63 141.753 1834.61 143.14C1836.63 144.527 1838.87 145.22 1841.33 145.22C1843.25 145.22 1844.77 144.793 1845.89 143.94C1847.01 143.087 1847.57 141.967 1847.57 140.58C1847.57 139.727 1847.33 139.033 1846.85 138.5C1846.42 137.913 1845.81 137.433 1845.01 137.06C1844.26 136.633 1843.43 136.287 1842.53 136.02L1835.41 134.02C1831.73 132.953 1828.93 131.327 1827.01 129.14C1825.14 126.953 1824.21 124.367 1824.21 121.38C1824.21 118.713 1824.87 116.393 1826.21 114.42C1827.59 112.393 1829.49 110.82 1831.89 109.7C1834.34 108.58 1837.14 108.02 1840.29 108.02C1844.39 108.02 1848.02 109.007 1851.17 110.98C1854.31 112.953 1856.55 115.727 1857.89 119.3L1849.89 123.06C1849.14 121.087 1847.89 119.513 1846.13 118.34C1844.37 117.167 1842.39 116.58 1840.21 116.58C1838.45 116.58 1837.06 116.98 1836.05 117.78C1835.03 118.58 1834.53 119.62 1834.53 120.9C1834.53 121.7 1834.74 122.393 1835.17 122.98C1835.59 123.567 1836.18 124.047 1836.93 124.42C1837.73 124.793 1838.63 125.14 1839.65 125.46L1846.61 127.54C1850.18 128.607 1852.93 130.207 1854.85 132.34C1856.82 134.473 1857.81 137.087 1857.81 140.18C1857.81 142.793 1857.11 145.113 1855.73 147.14C1854.34 149.113 1852.42 150.66 1849.97 151.78C1847.51 152.9 1844.63 153.46 1841.33 153.46ZM1865.86 152.5V108.98H1876.34V152.5H1865.86ZM1865.86 104.1V92.9H1876.34V104.1H1865.86ZM1907.14 170.1C1903.88 170.1 1900.87 169.567 1898.1 168.5C1895.32 167.433 1892.92 165.94 1890.9 164.02C1888.92 162.153 1887.48 159.94 1886.58 157.38L1896.34 153.7C1896.98 155.727 1898.23 157.353 1900.1 158.58C1902.02 159.86 1904.36 160.5 1907.14 160.5C1909.27 160.5 1911.14 160.1 1912.74 159.3C1914.39 158.5 1915.67 157.327 1916.58 155.78C1917.48 154.287 1917.94 152.473 1917.94 150.34V140.42L1919.94 142.82C1918.44 145.433 1916.44 147.407 1913.94 148.74C1911.43 150.073 1908.58 150.74 1905.38 150.74C1901.32 150.74 1897.7 149.807 1894.5 147.94C1891.3 146.073 1888.79 143.513 1886.98 140.26C1885.16 137.007 1884.26 133.353 1884.26 129.3C1884.26 125.193 1885.16 121.54 1886.98 118.34C1888.79 115.14 1891.27 112.633 1894.42 110.82C1897.56 108.953 1901.14 108.02 1905.14 108.02C1908.39 108.02 1911.24 108.713 1913.7 110.1C1916.2 111.433 1918.28 113.38 1919.94 115.94L1918.5 118.58V108.98H1928.42V150.34C1928.42 154.127 1927.48 157.513 1925.62 160.5C1923.8 163.487 1921.3 165.833 1918.1 167.54C1914.95 169.247 1911.3 170.1 1907.14 170.1ZM1906.66 141.06C1908.9 141.06 1910.84 140.58 1912.5 139.62C1914.2 138.607 1915.54 137.22 1916.5 135.46C1917.46 133.7 1917.94 131.673 1917.94 129.38C1917.94 127.14 1917.43 125.14 1916.42 123.38C1915.46 121.567 1914.12 120.153 1912.42 119.14C1910.76 118.127 1908.84 117.62 1906.66 117.62C1904.47 117.62 1902.5 118.127 1900.74 119.14C1898.98 120.153 1897.59 121.567 1896.58 123.38C1895.62 125.14 1895.14 127.14 1895.14 129.38C1895.14 131.62 1895.62 133.62 1896.58 135.38C1897.59 137.14 1898.95 138.527 1900.66 139.54C1902.42 140.553 1904.42 141.06 1906.66 141.06ZM1938.2 152.5V108.98H1948.04V117.54L1947.24 116.02C1948.26 113.407 1949.91 111.433 1952.2 110.1C1954.55 108.713 1957.27 108.02 1960.36 108.02C1963.56 108.02 1966.39 108.713 1968.84 110.1C1971.35 111.487 1973.3 113.433 1974.68 115.94C1976.07 118.393 1976.76 121.247 1976.76 124.5V152.5H1966.28V126.98C1966.28 125.06 1965.91 123.407 1965.16 122.02C1964.42 120.633 1963.38 119.567 1962.04 118.82C1960.76 118.02 1959.24 117.62 1957.48 117.62C1955.78 117.62 1954.26 118.02 1952.92 118.82C1951.59 119.567 1950.55 120.633 1949.8 122.02C1949.06 123.407 1948.68 125.06 1948.68 126.98V152.5H1938.2ZM2010.8 152.5L1995.84 108.98H2006.88L2017.84 142.02L2014 141.94L2025.68 108.98H2034.96L2046.56 141.94L2042.72 142.02L2053.68 108.98H2064.72L2049.76 152.5H2040.4L2028.56 118.02H2032.08L2020.08 152.5H2010.8ZM2070.47 152.5V108.98H2080.95V152.5H2070.47ZM2070.47 104.1V92.9H2080.95V104.1H2070.47ZM2110.47 152.98C2105.56 152.98 2101.75 151.647 2099.03 148.98C2096.36 146.26 2095.03 142.447 2095.03 137.54V118.34H2087.51V108.98H2088.31C2090.44 108.98 2092.09 108.42 2093.27 107.3C2094.44 106.18 2095.03 104.553 2095.03 102.42V99.06H2105.51V108.98H2115.51V118.34H2105.51V136.98C2105.51 138.42 2105.75 139.647 2106.23 140.66C2106.76 141.673 2107.56 142.447 2108.63 142.98C2109.75 143.513 2111.16 143.78 2112.87 143.78C2113.24 143.78 2113.67 143.753 2114.15 143.7C2114.68 143.647 2115.19 143.593 2115.67 143.54V152.5C2114.92 152.607 2114.07 152.713 2113.11 152.82C2112.15 152.927 2111.27 152.98 2110.47 152.98ZM2123.67 152.5V91.94H2134.15V117.54L2132.71 116.02C2133.73 113.407 2135.38 111.433 2137.67 110.1C2140.02 108.713 2142.74 108.02 2145.83 108.02C2149.03 108.02 2151.86 108.713 2154.31 110.1C2156.82 111.487 2158.77 113.433 2160.15 115.94C2161.54 118.393 2162.23 121.247 2162.23 124.5V152.5H2151.75V126.98C2151.75 125.06 2151.38 123.407 2150.63 122.02C2149.89 120.633 2148.85 119.567 2147.51 118.82C2146.23 118.02 2144.71 117.62 2142.95 117.62C2141.25 117.62 2139.73 118.02 2138.39 118.82C2137.06 119.567 2136.02 120.633 2135.27 122.02C2134.53 123.407 2134.15 125.06 2134.15 126.98V152.5H2123.67ZM2185.31 152.5V108.98H2195.79V152.5H2185.31ZM2185.31 104.1V92.9H2195.79V104.1H2185.31ZM2205.47 152.5V108.98H2215.31V117.54L2214.51 116.02C2215.52 113.407 2217.18 111.433 2219.47 110.1C2221.82 108.713 2224.54 108.02 2227.63 108.02C2230.83 108.02 2233.66 108.713 2236.11 110.1C2238.62 111.487 2240.56 113.433 2241.95 115.94C2243.34 118.393 2244.03 121.247 2244.03 124.5V152.5H2233.55V126.98C2233.55 125.06 2233.18 123.407 2232.43 122.02C2231.68 120.633 2230.64 119.567 2229.31 118.82C2228.03 118.02 2226.51 117.62 2224.75 117.62C2223.04 117.62 2221.52 118.02 2220.19 118.82C2218.86 119.567 2217.82 120.633 2217.07 122.02C2216.32 123.407 2215.95 125.06 2215.95 126.98V152.5H2205.47ZM2272.73 152.98C2267.83 152.98 2264.01 151.647 2261.29 148.98C2258.63 146.26 2257.29 142.447 2257.29 137.54V118.34H2249.77V108.98H2250.57C2252.71 108.98 2254.36 108.42 2255.53 107.3C2256.71 106.18 2257.29 104.553 2257.29 102.42V99.06H2267.77V108.98H2277.77V118.34H2267.77V136.98C2267.77 138.42 2268.01 139.647 2268.49 140.66C2269.03 141.673 2269.83 142.447 2270.89 142.98C2272.01 143.513 2273.43 143.78 2275.13 143.78C2275.51 143.78 2275.93 143.753 2276.41 143.7C2276.95 143.647 2277.45 143.593 2277.93 143.54V152.5C2277.19 152.607 2276.33 152.713 2275.37 152.82C2274.41 152.927 2273.53 152.98 2272.73 152.98ZM2306.19 153.46C2301.71 153.46 2297.79 152.447 2294.43 150.42C2291.07 148.393 2288.45 145.647 2286.59 142.18C2284.72 138.713 2283.79 134.873 2283.79 130.66C2283.79 126.287 2284.72 122.42 2286.59 119.06C2288.51 115.647 2291.09 112.953 2294.35 110.98C2297.65 109.007 2301.33 108.02 2305.39 108.02C2308.8 108.02 2311.79 108.58 2314.35 109.7C2316.96 110.82 2319.17 112.367 2320.99 114.34C2322.8 116.313 2324.19 118.58 2325.15 121.14C2326.11 123.647 2326.59 126.367 2326.59 129.3C2326.59 130.047 2326.53 130.82 2326.43 131.62C2326.37 132.42 2326.24 133.113 2326.03 133.7H2292.43V125.7H2320.11L2315.15 129.46C2315.63 127.007 2315.49 124.82 2314.75 122.9C2314.05 120.98 2312.88 119.46 2311.23 118.34C2309.63 117.22 2307.68 116.66 2305.39 116.66C2303.2 116.66 2301.25 117.22 2299.55 118.34C2297.84 119.407 2296.53 121.007 2295.63 123.14C2294.77 125.22 2294.45 127.753 2294.67 130.74C2294.45 133.407 2294.8 135.78 2295.71 137.86C2296.67 139.887 2298.05 141.46 2299.87 142.58C2301.73 143.7 2303.87 144.26 2306.27 144.26C2308.67 144.26 2310.69 143.753 2312.35 142.74C2314.05 141.727 2315.39 140.367 2316.35 138.66L2324.83 142.82C2323.97 144.9 2322.64 146.74 2320.83 148.34C2319.01 149.94 2316.85 151.193 2314.35 152.1C2311.89 153.007 2309.17 153.46 2306.19 153.46ZM2334.53 152.5V108.98H2344.37V117.54L2343.57 116.02C2344.59 113.407 2346.24 111.433 2348.53 110.1C2350.88 108.713 2353.6 108.02 2356.69 108.02C2359.89 108.02 2362.72 108.713 2365.17 110.1C2367.68 111.487 2369.63 113.433 2371.01 115.94C2372.4 118.393 2373.09 121.247 2373.09 124.5V152.5H2362.61V126.98C2362.61 125.06 2362.24 123.407 2361.49 122.02C2360.75 120.633 2359.71 119.567 2358.37 118.82C2357.09 118.02 2355.57 117.62 2353.81 117.62C2352.11 117.62 2350.59 118.02 2349.25 118.82C2347.92 119.567 2346.88 120.633 2346.13 122.02C2345.39 123.407 2345.01 125.06 2345.01 126.98V152.5H2334.53ZM2401.79 152.98C2396.89 152.98 2393.07 151.647 2390.35 148.98C2387.69 146.26 2386.35 142.447 2386.35 137.54V118.34H2378.83V108.98H2379.63C2381.77 108.98 2383.42 108.42 2384.59 107.3C2385.77 106.18 2386.35 104.553 2386.35 102.42V99.06H2396.83V108.98H2406.83V118.34H2396.83V136.98C2396.83 138.42 2397.07 139.647 2397.55 140.66C2398.09 141.673 2398.89 142.447 2399.95 142.98C2401.07 143.513 2402.49 143.78 2404.19 143.78C2404.57 143.78 2404.99 143.753 2405.47 143.7C2406.01 143.647 2406.51 143.593 2406.99 143.54V152.5C2406.25 152.607 2405.39 152.713 2404.43 152.82C2403.47 152.927 2402.59 152.98 2401.79 152.98ZM2415 152.5V108.98H2425.48V152.5H2415ZM2415 104.1V92.9H2425.48V104.1H2415ZM2456.44 153.46C2452.17 153.46 2448.28 152.473 2444.76 150.5C2441.29 148.527 2438.52 145.833 2436.44 142.42C2434.41 139.007 2433.4 135.113 2433.4 130.74C2433.4 126.367 2434.41 122.473 2436.44 119.06C2438.52 115.647 2441.29 112.953 2444.76 110.98C2448.22 109.007 2452.12 108.02 2456.44 108.02C2460.7 108.02 2464.57 109.007 2468.04 110.98C2471.5 112.953 2474.25 115.647 2476.28 119.06C2478.36 122.42 2479.4 126.313 2479.4 130.74C2479.4 135.113 2478.36 139.007 2476.28 142.42C2474.2 145.833 2471.42 148.527 2467.96 150.5C2464.49 152.473 2460.65 153.46 2456.44 153.46ZM2456.44 143.86C2458.78 143.86 2460.84 143.3 2462.6 142.18C2464.41 141.06 2465.82 139.513 2466.84 137.54C2467.9 135.513 2468.44 133.247 2468.44 130.74C2468.44 128.18 2467.9 125.94 2466.84 124.02C2465.82 122.047 2464.41 120.5 2462.6 119.38C2460.84 118.207 2458.78 117.62 2456.44 117.62C2454.04 117.62 2451.93 118.207 2450.12 119.38C2448.3 120.5 2446.86 122.047 2445.8 124.02C2444.78 125.94 2444.28 128.18 2444.28 130.74C2444.28 133.247 2444.78 135.513 2445.8 137.54C2446.86 139.513 2448.3 141.06 2450.12 142.18C2451.93 143.3 2454.04 143.86 2456.44 143.86ZM2487.34 152.5V108.98H2497.18V117.54L2496.38 116.02C2497.4 113.407 2499.05 111.433 2501.34 110.1C2503.69 108.713 2506.41 108.02 2509.5 108.02C2512.7 108.02 2515.53 108.713 2517.98 110.1C2520.49 111.487 2522.44 113.433 2523.82 115.94C2525.21 118.393 2525.9 121.247 2525.9 124.5V152.5H2515.42V126.98C2515.42 125.06 2515.05 123.407 2514.3 122.02C2513.56 120.633 2512.52 119.567 2511.18 118.82C2509.9 118.02 2508.38 117.62 2506.62 117.62C2504.92 117.62 2503.4 118.02 2502.06 118.82C2500.73 119.567 2499.69 120.633 2498.94 122.02C2498.2 123.407 2497.82 125.06 2497.82 126.98V152.5H2487.34Z" fill="black"/>
<rect x="2667.71" width="240" height="240" fill="#5434E2"/>
<path d="M2780.38 44.1072C2783.17 38.3502 2791.37 38.3501 2794.17 44.1072L2801.25 58.6773C2803.15 62.5899 2807.92 64.14 2811.75 62.0916L2826.04 54.4637C2831.69 51.4496 2838.33 56.2708 2837.2 62.5719L2834.36 78.5188C2833.6 82.8011 2836.55 86.8594 2840.86 87.4576L2856.9 89.6854C2863.24 90.5656 2865.78 98.3664 2861.17 102.805L2849.5 114.037C2846.36 117.054 2846.36 122.07 2849.5 125.086L2861.17 136.319C2865.78 140.757 2863.24 148.558 2856.9 149.438L2840.86 151.666C2836.55 152.264 2833.6 156.323 2834.36 160.605L2837.2 176.552C2838.33 182.853 2831.69 187.674 2826.04 184.66L2811.75 177.032C2807.92 174.984 2803.15 176.534 2801.25 180.446L2794.17 195.016C2791.37 200.773 2783.17 200.773 2780.38 195.016L2773.3 180.446C2771.4 176.534 2766.63 174.984 2762.79 177.032L2748.5 184.66C2742.86 187.674 2736.22 182.853 2737.34 176.552L2740.18 160.605C2740.94 156.323 2737.99 152.264 2733.69 151.666L2717.64 149.438C2711.3 148.558 2708.77 140.757 2713.38 136.319L2725.05 125.086C2728.18 122.07 2728.18 117.054 2725.05 114.037L2713.38 102.805C2708.77 98.3664 2711.3 90.5656 2717.64 89.6854L2733.69 87.4576C2737.99 86.8594 2740.94 82.8011 2740.18 78.5188L2737.34 62.5719C2736.22 56.2708 2742.86 51.4496 2748.5 54.4637L2762.79 62.0916C2766.63 64.14 2771.4 62.5899 2773.3 58.6773L2780.38 44.1072Z" fill="#FFCA00"/>
<path d="M3051.3 152.5V92.9H3070.74C3077.04 92.9 3082.5 94.18 3087.14 96.74C3091.84 99.2467 3095.46 102.74 3098.02 107.22C3100.58 111.647 3101.86 116.793 3101.86 122.66C3101.86 128.473 3100.58 133.647 3098.02 138.18C3095.46 142.66 3091.84 146.18 3087.14 148.74C3082.5 151.247 3077.04 152.5 3070.74 152.5H3051.3ZM3062.18 142.9H3070.98C3075.04 142.9 3078.53 142.073 3081.46 140.42C3084.45 138.713 3086.77 136.367 3088.42 133.38C3090.08 130.34 3090.9 126.767 3090.9 122.66C3090.9 118.5 3090.08 114.927 3088.42 111.94C3086.77 108.953 3084.45 106.633 3081.46 104.98C3078.53 103.327 3075.04 102.5 3070.98 102.5H3062.18V142.9ZM3130.28 153.46C3125.8 153.46 3121.88 152.447 3118.52 150.42C3115.16 148.393 3112.55 145.647 3110.68 142.18C3108.82 138.713 3107.88 134.873 3107.88 130.66C3107.88 126.287 3108.82 122.42 3110.68 119.06C3112.6 115.647 3115.19 112.953 3118.44 110.98C3121.75 109.007 3125.43 108.02 3129.48 108.02C3132.9 108.02 3135.88 108.58 3138.44 109.7C3141.06 110.82 3143.27 112.367 3145.08 114.34C3146.9 116.313 3148.28 118.58 3149.24 121.14C3150.2 123.647 3150.68 126.367 3150.68 129.3C3150.68 130.047 3150.63 130.82 3150.52 131.62C3150.47 132.42 3150.34 133.113 3150.12 133.7H3116.52V125.7H3144.2L3139.24 129.46C3139.72 127.007 3139.59 124.82 3138.84 122.9C3138.15 120.98 3136.98 119.46 3135.32 118.34C3133.72 117.22 3131.78 116.66 3129.48 116.66C3127.3 116.66 3125.35 117.22 3123.64 118.34C3121.94 119.407 3120.63 121.007 3119.72 123.14C3118.87 125.22 3118.55 127.753 3118.76 130.74C3118.55 133.407 3118.9 135.78 3119.8 137.86C3120.76 139.887 3122.15 141.46 3123.96 142.58C3125.83 143.7 3127.96 144.26 3130.36 144.26C3132.76 144.26 3134.79 143.753 3136.44 142.74C3138.15 141.727 3139.48 140.367 3140.44 138.66L3148.92 142.82C3148.07 144.9 3146.74 146.74 3144.92 148.34C3143.11 149.94 3140.95 151.193 3138.44 152.1C3135.99 153.007 3133.27 153.46 3130.28 153.46ZM3175.19 153.46C3170.55 153.46 3166.49 152.367 3163.03 150.18C3159.61 147.94 3157.27 144.927 3155.99 141.14L3163.83 137.38C3164.95 139.833 3166.49 141.753 3168.47 143.14C3170.49 144.527 3172.73 145.22 3175.19 145.22C3177.11 145.22 3178.63 144.793 3179.75 143.94C3180.87 143.087 3181.43 141.967 3181.43 140.58C3181.43 139.727 3181.19 139.033 3180.71 138.5C3180.28 137.913 3179.67 137.433 3178.87 137.06C3178.12 136.633 3177.29 136.287 3176.39 136.02L3169.27 134.02C3165.59 132.953 3162.79 131.327 3160.87 129.14C3159 126.953 3158.07 124.367 3158.07 121.38C3158.07 118.713 3158.73 116.393 3160.07 114.42C3161.45 112.393 3163.35 110.82 3165.75 109.7C3168.2 108.58 3171 108.02 3174.15 108.02C3178.25 108.02 3181.88 109.007 3185.03 110.98C3188.17 112.953 3190.41 115.727 3191.75 119.3L3183.75 123.06C3183 121.087 3181.75 119.513 3179.99 118.34C3178.23 117.167 3176.25 116.58 3174.07 116.58C3172.31 116.58 3170.92 116.98 3169.91 117.78C3168.89 118.58 3168.39 119.62 3168.39 120.9C3168.39 121.7 3168.6 122.393 3169.03 122.98C3169.45 123.567 3170.04 124.047 3170.79 124.42C3171.59 124.793 3172.49 125.14 3173.51 125.46L3180.47 127.54C3184.04 128.607 3186.79 130.207 3188.71 132.34C3190.68 134.473 3191.67 137.087 3191.67 140.18C3191.67 142.793 3190.97 145.113 3189.59 147.14C3188.2 149.113 3186.28 150.66 3183.83 151.78C3181.37 152.9 3178.49 153.46 3175.19 153.46ZM3199.72 152.5V108.98H3210.2V152.5H3199.72ZM3199.72 104.1V92.9H3210.2V104.1H3199.72ZM3241 170.1C3237.74 170.1 3234.73 169.567 3231.96 168.5C3229.18 167.433 3226.78 165.94 3224.76 164.02C3222.78 162.153 3221.34 159.94 3220.44 157.38L3230.2 153.7C3230.84 155.727 3232.09 157.353 3233.96 158.58C3235.88 159.86 3238.22 160.5 3241 160.5C3243.13 160.5 3245 160.1 3246.6 159.3C3248.25 158.5 3249.53 157.327 3250.44 155.78C3251.34 154.287 3251.8 152.473 3251.8 150.34V140.42L3253.8 142.82C3252.3 145.433 3250.3 147.407 3247.8 148.74C3245.29 150.073 3242.44 150.74 3239.24 150.74C3235.18 150.74 3231.56 149.807 3228.36 147.94C3225.16 146.073 3222.65 143.513 3220.84 140.26C3219.02 137.007 3218.12 133.353 3218.12 129.3C3218.12 125.193 3219.02 121.54 3220.84 118.34C3222.65 115.14 3225.13 112.633 3228.28 110.82C3231.42 108.953 3235 108.02 3239 108.02C3242.25 108.02 3245.1 108.713 3247.56 110.1C3250.06 111.433 3252.14 113.38 3253.8 115.94L3252.36 118.58V108.98H3262.28V150.34C3262.28 154.127 3261.34 157.513 3259.48 160.5C3257.66 163.487 3255.16 165.833 3251.96 167.54C3248.81 169.247 3245.16 170.1 3241 170.1ZM3240.52 141.06C3242.76 141.06 3244.7 140.58 3246.36 139.62C3248.06 138.607 3249.4 137.22 3250.36 135.46C3251.32 133.7 3251.8 131.673 3251.8 129.38C3251.8 127.14 3251.29 125.14 3250.28 123.38C3249.32 121.567 3247.98 120.153 3246.28 119.14C3244.62 118.127 3242.7 117.62 3240.52 117.62C3238.33 117.62 3236.36 118.127 3234.6 119.14C3232.84 120.153 3231.45 121.567 3230.44 123.38C3229.48 125.14 3229 127.14 3229 129.38C3229 131.62 3229.48 133.62 3230.44 135.38C3231.45 137.14 3232.81 138.527 3234.52 139.54C3236.28 140.553 3238.28 141.06 3240.52 141.06ZM3272.06 152.5V108.98H3281.9V117.54L3281.1 116.02C3282.12 113.407 3283.77 111.433 3286.06 110.1C3288.41 108.713 3291.13 108.02 3294.22 108.02C3297.42 108.02 3300.25 108.713 3302.7 110.1C3305.21 111.487 3307.16 113.433 3308.54 115.94C3309.93 118.393 3310.62 121.247 3310.62 124.5V152.5H3300.14V126.98C3300.14 125.06 3299.77 123.407 3299.02 122.02C3298.28 120.633 3297.24 119.567 3295.9 118.82C3294.62 118.02 3293.1 117.62 3291.34 117.62C3289.64 117.62 3288.12 118.02 3286.78 118.82C3285.45 119.567 3284.41 120.633 3283.66 122.02C3282.92 123.407 3282.54 125.06 3282.54 126.98V152.5H3272.06ZM3344.66 152.5L3329.7 108.98H3340.74L3351.7 142.02L3347.86 141.94L3359.54 108.98H3368.82L3380.42 141.94L3376.58 142.02L3387.54 108.98H3398.58L3383.62 152.5H3374.26L3362.42 118.02H3365.94L3353.94 152.5H3344.66ZM3404.33 152.5V108.98H3414.81V152.5H3404.33ZM3404.33 104.1V92.9H3414.81V104.1H3404.33ZM3444.33 152.98C3439.42 152.98 3435.61 151.647 3432.89 148.98C3430.22 146.26 3428.89 142.447 3428.89 137.54V118.34H3421.37V108.98H3422.17C3424.3 108.98 3425.95 108.42 3427.13 107.3C3428.3 106.18 3428.89 104.553 3428.89 102.42V99.06H3439.37V108.98H3449.37V118.34H3439.37V136.98C3439.37 138.42 3439.61 139.647 3440.09 140.66C3440.62 141.673 3441.42 142.447 3442.49 142.98C3443.61 143.513 3445.02 143.78 3446.73 143.78C3447.1 143.78 3447.53 143.753 3448.01 143.7C3448.54 143.647 3449.05 143.593 3449.53 143.54V152.5C3448.78 152.607 3447.93 152.713 3446.97 152.82C3446.01 152.927 3445.13 152.98 3444.33 152.98ZM3457.53 152.5V91.94H3468.01V117.54L3466.57 116.02C3467.59 113.407 3469.24 111.433 3471.53 110.1C3473.88 108.713 3476.6 108.02 3479.69 108.02C3482.89 108.02 3485.72 108.713 3488.17 110.1C3490.68 111.487 3492.63 113.433 3494.01 115.94C3495.4 118.393 3496.09 121.247 3496.09 124.5V152.5H3485.61V126.98C3485.61 125.06 3485.24 123.407 3484.49 122.02C3483.75 120.633 3482.71 119.567 3481.37 118.82C3480.09 118.02 3478.57 117.62 3476.81 117.62C3475.11 117.62 3473.59 118.02 3472.25 118.82C3470.92 119.567 3469.88 120.633 3469.13 122.02C3468.39 123.407 3468.01 125.06 3468.01 126.98V152.5H3457.53ZM3519.17 152.5V108.98H3529.65V152.5H3519.17ZM3519.17 104.1V92.9H3529.65V104.1H3519.17ZM3539.33 152.5V108.98H3549.17V117.54L3548.37 116.02C3549.38 113.407 3551.04 111.433 3553.33 110.1C3555.68 108.713 3558.4 108.02 3561.49 108.02C3564.69 108.02 3567.52 108.713 3569.97 110.1C3572.48 111.487 3574.42 113.433 3575.81 115.94C3577.2 118.393 3577.89 121.247 3577.89 124.5V152.5H3567.41V126.98C3567.41 125.06 3567.04 123.407 3566.29 122.02C3565.54 120.633 3564.5 119.567 3563.17 118.82C3561.89 118.02 3560.37 117.62 3558.61 117.62C3556.9 117.62 3555.38 118.02 3554.05 118.82C3552.72 119.567 3551.68 120.633 3550.93 122.02C3550.18 123.407 3549.81 125.06 3549.81 126.98V152.5H3539.33ZM3606.59 152.98C3601.68 152.98 3597.87 151.647 3595.15 148.98C3592.48 146.26 3591.15 142.447 3591.15 137.54V118.34H3583.63V108.98H3584.43C3586.56 108.98 3588.22 108.42 3589.39 107.3C3590.56 106.18 3591.15 104.553 3591.15 102.42V99.06H3601.63V108.98H3611.63V118.34H3601.63V136.98C3601.63 138.42 3601.87 139.647 3602.35 140.66C3602.88 141.673 3603.68 142.447 3604.75 142.98C3605.87 143.513 3607.28 143.78 3608.99 143.78C3609.36 143.78 3609.79 143.753 3610.27 143.7C3610.8 143.647 3611.31 143.593 3611.79 143.54V152.5C3611.04 152.607 3610.19 152.713 3609.23 152.82C3608.27 152.927 3607.39 152.98 3606.59 152.98ZM3640.05 153.46C3635.57 153.46 3631.65 152.447 3628.29 150.42C3624.93 148.393 3622.31 145.647 3620.45 142.18C3618.58 138.713 3617.65 134.873 3617.65 130.66C3617.65 126.287 3618.58 122.42 3620.45 119.06C3622.37 115.647 3624.95 112.953 3628.21 110.98C3631.51 109.007 3635.19 108.02 3639.25 108.02C3642.66 108.02 3645.65 108.58 3648.21 109.7C3650.82 110.82 3653.03 112.367 3654.85 114.34C3656.66 116.313 3658.05 118.58 3659.01 121.14C3659.97 123.647 3660.45 126.367 3660.45 129.3C3660.45 130.047 3660.39 130.82 3660.29 131.62C3660.23 132.42 3660.1 133.113 3659.89 133.7H3626.29V125.7H3653.97L3649.01 129.46C3649.49 127.007 3649.35 124.82 3648.61 122.9C3647.91 120.98 3646.74 119.46 3645.09 118.34C3643.49 117.22 3641.54 116.66 3639.25 116.66C3637.06 116.66 3635.11 117.22 3633.41 118.34C3631.7 119.407 3630.39 121.007 3629.49 123.14C3628.63 125.22 3628.31 127.753 3628.53 130.74C3628.31 133.407 3628.66 135.78 3629.57 137.86C3630.53 139.887 3631.91 141.46 3633.73 142.58C3635.59 143.7 3637.73 144.26 3640.13 144.26C3642.53 144.26 3644.55 143.753 3646.21 142.74C3647.91 141.727 3649.25 140.367 3650.21 138.66L3658.69 142.82C3657.83 144.9 3656.5 146.74 3654.69 148.34C3652.87 149.94 3650.71 151.193 3648.21 152.1C3645.75 153.007 3643.03 153.46 3640.05 153.46ZM3668.39 152.5V108.98H3678.23V117.54L3677.43 116.02C3678.45 113.407 3680.1 111.433 3682.39 110.1C3684.74 108.713 3687.46 108.02 3690.55 108.02C3693.75 108.02 3696.58 108.713 3699.03 110.1C3701.54 111.487 3703.49 113.433 3704.87 115.94C3706.26 118.393 3706.95 121.247 3706.95 124.5V152.5H3696.47V126.98C3696.47 125.06 3696.1 123.407 3695.35 122.02C3694.61 120.633 3693.57 119.567 3692.23 118.82C3690.95 118.02 3689.43 117.62 3687.67 117.62C3685.97 117.62 3684.45 118.02 3683.11 118.82C3681.78 119.567 3680.74 120.633 3679.99 122.02C3679.25 123.407 3678.87 125.06 3678.87 126.98V152.5H3668.39ZM3735.65 152.98C3730.75 152.98 3726.93 151.647 3724.21 148.98C3721.55 146.26 3720.21 142.447 3720.21 137.54V118.34H3712.69V108.98H3713.49C3715.63 108.98 3717.28 108.42 3718.45 107.3C3719.63 106.18 3720.21 104.553 3720.21 102.42V99.06H3730.69V108.98H3740.69V118.34H3730.69V136.98C3730.69 138.42 3730.93 139.647 3731.41 140.66C3731.95 141.673 3732.75 142.447 3733.81 142.98C3734.93 143.513 3736.35 143.78 3738.05 143.78C3738.43 143.78 3738.85 143.753 3739.33 143.7C3739.87 143.647 3740.37 143.593 3740.85 143.54V152.5C3740.11 152.607 3739.25 152.713 3738.29 152.82C3737.33 152.927 3736.45 152.98 3735.65 152.98ZM3748.86 152.5V108.98H3759.34V152.5H3748.86ZM3748.86 104.1V92.9H3759.34V104.1H3748.86ZM3790.3 153.46C3786.03 153.46 3782.14 152.473 3778.62 150.5C3775.15 148.527 3772.38 145.833 3770.3 142.42C3768.27 139.007 3767.26 135.113 3767.26 130.74C3767.26 126.367 3768.27 122.473 3770.3 119.06C3772.38 115.647 3775.15 112.953 3778.62 110.98C3782.08 109.007 3785.98 108.02 3790.3 108.02C3794.56 108.02 3798.43 109.007 3801.9 110.98C3805.36 112.953 3808.11 115.647 3810.14 119.06C3812.22 122.42 3813.26 126.313 3813.26 130.74C3813.26 135.113 3812.22 139.007 3810.14 142.42C3808.06 145.833 3805.28 148.527 3801.82 150.5C3798.35 152.473 3794.51 153.46 3790.3 153.46ZM3790.3 143.86C3792.64 143.86 3794.7 143.3 3796.46 142.18C3798.27 141.06 3799.68 139.513 3800.7 137.54C3801.76 135.513 3802.3 133.247 3802.3 130.74C3802.3 128.18 3801.76 125.94 3800.7 124.02C3799.68 122.047 3798.27 120.5 3796.46 119.38C3794.7 118.207 3792.64 117.62 3790.3 117.62C3787.9 117.62 3785.79 118.207 3783.98 119.38C3782.16 120.5 3780.72 122.047 3779.66 124.02C3778.64 125.94 3778.14 128.18 3778.14 130.74C3778.14 133.247 3778.64 135.513 3779.66 137.54C3780.72 139.513 3782.16 141.06 3783.98 142.18C3785.79 143.3 3787.9 143.86 3790.3 143.86ZM3821.2 152.5V108.98H3831.04V117.54L3830.24 116.02C3831.26 113.407 3832.91 111.433 3835.2 110.1C3837.55 108.713 3840.27 108.02 3843.36 108.02C3846.56 108.02 3849.39 108.713 3851.84 110.1C3854.35 111.487 3856.3 113.433 3857.68 115.94C3859.07 118.393 3859.76 121.247 3859.76 124.5V152.5H3849.28V126.98C3849.28 125.06 3848.91 123.407 3848.16 122.02C3847.42 120.633 3846.38 119.567 3845.04 118.82C3843.76 118.02 3842.24 117.62 3840.48 117.62C3838.78 117.62 3837.26 118.02 3835.92 118.82C3834.59 119.567 3833.55 120.633 3832.8 122.02C3832.06 123.407 3831.68 125.06 3831.68 126.98V152.5H3821.2Z" fill="black"/>
<rect x="4001.57" width="240" height="240" fill="#00A254"/>
<path d="M4167.86 33.3477C4186.64 33.3477 4201.86 72.1852 4201.86 120.094C4201.86 168.002 4186.64 206.84 4167.86 206.84C4158.4 206.84 4149.85 196.994 4143.69 181.104C4137.52 196.994 4128.97 206.84 4119.52 206.84C4111.3 206.84 4103.77 199.408 4097.89 187.037C4092.01 199.408 4084.48 206.84 4076.26 206.84C4057.48 206.84 4042.26 168.002 4042.26 120.094C4042.26 72.1852 4057.48 33.3477 4076.26 33.3477C4084.48 33.3477 4092.01 40.7787 4097.89 53.1494C4103.77 40.7787 4111.3 33.3477 4119.52 33.3477C4128.97 33.3477 4137.52 43.1928 4143.69 59.083C4149.85 43.1928 4158.4 33.3477 4167.86 33.3477Z" fill="#5434E2"/>
<path d="M4385.16 152.5V92.9H4404.6C4410.89 92.9 4416.36 94.18 4421 96.74C4425.69 99.2467 4429.32 102.74 4431.88 107.22C4434.44 111.647 4435.72 116.793 4435.72 122.66C4435.72 128.473 4434.44 133.647 4431.88 138.18C4429.32 142.66 4425.69 146.18 4421 148.74C4416.36 151.247 4410.89 152.5 4404.6 152.5H4385.16ZM4396.04 142.9H4404.84C4408.89 142.9 4412.39 142.073 4415.32 140.42C4418.31 138.713 4420.63 136.367 4422.28 133.38C4423.93 130.34 4424.76 126.767 4424.76 122.66C4424.76 118.5 4423.93 114.927 4422.28 111.94C4420.63 108.953 4418.31 106.633 4415.32 104.98C4412.39 103.327 4408.89 102.5 4404.84 102.5H4396.04V142.9ZM4464.14 153.46C4459.66 153.46 4455.74 152.447 4452.38 150.42C4449.02 148.393 4446.4 145.647 4444.54 142.18C4442.67 138.713 4441.74 134.873 4441.74 130.66C4441.74 126.287 4442.67 122.42 4444.54 119.06C4446.46 115.647 4449.04 112.953 4452.3 110.98C4455.6 109.007 4459.28 108.02 4463.34 108.02C4466.75 108.02 4469.74 108.58 4472.3 109.7C4474.91 110.82 4477.12 112.367 4478.94 114.34C4480.75 116.313 4482.14 118.58 4483.1 121.14C4484.06 123.647 4484.54 126.367 4484.54 129.3C4484.54 130.047 4484.48 130.82 4484.38 131.62C4484.32 132.42 4484.19 133.113 4483.98 133.7H4450.38V125.7H4478.06L4473.1 129.46C4473.58 127.007 4473.44 124.82 4472.7 122.9C4472 120.98 4470.83 119.46 4469.18 118.34C4467.58 117.22 4465.63 116.66 4463.34 116.66C4461.15 116.66 4459.2 117.22 4457.5 118.34C4455.79 119.407 4454.48 121.007 4453.58 123.14C4452.72 125.22 4452.4 127.753 4452.62 130.74C4452.4 133.407 4452.75 135.78 4453.66 137.86C4454.62 139.887 4456 141.46 4457.82 142.58C4459.68 143.7 4461.82 144.26 4464.22 144.26C4466.62 144.26 4468.64 143.753 4470.3 142.74C4472 141.727 4473.34 140.367 4474.3 138.66L4482.78 142.82C4481.92 144.9 4480.59 146.74 4478.78 148.34C4476.96 149.94 4474.8 151.193 4472.3 152.1C4469.84 153.007 4467.12 153.46 4464.14 153.46ZM4509.04 153.46C4504.4 153.46 4500.35 152.367 4496.88 150.18C4493.47 147.94 4491.12 144.927 4489.84 141.14L4497.68 137.38C4498.8 139.833 4500.35 141.753 4502.32 143.14C4504.35 144.527 4506.59 145.22 4509.04 145.22C4510.96 145.22 4512.48 144.793 4513.6 143.94C4514.72 143.087 4515.28 141.967 4515.28 140.58C4515.28 139.727 4515.04 139.033 4514.56 138.5C4514.13 137.913 4513.52 137.433 4512.72 137.06C4511.97 136.633 4511.15 136.287 4510.24 136.02L4503.12 134.02C4499.44 132.953 4496.64 131.327 4494.72 129.14C4492.85 126.953 4491.92 124.367 4491.92 121.38C4491.92 118.713 4492.59 116.393 4493.92 114.42C4495.31 112.393 4497.2 110.82 4499.6 109.7C4502.05 108.58 4504.85 108.02 4508 108.02C4512.11 108.02 4515.73 109.007 4518.88 110.98C4522.03 112.953 4524.27 115.727 4525.6 119.3L4517.6 123.06C4516.85 121.087 4515.6 119.513 4513.84 118.34C4512.08 117.167 4510.11 116.58 4507.92 116.58C4506.16 116.58 4504.77 116.98 4503.76 117.78C4502.75 118.58 4502.24 119.62 4502.24 120.9C4502.24 121.7 4502.45 122.393 4502.88 122.98C4503.31 123.567 4503.89 124.047 4504.64 124.42C4505.44 124.793 4506.35 125.14 4507.36 125.46L4514.32 127.54C4517.89 128.607 4520.64 130.207 4522.56 132.34C4524.53 134.473 4525.52 137.087 4525.52 140.18C4525.52 142.793 4524.83 145.113 4523.44 147.14C4522.05 149.113 4520.13 150.66 4517.68 151.78C4515.23 152.9 4512.35 153.46 4509.04 153.46ZM4533.58 152.5V108.98H4544.06V152.5H4533.58ZM4533.58 104.1V92.9H4544.06V104.1H4533.58ZM4574.85 170.1C4571.6 170.1 4568.58 169.567 4565.81 168.5C4563.04 167.433 4560.64 165.94 4558.61 164.02C4556.64 162.153 4555.2 159.94 4554.29 157.38L4564.05 153.7C4564.69 155.727 4565.94 157.353 4567.81 158.58C4569.73 159.86 4572.08 160.5 4574.85 160.5C4576.98 160.5 4578.85 160.1 4580.45 159.3C4582.1 158.5 4583.38 157.327 4584.29 155.78C4585.2 154.287 4585.65 152.473 4585.65 150.34V140.42L4587.65 142.82C4586.16 145.433 4584.16 147.407 4581.65 148.74C4579.14 150.073 4576.29 150.74 4573.09 150.74C4569.04 150.74 4565.41 149.807 4562.21 147.94C4559.01 146.073 4556.5 143.513 4554.69 140.26C4552.88 137.007 4551.97 133.353 4551.97 129.3C4551.97 125.193 4552.88 121.54 4554.69 118.34C4556.5 115.14 4558.98 112.633 4562.13 110.82C4565.28 108.953 4568.85 108.02 4572.85 108.02C4576.1 108.02 4578.96 108.713 4581.41 110.1C4583.92 111.433 4586 113.38 4587.65 115.94L4586.21 118.58V108.98H4596.13V150.34C4596.13 154.127 4595.2 157.513 4593.33 160.5C4591.52 163.487 4589.01 165.833 4585.81 167.54C4582.66 169.247 4579.01 170.1 4574.85 170.1ZM4574.37 141.06C4576.61 141.06 4578.56 140.58 4580.21 139.62C4581.92 138.607 4583.25 137.22 4584.21 135.46C4585.17 133.7 4585.65 131.673 4585.65 129.38C4585.65 127.14 4585.14 125.14 4584.13 123.38C4583.17 121.567 4581.84 120.153 4580.13 119.14C4578.48 118.127 4576.56 117.62 4574.37 117.62C4572.18 117.62 4570.21 118.127 4568.45 119.14C4566.69 120.153 4565.3 121.567 4564.29 123.38C4563.33 125.14 4562.85 127.14 4562.85 129.38C4562.85 131.62 4563.33 133.62 4564.29 135.38C4565.3 137.14 4566.66 138.527 4568.37 139.54C4570.13 140.553 4572.13 141.06 4574.37 141.06ZM4605.92 152.5V108.98H4615.76V117.54L4614.96 116.02C4615.97 113.407 4617.63 111.433 4619.92 110.1C4622.27 108.713 4624.99 108.02 4628.08 108.02C4631.28 108.02 4634.11 108.713 4636.56 110.1C4639.07 111.487 4641.01 113.433 4642.4 115.94C4643.79 118.393 4644.48 121.247 4644.48 124.5V152.5H4634V126.98C4634 125.06 4633.63 123.407 4632.88 122.02C4632.13 120.633 4631.09 119.567 4629.76 118.82C4628.48 118.02 4626.96 117.62 4625.2 117.62C4623.49 117.62 4621.97 118.02 4620.64 118.82C4619.31 119.567 4618.27 120.633 4617.52 122.02C4616.77 123.407 4616.4 125.06 4616.4 126.98V152.5H4605.92ZM4678.52 152.5L4663.56 108.98H4674.6L4685.56 142.02L4681.72 141.94L4693.4 108.98H4702.68L4714.28 141.94L4710.44 142.02L4721.4 108.98H4732.44L4717.48 152.5H4708.12L4696.28 118.02H4699.8L4687.8 152.5H4678.52ZM4738.18 152.5V108.98H4748.66V152.5H4738.18ZM4738.18 104.1V92.9H4748.66V104.1H4738.18ZM4778.18 152.98C4773.27 152.98 4769.46 151.647 4766.74 148.98C4764.07 146.26 4762.74 142.447 4762.74 137.54V118.34H4755.22V108.98H4756.02C4758.15 108.98 4759.81 108.42 4760.98 107.3C4762.15 106.18 4762.74 104.553 4762.74 102.42V99.06H4773.22V108.98H4783.22V118.34H4773.22V136.98C4773.22 138.42 4773.46 139.647 4773.94 140.66C4774.47 141.673 4775.27 142.447 4776.34 142.98C4777.46 143.513 4778.87 143.78 4780.58 143.78C4780.95 143.78 4781.38 143.753 4781.86 143.7C4782.39 143.647 4782.9 143.593 4783.38 143.54V152.5C4782.63 152.607 4781.78 152.713 4780.82 152.82C4779.86 152.927 4778.98 152.98 4778.18 152.98ZM4791.39 152.5V91.94H4801.87V117.54L4800.43 116.02C4801.44 113.407 4803.09 111.433 4805.39 110.1C4807.73 108.713 4810.45 108.02 4813.55 108.02C4816.75 108.02 4819.57 108.713 4822.03 110.1C4824.53 111.487 4826.48 113.433 4827.87 115.94C4829.25 118.393 4829.95 121.247 4829.95 124.5V152.5H4819.47V126.98C4819.47 125.06 4819.09 123.407 4818.35 122.02C4817.6 120.633 4816.56 119.567 4815.23 118.82C4813.95 118.02 4812.43 117.62 4810.67 117.62C4808.96 117.62 4807.44 118.02 4806.11 118.82C4804.77 119.567 4803.73 120.633 4802.99 122.02C4802.24 123.407 4801.87 125.06 4801.87 126.98V152.5H4791.39ZM4853.03 152.5V108.98H4863.51V152.5H4853.03ZM4853.03 104.1V92.9H4863.51V104.1H4853.03ZM4873.18 152.5V108.98H4883.02V117.54L4882.22 116.02C4883.24 113.407 4884.89 111.433 4887.18 110.1C4889.53 108.713 4892.25 108.02 4895.34 108.02C4898.54 108.02 4901.37 108.713 4903.82 110.1C4906.33 111.487 4908.28 113.433 4909.66 115.94C4911.05 118.393 4911.74 121.247 4911.74 124.5V152.5H4901.26V126.98C4901.26 125.06 4900.89 123.407 4900.14 122.02C4899.4 120.633 4898.36 119.567 4897.02 118.82C4895.74 118.02 4894.22 117.62 4892.46 117.62C4890.76 117.62 4889.24 118.02 4887.9 118.82C4886.57 119.567 4885.53 120.633 4884.78 122.02C4884.04 123.407 4883.66 125.06 4883.66 126.98V152.5H4873.18ZM4940.45 152.98C4935.54 152.98 4931.73 151.647 4929.01 148.98C4926.34 146.26 4925.01 142.447 4925.01 137.54V118.34H4917.49V108.98H4918.29C4920.42 108.98 4922.07 108.42 4923.25 107.3C4924.42 106.18 4925.01 104.553 4925.01 102.42V99.06H4935.49V108.98H4945.49V118.34H4935.49V136.98C4935.49 138.42 4935.73 139.647 4936.21 140.66C4936.74 141.673 4937.54 142.447 4938.61 142.98C4939.73 143.513 4941.14 143.78 4942.85 143.78C4943.22 143.78 4943.65 143.753 4944.13 143.7C4944.66 143.647 4945.17 143.593 4945.65 143.54V152.5C4944.9 152.607 4944.05 152.713 4943.09 152.82C4942.13 152.927 4941.25 152.98 4940.45 152.98ZM4973.9 153.46C4969.42 153.46 4965.5 152.447 4962.14 150.42C4958.78 148.393 4956.17 145.647 4954.3 142.18C4952.44 138.713 4951.5 134.873 4951.5 130.66C4951.5 126.287 4952.44 122.42 4954.3 119.06C4956.22 115.647 4958.81 112.953 4962.06 110.98C4965.37 109.007 4969.05 108.02 4973.1 108.02C4976.52 108.02 4979.5 108.58 4982.06 109.7C4984.68 110.82 4986.89 112.367 4988.7 114.34C4990.52 116.313 4991.9 118.58 4992.86 121.14C4993.82 123.647 4994.3 126.367 4994.3 129.3C4994.3 130.047 4994.25 130.82 4994.14 131.62C4994.09 132.42 4993.96 133.113 4993.74 133.7H4960.14V125.7H4987.82L4982.86 129.46C4983.34 127.007 4983.21 124.82 4982.46 122.9C4981.77 120.98 4980.6 119.46 4978.94 118.34C4977.34 117.22 4975.4 116.66 4973.1 116.66C4970.92 116.66 4968.97 117.22 4967.26 118.34C4965.56 119.407 4964.25 121.007 4963.34 123.14C4962.49 125.22 4962.17 127.753 4962.38 130.74C4962.17 133.407 4962.52 135.78 4963.42 137.86C4964.38 139.887 4965.77 141.46 4967.58 142.58C4969.45 143.7 4971.58 144.26 4973.98 144.26C4976.38 144.26 4978.41 143.753 4980.06 142.74C4981.77 141.727 4983.1 140.367 4984.06 138.66L4992.54 142.82C4991.69 144.9 4990.36 146.74 4988.54 148.34C4986.73 149.94 4984.57 151.193 4982.06 152.1C4979.61 153.007 4976.89 153.46 4973.9 153.46ZM5002.25 152.5V108.98H5012.09V117.54L5011.29 116.02C5012.3 113.407 5013.95 111.433 5016.25 110.1C5018.59 108.713 5021.31 108.02 5024.41 108.02C5027.61 108.02 5030.43 108.713 5032.89 110.1C5035.39 111.487 5037.34 113.433 5038.73 115.94C5040.11 118.393 5040.81 121.247 5040.81 124.5V152.5H5030.33V126.98C5030.33 125.06 5029.95 123.407 5029.21 122.02C5028.46 120.633 5027.42 119.567 5026.09 118.82C5024.81 118.02 5023.29 117.62 5021.53 117.62C5019.82 117.62 5018.3 118.02 5016.97 118.82C5015.63 119.567 5014.59 120.633 5013.85 122.02C5013.1 123.407 5012.73 125.06 5012.73 126.98V152.5H5002.25ZM5069.51 152.98C5064.6 152.98 5060.79 151.647 5058.07 148.98C5055.4 146.26 5054.07 142.447 5054.07 137.54V118.34H5046.55V108.98H5047.35C5049.48 108.98 5051.14 108.42 5052.31 107.3C5053.48 106.18 5054.07 104.553 5054.07 102.42V99.06H5064.55V108.98H5074.55V118.34H5064.55V136.98C5064.55 138.42 5064.79 139.647 5065.27 140.66C5065.8 141.673 5066.6 142.447 5067.67 142.98C5068.79 143.513 5070.2 143.78 5071.91 143.78C5072.28 143.78 5072.71 143.753 5073.19 143.7C5073.72 143.647 5074.23 143.593 5074.71 143.54V152.5C5073.96 152.607 5073.11 152.713 5072.15 152.82C5071.19 152.927 5070.31 152.98 5069.51 152.98ZM5082.72 152.5V108.98H5093.2V152.5H5082.72ZM5082.72 104.1V92.9H5093.2V104.1H5082.72ZM5124.15 153.46C5119.89 153.46 5115.99 152.473 5112.47 150.5C5109.01 148.527 5106.23 145.833 5104.15 142.42C5102.13 139.007 5101.11 135.113 5101.11 130.74C5101.11 126.367 5102.13 122.473 5104.15 119.06C5106.23 115.647 5109.01 112.953 5112.47 110.98C5115.94 109.007 5119.83 108.02 5124.15 108.02C5128.42 108.02 5132.29 109.007 5135.75 110.98C5139.22 112.953 5141.97 115.647 5143.99 119.06C5146.07 122.42 5147.11 126.313 5147.11 130.74C5147.11 135.113 5146.07 139.007 5143.99 142.42C5141.91 145.833 5139.14 148.527 5135.67 150.5C5132.21 152.473 5128.37 153.46 5124.15 153.46ZM5124.15 143.86C5126.5 143.86 5128.55 143.3 5130.31 142.18C5132.13 141.06 5133.54 139.513 5134.55 137.54C5135.62 135.513 5136.15 133.247 5136.15 130.74C5136.15 128.18 5135.62 125.94 5134.55 124.02C5133.54 122.047 5132.13 120.5 5130.31 119.38C5128.55 118.207 5126.5 117.62 5124.15 117.62C5121.75 117.62 5119.65 118.207 5117.83 119.38C5116.02 120.5 5114.58 122.047 5113.51 124.02C5112.5 125.94 5111.99 128.18 5111.99 130.74C5111.99 133.247 5112.5 135.513 5113.51 137.54C5114.58 139.513 5116.02 141.06 5117.83 142.18C5119.65 143.3 5121.75 143.86 5124.15 143.86ZM5155.06 152.5V108.98H5164.9V117.54L5164.1 116.02C5165.11 113.407 5166.77 111.433 5169.06 110.1C5171.41 108.713 5174.13 108.02 5177.22 108.02C5180.42 108.02 5183.25 108.713 5185.7 110.1C5188.21 111.487 5190.15 113.433 5191.54 115.94C5192.93 118.393 5193.62 121.247 5193.62 124.5V152.5H5183.14V126.98C5183.14 125.06 5182.77 123.407 5182.02 122.02C5181.27 120.633 5180.23 119.567 5178.9 118.82C5177.62 118.02 5176.1 117.62 5174.34 117.62C5172.63 117.62 5171.11 118.02 5169.78 118.82C5168.45 119.567 5167.41 120.633 5166.66 122.02C5165.91 123.407 5165.54 125.06 5165.54 126.98V152.5H5155.06Z" fill="black"/>
</g>
<defs>
<clipPath id="clip0_696_858">
<rect width="5388" height="240" fill="white"/>
</clipPath>
</defs>
</svg>
