<svg width="500" height="500" viewBox="0 0 500 500" fill="none" xmlns="http://www.w3.org/2000/svg">
<g clip-path="url(#clip0_695_724)">
<rect width="500" height="500" rx="250" fill="#5434E2"/>
<rect x="45.1836" y="-20.6016" width="642.566" height="479.164" rx="239.582" transform="rotate(47.9183 45.1836 -20.6016)" fill="#FF7401"/>
<path d="M309.45 125.949C284.722 93.2394 240.225 144.678 221.067 174.486L283.288 243.391C302.312 217.872 334.179 158.659 309.45 125.949Z" fill="#00A254"/>
<path d="M264.86 267.625C291.864 285.466 301.803 275.222 283.617 243.795L221.035 174.49C235.487 203.737 230.935 245.212 264.86 267.625Z" fill="#00723B"/>
<path d="M44.2461 212.305C44.2461 212.305 32.0755 287.786 97.2984 360.016C167.039 437.248 243.288 432.73 243.288 432.73" stroke="#1E1E1E" stroke-width="9.93659" stroke-linecap="round" stroke-linejoin="round"/>
<path d="M82.5938 219.336C82.5938 219.336 112.209 213.419 133.667 237.183C156.612 262.592 148.078 291.855 148.078 291.855" stroke="#1E1E1E" stroke-width="9.93659" stroke-linecap="round" stroke-linejoin="round"/>
<path d="M172.863 319.305C172.863 319.305 202.479 313.388 223.937 337.152C246.881 362.561 238.347 391.824 238.347 391.824" stroke="#1E1E1E" stroke-width="9.93659" stroke-linecap="round" stroke-linejoin="round"/>
<path d="M243.684 546.847C243.684 546.847 213.438 703.548 139.144 698.8C65.3604 694.085 50.0183 566.942 30.4988 535.394C10.9794 503.847 -29.1372 517.359 -29.9893 499.118C-30.6228 485.557 -9.76256 487.276 2.943 489.461C22.3158 492.794 42.9406 509.045 55.2726 497.909C67.6047 486.774 62.0757 476.543 53.1344 470.088C43.8434 463.381 16.7228 453.444 19.7306 442.98C23.0855 431.309 47.8633 433.847 59.8937 438.037C92.4419 449.371 110.421 473.399 111.016 522.297C109.569 540.659 111.631 554.764 121.437 571.182C130.106 585.694 144.386 599.289 157.014 610.581" stroke="#FCFBFF" stroke-width="9.93659" stroke-linecap="round" stroke-linejoin="round"/>
<path d="M-69.8034 199.684C-69.8034 199.684 -228.768 213.838 -231.6 288.23C-234.412 362.111 -109.488 390.303 -80.089 412.929C-50.6901 435.556 -68.2119 474.09 -50.1518 476.793C-36.7255 478.802 -36.314 457.875 -37.1964 445.013C-38.5417 425.402 -52.6111 403.231 -40.2791 392.096C-27.947 380.96 -18.3321 387.501 -12.82 397.052C-7.09232 406.977 0.0351852 434.967 10.7507 433.039C22.7033 430.889 22.6973 405.981 19.7531 393.587C11.7878 360.055 -10.2882 339.726 -58.8721 334.162C-77.2858 333.734 -91.1083 330.248 -106.444 318.823C-119.999 308.724 -132.071 293.135 -142.021 279.424" stroke="#FCFBFF" stroke-width="9.93659" stroke-linecap="round" stroke-linejoin="round"/>
</g>
<defs>
<clipPath id="clip0_695_724">
<rect width="500" height="500" rx="250" fill="white"/>
</clipPath>
</defs>
</svg>
