<svg width="500" height="500" viewBox="0 0 500 500" fill="none" xmlns="http://www.w3.org/2000/svg">
<g clip-path="url(#clip0_695_678)">
<rect width="500" height="500" rx="250" fill="#CDDC39"/>
<rect x="-68.9375" y="222.656" width="642.566" height="479.164" rx="239.582" fill="#FF7401"/>
<path d="M216.942 124.738C176.092 121.169 184.447 188.668 193.731 222.863H286.572C280.382 191.642 257.791 128.306 216.942 124.738Z" fill="#00A254"/>
<path d="M292.206 252.783C323.545 244.697 322.604 230.456 287.09 222.891L193.711 222.891C225.104 231.766 252.835 262.941 292.206 252.783Z" fill="#00723B"/>
<path d="M103.295 379.445C103.295 379.445 151.16 439.065 248.48 439.065C352.54 439.065 400.289 379.445 400.289 379.445" stroke="#1E1E1E" stroke-width="9.93659" stroke-linecap="round" stroke-linejoin="round"/>
<path d="M134.211 355.695C134.211 355.695 149.668 329.75 181.686 329.75C215.921 329.75 231.921 355.695 231.921 355.695" stroke="#1E1E1E" stroke-width="9.93659" stroke-linecap="round" stroke-linejoin="round"/>
<path d="M268.904 355.695C268.904 355.695 284.361 329.75 316.379 329.75C350.615 329.75 366.614 355.695 366.614 355.695" stroke="#1E1E1E" stroke-width="9.93659" stroke-linecap="round" stroke-linejoin="round"/>
<path d="M485.25 455.625C485.25 455.625 581.282 583.093 527.967 635.051C475.018 686.653 370.371 612.829 333.876 606.173C297.38 599.518 280.523 638.348 266.413 626.755C255.924 618.137 271.18 603.806 281.317 595.841C296.774 583.697 322.658 579.28 322.658 562.665C322.658 546.049 311.359 543.296 300.576 545.606C289.372 548.007 263.821 561.476 258.07 552.231C251.656 541.918 270.146 525.23 281.318 519.109C311.543 502.548 341.426 505.308 378.117 537.637C390.775 551.017 402.626 558.94 421.383 562.665C437.963 565.957 457.624 564.469 474.468 562.665" stroke="#FCFBFF" stroke-width="9.93659" stroke-linecap="round" stroke-linejoin="round"/>
<path d="M17.4899 455.625C17.4899 455.625 -78.5415 583.093 -25.2268 635.051C27.7218 686.653 132.369 612.829 168.865 606.173C205.361 599.518 222.218 638.348 236.327 626.755C246.817 618.137 231.561 603.806 221.423 595.841C205.966 583.697 180.083 579.28 180.083 562.665C180.083 546.049 191.381 543.296 202.164 545.606C213.369 548.007 238.92 561.476 244.67 552.231C251.084 541.918 232.594 525.23 221.422 519.109C191.197 502.548 161.314 505.308 124.624 537.637C111.965 551.017 100.115 558.94 81.3576 562.665C64.777 565.957 45.1164 564.469 28.2725 562.665" stroke="#FCFBFF" stroke-width="9.93659" stroke-linecap="round" stroke-linejoin="round"/>
</g>
<defs>
<clipPath id="clip0_695_678">
<rect width="500" height="500" rx="250" fill="white"/>
</clipPath>
</defs>
</svg>
