<svg width="500" height="500" viewBox="0 0 500 500" fill="none" xmlns="http://www.w3.org/2000/svg">
<g clip-path="url(#clip0_695_769)">
<rect width="500" height="500" rx="250" fill="#00733C"/>
<path d="M126.375 283.608C184.52 373.768 316.211 374.236 374.993 284.491L606.347 -68.7202C671.151 -167.659 599.701 -298.924 481.43 -298.21L24.0705 -295.452C-92.918 -294.746 -163.037 -165.163 -99.6314 -66.8444L126.375 283.608Z" fill="#00723B"/>
<path d="M123.869 303.472C181.347 398.671 319.283 399.05 377.283 304.169L573.844 -17.378C634.235 -116.17 563.137 -242.963 447.349 -242.963L56.6469 -242.963C-58.7769 -242.963 -129.931 -116.885 -70.2719 -18.0748L123.869 303.472Z" fill="#FCFBFF"/>
<path d="M122.615 309.58C180.102 406.119 319.896 406.119 377.383 309.58L556.436 8.89062C615.284 -89.9347 544.072 -215.222 429.052 -215.222H70.9458C-44.074 -215.222 -115.287 -89.9348 -56.4384 8.89057L122.615 309.58Z" fill="#EF443A"/>
<path d="M382.525 4.54281C386.698 11.5502 396.845 11.5502 401.018 4.54281L414.015 -17.2829C418.286 -24.4562 413.117 -33.5503 404.768 -33.5503H378.775C370.426 -33.5503 365.257 -24.4562 369.529 -17.2829L382.525 4.54281Z" fill="#EF443A"/>
<path d="M382.525 4.54281C386.698 11.5502 396.845 11.5502 401.018 4.54281L414.015 -17.2829C418.286 -24.4562 413.117 -33.5503 404.768 -33.5503H378.775C370.426 -33.5503 365.257 -24.4562 369.529 -17.2829L382.525 4.54281Z" fill="black" fill-opacity="0.2"/>
<path d="M282.842 4.54281C287.015 11.5502 297.162 11.5502 301.334 4.54281L314.331 -17.2829C318.603 -24.4562 313.434 -33.5503 305.085 -33.5503H279.091C270.743 -33.5503 265.574 -24.4562 269.845 -17.2829L282.842 4.54281Z" fill="#EF443A"/>
<path d="M282.842 4.54281C287.015 11.5502 297.162 11.5502 301.334 4.54281L314.331 -17.2829C318.603 -24.4562 313.434 -33.5503 305.085 -33.5503H279.091C270.743 -33.5503 265.574 -24.4562 269.845 -17.2829L282.842 4.54281Z" fill="black" fill-opacity="0.2"/>
<path d="M183.158 4.54281C187.331 11.5502 197.478 11.5502 201.651 4.54281L214.647 -17.2829C218.919 -24.4562 213.75 -33.5503 205.401 -33.5503H179.408C171.059 -33.5503 165.89 -24.4562 170.162 -17.2829L183.158 4.54281Z" fill="#EF443A"/>
<path d="M183.158 4.54281C187.331 11.5502 197.478 11.5502 201.651 4.54281L214.647 -17.2829C218.919 -24.4562 213.75 -33.5503 205.401 -33.5503H179.408C171.059 -33.5503 165.89 -24.4562 170.162 -17.2829L183.158 4.54281Z" fill="black" fill-opacity="0.2"/>
<path d="M83.4746 4.54281C87.6473 11.5502 97.7944 11.5502 101.967 4.54281L114.964 -17.2829C119.235 -24.4562 114.066 -33.5503 105.718 -33.5503H79.7242C71.3754 -33.5503 66.2064 -24.4562 70.4779 -17.2829L83.4746 4.54281Z" fill="#EF443A"/>
<path d="M83.4746 4.54281C87.6473 11.5502 97.7944 11.5502 101.967 4.54281L114.964 -17.2829C119.235 -24.4562 114.066 -33.5503 105.718 -33.5503H79.7242C71.3754 -33.5503 66.2064 -24.4562 70.4779 -17.2829L83.4746 4.54281Z" fill="black" fill-opacity="0.2"/>
<path d="M311.823 208.68C293.128 208.68 274.228 194.381 266.872 180.078C281.855 188.081 318.972 199.285 347.576 180.078" stroke="#1E1E1E" stroke-width="9.35931" stroke-linecap="round" stroke-linejoin="round"/>
<path d="M188.167 208.68C206.862 208.68 225.763 194.381 233.118 180.078C218.135 188.081 181.018 199.285 152.414 180.078" stroke="#1E1E1E" stroke-width="9.35931" stroke-linecap="round" stroke-linejoin="round"/>
<path d="M292.088 136.898C266.979 105.882 230.794 107.359 207.903 136.898" stroke="#1E1E1E" stroke-width="9.35931" stroke-linecap="round" stroke-linejoin="round"/>
</g>
<defs>
<clipPath id="clip0_695_769">
<rect width="500" height="500" rx="250" fill="white"/>
</clipPath>
</defs>
</svg>
