<svg width="500" height="500" viewBox="0 0 500 500" fill="none" xmlns="http://www.w3.org/2000/svg">
<g clip-path="url(#clip0_695_836)">
<rect width="500" height="500" rx="250" fill="#FFCA00"/>
<path d="M373.621 156.384C315.477 66.2241 183.785 65.7565 125.003 155.501L-106.35 508.713C-171.155 607.651 -99.7049 738.916 18.5659 738.203L475.926 735.444C592.914 734.738 663.033 605.155 599.628 506.837L373.621 156.384Z" fill="#00723B"/>
<path d="M376.127 136.528C318.65 41.3295 180.713 40.9503 122.713 135.831L-73.8479 457.378C-134.239 556.17 -63.1407 682.963 52.6477 682.963L443.349 682.963C558.773 682.963 629.927 556.885 570.268 458.075L376.127 136.528Z" fill="#FCFBFF"/>
<path d="M377.381 130.42C319.895 33.8809 180.1 33.8809 122.613 130.42L-56.4402 431.109C-115.288 529.935 -44.0759 655.222 70.9439 655.222L429.05 655.222C544.07 655.222 615.283 529.935 556.435 431.109L377.381 130.42Z" fill="#EF443A"/>
<path d="M117.469 435.449C113.296 428.442 103.149 428.442 98.9762 435.449L85.9795 457.275C81.708 464.448 86.877 473.542 95.2258 473.542L121.219 473.542C129.568 473.542 134.737 464.448 130.465 457.275L117.469 435.449Z" fill="#EF443A"/>
<path d="M117.469 435.449C113.296 428.442 103.149 428.442 98.9762 435.449L85.9795 457.275C81.708 464.448 86.877 473.542 95.2258 473.542L121.219 473.542C129.568 473.542 134.737 464.448 130.465 457.275L117.469 435.449Z" fill="black" fill-opacity="0.2"/>
<path d="M217.152 435.449C212.98 428.442 202.833 428.442 198.66 435.449L185.663 457.275C181.392 464.448 186.561 473.542 194.909 473.542L220.903 473.542C229.252 473.542 234.421 464.448 230.149 457.275L217.152 435.449Z" fill="#EF443A"/>
<path d="M217.152 435.449C212.98 428.442 202.833 428.442 198.66 435.449L185.663 457.275C181.392 464.448 186.561 473.542 194.909 473.542L220.903 473.542C229.252 473.542 234.421 464.448 230.149 457.275L217.152 435.449Z" fill="black" fill-opacity="0.2"/>
<path d="M316.836 435.449C312.663 428.442 302.516 428.442 298.343 435.449L285.347 457.275C281.075 464.448 286.244 473.542 294.593 473.542L320.586 473.542C328.935 473.542 334.104 464.448 329.833 457.275L316.836 435.449Z" fill="#EF443A"/>
<path d="M316.836 435.449C312.663 428.442 302.516 428.442 298.343 435.449L285.347 457.275C281.075 464.448 286.244 473.542 294.593 473.542L320.586 473.542C328.935 473.542 334.104 464.448 329.833 457.275L316.836 435.449Z" fill="black" fill-opacity="0.2"/>
<path d="M416.52 435.449C412.347 428.442 402.2 428.442 398.027 435.449L385.03 457.275C380.759 464.448 385.928 473.542 394.277 473.542L420.27 473.542C428.619 473.542 433.788 464.448 429.516 457.275L416.52 435.449Z" fill="#EF443A"/>
<path d="M416.52 435.449C412.347 428.442 402.2 428.442 398.027 435.449L385.03 457.275C380.759 464.448 385.928 473.542 394.277 473.542L420.27 473.542C428.619 473.542 433.788 464.448 429.516 457.275L416.52 435.449Z" fill="black" fill-opacity="0.2"/>
<path d="M188.173 231.312C206.868 231.312 225.768 245.611 233.124 259.914C218.141 251.911 181.024 240.708 152.42 259.914" stroke="#1E1E1E" stroke-width="9.35931" stroke-linecap="round" stroke-linejoin="round"/>
<path d="M311.829 231.312C293.134 231.312 274.234 245.611 266.878 259.914C281.861 251.911 318.978 240.708 347.582 259.914" stroke="#1E1E1E" stroke-width="9.35931" stroke-linecap="round" stroke-linejoin="round"/>
<path d="M207.908 303.094C233.017 334.111 269.202 332.634 292.093 303.094" stroke="#1E1E1E" stroke-width="9.35931" stroke-linecap="round" stroke-linejoin="round"/>
</g>
<defs>
<clipPath id="clip0_695_836">
<rect width="500" height="500" rx="250" fill="white"/>
</clipPath>
</defs>
</svg>
