<svg width="153" height="160" viewBox="0 0 153 160" fill="none" xmlns="http://www.w3.org/2000/svg">
<path d="M69.354 4.31818C72.1501 -1.43891 80.3524 -1.43891 83.1485 4.31817L90.225 18.8882C92.1253 22.8008 96.8961 24.3509 100.733 22.3026L115.022 14.6746C120.668 11.6606 127.304 16.4817 126.182 22.7828L123.343 38.7297C122.581 43.012 125.529 47.0703 129.838 47.6685L145.881 49.8963C152.221 50.7766 154.755 58.5773 150.144 63.0157L138.474 74.2482C135.34 77.2646 135.34 82.2809 138.474 85.2972L150.144 96.5298C154.755 100.968 152.221 108.769 145.881 109.649L129.838 111.877C125.529 112.475 122.581 116.533 123.343 120.816L126.182 136.763C127.304 143.064 120.668 147.885 115.022 144.871L100.733 137.243C96.8961 135.195 92.1253 136.745 90.225 140.657L83.1485 155.227C80.3524 160.984 72.1502 160.984 69.354 155.227L62.2775 140.657C60.3772 136.745 55.6064 135.195 51.7693 137.243L37.4802 144.871C31.8341 147.885 25.1984 143.064 26.3202 136.763L29.1592 120.816C29.9216 116.533 26.9731 112.475 22.6648 111.877L6.62107 109.649C0.281705 108.769 -2.25293 100.968 2.35833 96.5298L14.0285 85.2972C17.1624 82.2809 17.1624 77.2646 14.0285 74.2482L2.35833 63.0157C-2.25292 58.5774 0.281695 50.7766 6.62106 49.8963L22.6648 47.6686C26.9731 47.0703 29.9216 43.012 29.1592 38.7297L26.3202 22.7828C25.1984 16.4817 31.8341 11.6606 37.4802 14.6746L51.7693 22.3026C55.6064 24.3509 60.3772 22.8008 62.2775 18.8882L69.354 4.31818Z" fill="#5434E2"/>
</svg>
