<svg width="160" height="174" viewBox="0 0 160 174" fill="none" xmlns="http://www.w3.org/2000/svg">
<path d="M125.601 0C144.381 0 159.605 38.8375 159.605 86.7461C159.605 134.655 144.381 173.492 125.601 173.492C116.145 173.492 107.593 163.647 101.43 147.756C95.2662 163.647 86.7142 173.492 77.2588 173.492C69.0437 173.492 61.5095 166.061 55.6318 153.689C49.7542 166.061 42.22 173.492 34.0049 173.492C15.2245 173.492 0 134.655 0 86.7461C0 38.8375 15.2245 0 34.0049 0C42.2198 0 49.7543 7.43103 55.6318 19.8018C61.5094 7.43103 69.0439 0 77.2588 0C86.7141 0 95.2662 9.84516 101.43 25.7354C107.593 9.84516 116.145 0 125.601 0Z" fill="#FFCA00"/>
</svg>
