<svg width="1920" height="480" viewBox="0 0 1920 480" fill="none" xmlns="http://www.w3.org/2000/svg" xmlns:xlink="http://www.w3.org/1999/xlink">
<rect width="1920" height="480" fill="#F0F4C2"/>
<rect width="1920" height="480" fill="url(#pattern0_676_758)"/>
<defs>
<pattern id="pattern0_676_758" patternUnits="userSpaceOnUse" patternTransform="matrix(103.104 0 0 206.208 6.70166 4.94153)" preserveAspectRatio="none" viewBox="13.4033 9.88306 206.208 412.416" width="1" height="1">
<use xlink:href="#pattern0_676_758_inner" transform="translate(-206.208 0)"/>
<g id="pattern0_676_758_inner">
<path d="M82.7583 14.201C85.5544 8.44391 93.7567 8.4439 96.5528 14.201L103.629 28.771C105.53 32.6836 110.3 34.2338 114.138 32.1854L128.427 24.5574C134.073 21.5434 140.708 26.3645 139.587 32.6656L136.748 48.6125C135.985 52.8948 138.934 56.9531 143.242 57.5514L159.286 59.7791C165.625 60.6594 168.16 68.4602 163.548 72.8985L151.878 84.1311C148.744 87.1474 148.744 92.1637 151.878 95.1801L163.548 106.413C168.16 110.851 165.625 118.652 159.286 119.532L143.242 121.76C138.934 122.358 135.985 126.416 136.748 130.699L139.587 146.645C140.708 152.947 134.073 157.768 128.427 154.754L114.138 147.126C110.3 145.077 105.53 146.627 103.629 150.54L96.5528 165.11C93.7567 170.867 85.5545 170.867 82.7583 165.11L75.6818 150.54C73.7815 146.627 69.0107 145.077 65.1736 147.126L50.8845 154.754C45.2384 157.768 38.6027 152.947 39.7245 146.645L42.5635 130.699C43.3259 126.416 40.3774 122.358 36.0691 121.76L20.0254 119.532C13.686 118.652 11.1514 110.851 15.7626 106.413L27.4328 95.1801C30.5667 92.1637 30.5667 87.1474 27.4328 84.1311L15.7626 72.8985C11.1514 68.4602 13.686 60.6594 20.0254 59.7791L36.0691 57.5514C40.3774 56.9531 43.3259 52.8949 42.5635 48.6125L39.7245 32.6656C38.6027 26.3645 45.2384 21.5434 50.8845 24.5574L65.1736 32.1854C69.0107 34.2338 73.7815 32.6836 75.6818 28.7711L82.7583 14.201Z" fill="#CDDC39"/>
</g>
<use xlink:href="#pattern0_676_758_inner" transform="translate(-103.104 206.208)"/>
<use xlink:href="#pattern0_676_758_inner" transform="translate(103.104 206.208)"/>
</pattern></defs>
</svg>
