<svg width="1920" height="961" viewBox="0 0 1920 961" fill="none" xmlns="http://www.w3.org/2000/svg" xmlns:xlink="http://www.w3.org/1999/xlink">
<rect width="1920" height="961" fill="url(#pattern0_676_658)"/>
<defs>
<pattern id="pattern0_676_658" patternUnits="userSpaceOnUse" patternTransform="matrix(720 0 0 480 0 0)" preserveAspectRatio="none" viewBox="0 0 720 480" width="1" height="1">
<g id="pattern0_676_658_inner">
<rect width="240" height="240" fill="#5434E2"/>
<path d="M112.663 44.1053C115.459 38.3482 123.661 38.3482 126.457 44.1053L133.534 58.6753C135.434 62.5879 140.205 64.1381 144.042 62.0897L158.331 54.4617C163.977 51.4477 170.613 56.2688 169.491 62.5699L166.652 78.5168C165.889 82.7991 168.838 86.8574 173.146 87.4557L189.19 89.6834C195.529 90.5637 198.064 98.3645 193.453 102.803L181.783 114.035C178.649 117.052 178.649 122.068 181.783 125.084L193.453 136.317C198.064 140.755 195.529 148.556 189.19 149.436L173.146 151.664C168.838 152.262 165.889 156.321 166.652 160.603L169.491 176.55C170.613 182.851 163.977 187.672 158.331 184.658L144.042 177.03C140.205 174.982 135.434 176.532 133.534 180.444L126.457 195.014C123.661 200.771 115.459 200.772 112.663 195.014L105.586 180.444C103.686 176.532 98.915 174.982 95.0779 177.03L80.7888 184.658C75.1427 187.672 68.507 182.851 69.6288 176.55L72.4678 160.603C73.2302 156.321 70.2817 152.262 65.9734 151.664L49.9297 149.436C43.5903 148.556 41.0557 140.755 45.6669 136.317L57.3371 125.084C60.471 122.068 60.471 117.052 57.3371 114.035L45.6669 102.803C41.0557 98.3645 43.5903 90.5637 49.9297 89.6834L65.9734 87.4557C70.2817 86.8574 73.2302 82.7991 72.4678 78.5168L69.6288 62.5699C68.507 56.2688 75.1427 51.4477 80.7888 54.4617L95.0779 62.0897C98.915 64.1381 103.686 62.5879 105.586 58.6754L112.663 44.1053Z" fill="#CDDC39"/>
<rect x="240" width="240" height="240" fill="#CDDC39"/>
<path d="M343.44 183.35L297.319 83.0683C293.372 74.4844 301.092 65.1404 310.267 67.3988L417.356 93.7613C427.574 96.2766 429.09 110.174 419.655 114.833L381.683 133.582C378.793 135.009 376.651 137.604 375.798 140.712L364.57 181.622C361.783 191.776 347.839 192.916 343.44 183.35Z" fill="#00A254"/>
<rect y="240" width="240" height="240" fill="#FFCA00"/>
<path d="M163.412 348.518C163.412 372.656 143.844 392.224 119.706 392.224C95.5679 392.224 76 372.656 76 348.518C76 324.38 95.5679 304.812 119.706 304.812C143.844 304.812 163.412 324.38 163.412 348.518ZM92.9352 348.518C92.9352 363.303 104.921 375.289 119.706 375.289C134.491 375.289 146.477 363.303 146.477 348.518C146.477 333.733 134.491 321.747 119.706 321.747C104.921 321.747 92.9352 333.733 92.9352 348.518Z" fill="#FF7401"/>
<path d="M163.412 392.648C163.412 404.24 158.807 415.357 150.611 423.553C142.414 431.75 131.298 436.354 119.706 436.354C108.115 436.354 96.9977 431.75 88.8012 423.553C80.6047 415.357 76 404.24 76 392.648L92.9352 392.648C92.9352 399.748 95.7557 406.558 100.776 411.578C105.797 416.599 112.606 419.419 119.706 419.419C126.806 419.419 133.615 416.599 138.636 411.578C143.656 406.558 146.477 399.748 146.477 392.648H163.412Z" fill="#FF7401"/>
<path d="M113.523 284.031C104.289 283.224 106.178 298.483 108.277 306.213H129.264C127.864 299.155 122.758 284.837 113.523 284.031Z" fill="#00A254"/>
<path d="M130.536 312.976C137.621 311.148 137.408 307.929 129.38 306.219L108.271 306.219C115.367 308.225 121.636 315.272 130.536 312.976Z" fill="#00723B"/>
<rect x="240" y="240" width="240" height="240" fill="#FF7401"/>
<path d="M374.53 326.231L413.817 286.944L433.824 306.95L394.537 346.237L450.096 346.238V374.531H394.536L433.822 413.817L413.815 433.823L374.53 394.538V450.096H346.236V394.537L306.951 433.823L286.944 413.817L326.23 374.531H270.671V346.237H326.229L286.942 306.95L306.949 286.944L346.236 326.231V270.671H374.53V326.231Z" fill="#5434E2"/>
<rect x="480" width="240" height="240" fill="#00723B"/>
<path d="M642.468 31.027C643.965 29.5297 646.392 29.5297 647.89 31.027L689.594 72.7311C691.091 74.2283 691.091 76.6557 689.594 78.1529L647.89 119.857C647.718 120.028 647.534 120.178 647.342 120.31C647.534 120.442 647.718 120.593 647.89 120.764L689.594 162.468C691.091 163.966 691.091 166.393 689.594 167.89L647.89 209.594C646.392 211.092 643.965 211.092 642.468 209.594L600.764 167.89C600.593 167.719 600.442 167.536 600.31 167.343C600.179 167.536 600.028 167.719 599.857 167.89L558.153 209.594C556.656 211.092 554.229 211.092 552.731 209.594L511.027 167.89C509.53 166.393 509.53 163.966 511.027 162.468L552.731 120.764C552.902 120.593 553.086 120.442 553.278 120.31C553.086 120.178 552.902 120.028 552.731 119.857L511.027 78.1529C509.53 76.6557 509.53 74.2283 511.027 72.7311L552.731 31.027C554.229 29.5297 556.656 29.5297 558.153 31.027L599.857 72.7311C600.028 72.9017 600.179 73.0849 600.31 73.277C600.442 73.0849 600.593 72.9017 600.764 72.7311L642.468 31.027ZM600.31 77.6061C600.179 77.7983 600.028 77.9821 599.857 78.1529L558.153 119.857C557.982 120.028 557.798 120.178 557.605 120.31C557.798 120.442 557.982 120.593 558.153 120.764L599.857 162.468C600.028 162.639 600.179 162.822 600.31 163.014C600.442 162.822 600.593 162.639 600.764 162.468L642.468 120.764C642.639 120.593 642.822 120.442 643.015 120.31C642.822 120.178 642.638 120.028 642.468 119.857L600.764 78.1529C600.593 77.9821 600.442 77.7983 600.31 77.6061Z" fill="#FFCA00"/>
<rect x="480" y="240" width="240" height="240" fill="#CAC0F6"/>
<circle cx="557.061" cy="317.061" r="43.3227" fill="#5434E2"/>
<circle cx="557.061" cy="403.706" r="43.3227" fill="#5434E2"/>
<circle cx="643.706" cy="317.061" r="43.3227" fill="#5434E2"/>
<circle cx="643.706" cy="403.706" r="43.3227" fill="#5434E2"/>
</g>
</pattern></defs>
</svg>
